<?xml version="1.0" encoding="UTF-8" standalone="no"?>
<!DOCTYPE svg PUBLIC "-//W3C//DTD SVG 1.1//EN" "http://www.w3.org/Graphics/SVG/1.1/DTD/svg11.dtd">
<svg xmlns="http://www.w3.org/2000/svg" version="1.1" viewBox="0 0 709 86" width="709.0pt" height="86.0pt">
<path d="M 0.00 0.00 L 2.16 0.00 C 1.96 2.80 1.99 5.57 1.98 8.38 C 10.11 8.38 18.25 8.38 26.39 8.37 C 26.38 5.57 26.42 2.80 26.29 0.00 L 34.55 0.00 C 34.39 2.78 34.43 5.59 34.43 8.38 C 42.59 8.37 50.74 8.38 58.90 8.37 C 58.89 5.57 58.92 2.80 58.73 0.00 L 67.17 0.00 C 66.92 2.79 66.92 5.57 66.90 8.37 C 75.04 8.38 83.18 8.38 91.32 8.37 C 91.32 5.56 91.36 2.79 91.23 0.00 L 709.00 0.00 L 709.00 86.00 L 0.00 86.00 L 0.00 0.00 Z" fill="#ffffff" />
<path d="M 2.16 0.00 L 26.29 0.00 C 26.42 2.80 26.38 5.57 26.39 8.37 C 18.25 8.38 10.11 8.38 1.98 8.38 C 1.99 5.57 1.96 2.80 2.16 0.00 Z" fill="#000000" />
<path d="M 34.55 0.00 L 58.73 0.00 C 58.92 2.80 58.89 5.57 58.90 8.37 C 50.74 8.38 42.59 8.37 34.43 8.38 C 34.43 5.59 34.39 2.78 34.55 0.00 Z" fill="#000000" />
<path d="M 67.17 0.00 L 91.23 0.00 C 91.36 2.79 91.32 5.56 91.32 8.37 C 83.18 8.38 75.04 8.38 66.90 8.37 C 66.92 5.57 66.92 2.79 67.17 0.00 Z" fill="#000000" />
<path d="M 2.00 16.18 C 10.13 16.19 18.25 16.19 26.37 16.18 C 26.38 18.91 26.38 21.64 26.38 24.38 C 18.25 24.38 10.13 24.38 2.00 24.38 C 2.00 21.64 2.00 18.91 2.00 16.18 Z" fill="#000000" />
<path d="M 34.53 16.30 C 42.63 16.01 50.77 16.28 58.88 16.18 C 58.88 18.91 58.88 21.64 58.88 24.37 C 50.73 24.38 42.59 24.37 34.44 24.38 C 34.43 21.69 34.33 18.98 34.53 16.30 Z" fill="#000000" />
<path d="M 66.94 16.18 C 75.06 16.18 83.19 16.19 91.31 16.18 C 91.31 18.91 91.31 21.64 91.31 24.38 C 83.19 24.38 75.06 24.38 66.94 24.38 C 66.94 21.64 66.94 18.91 66.94 16.18 Z" fill="#000000" />
<path d="M 2.00 32.43 C 10.13 32.44 18.25 32.43 26.38 32.44 C 26.38 35.17 26.38 37.89 26.38 40.62 C 18.25 40.63 10.13 40.62 2.00 40.63 C 2.00 37.90 2.00 35.17 2.00 32.43 Z" fill="#000000" />
<path d="M 58.88 32.43 C 58.88 35.17 58.88 37.90 58.88 40.63 C 50.73 40.63 42.58 40.63 34.43 40.62 C 34.44 37.89 34.44 35.17 34.44 32.44 C 42.58 32.43 50.73 32.44 58.88 32.43 Z" fill="#000000" />
<path d="M 142.17 32.62 C 147.68 33.25 151.72 37.39 151.79 43.00 C 152.04 47.08 149.96 49.74 146.95 52.15 C 148.90 53.72 150.77 54.97 151.68 57.42 C 152.97 60.94 152.61 65.34 150.45 68.45 C 148.26 71.53 144.71 72.84 141.04 72.96 C 135.26 73.10 129.47 72.95 123.69 73.00 C 123.68 59.46 123.69 45.92 123.68 32.38 C 129.82 32.50 136.06 32.07 142.17 32.62 Z" fill="#000000" />
<path d="M 446.50 32.43 C 446.50 45.95 446.50 59.48 446.50 73.00 C 444.57 73.00 442.63 73.00 440.69 73.00 C 440.76 72.08 440.84 71.16 440.92 70.25 C 436.88 73.85 431.17 74.51 426.66 71.36 C 423.12 68.52 422.84 63.16 422.76 58.99 C 422.79 54.76 422.89 49.32 426.17 46.16 C 430.36 42.57 436.63 43.11 440.71 46.64 C 440.56 41.92 440.64 37.17 440.62 32.44 C 442.58 32.44 444.54 32.44 446.50 32.43 Z" fill="#000000" />
<path d="M 538.44 32.24 C 540.52 32.25 542.61 32.25 544.69 32.25 C 544.69 34.32 544.69 36.38 544.68 38.44 C 542.60 38.44 540.52 38.44 538.43 38.44 C 538.44 36.37 538.44 34.31 538.44 32.24 Z" fill="#000000" />
<path d="M 581.06 35.81 C 583.02 35.81 584.98 35.81 586.94 35.81 C 586.94 38.73 586.94 41.64 586.94 44.56 C 588.82 44.56 590.69 44.56 592.56 44.56 C 592.57 46.06 592.57 47.56 592.56 49.06 C 590.69 49.06 588.82 49.06 586.94 49.06 C 587.08 54.65 586.63 60.34 587.17 65.90 C 587.45 68.32 590.85 67.83 592.61 68.24 C 592.58 69.85 592.57 71.47 592.55 73.09 C 589.96 72.92 586.50 73.27 584.32 71.71 C 582.07 70.17 581.18 67.68 581.11 65.04 C 580.95 59.72 581.11 54.39 581.06 49.07 C 579.96 49.06 578.85 49.06 577.75 49.06 C 577.75 47.56 577.75 46.06 577.75 44.57 C 578.85 44.56 579.95 44.56 581.06 44.56 C 581.06 41.64 581.06 38.73 581.06 35.81 Z" fill="#000000" />
<path d="M 129.94 38.01 C 133.93 38.17 138.41 37.47 142.25 38.60 C 146.78 40.33 146.66 47.49 142.03 49.02 C 138.21 50.03 133.88 49.42 129.94 49.55 C 129.94 45.71 129.94 41.86 129.94 38.01 Z" fill="#ffffff" />
<path d="M 160.25 44.06 C 162.17 44.06 164.10 44.06 166.03 44.06 C 166.00 44.96 165.97 45.87 165.94 46.78 C 168.16 45.27 170.16 43.83 172.98 43.76 C 175.98 43.46 178.26 44.77 180.79 46.14 C 179.38 47.67 177.94 49.18 176.49 50.68 C 174.69 49.92 173.07 48.71 171.03 49.05 C 168.05 49.50 166.24 52.10 166.18 55.01 C 166.00 61.00 166.19 67.01 166.12 73.00 C 164.16 73.00 162.20 73.00 160.24 73.00 C 160.25 63.35 160.25 53.71 160.25 44.06 Z" fill="#000000" />
<path d="M 195.00 43.93 C 198.27 44.69 200.96 44.41 204.23 43.89 C 203.64 44.93 203.06 45.97 202.48 47.01 C 204.27 49.78 205.58 52.60 205.63 55.96 C 205.84 61.13 205.86 66.92 201.59 70.59 C 197.58 73.99 192.89 73.67 188.09 72.44 C 186.40 72.78 184.69 73.03 182.98 73.26 C 183.56 72.17 184.16 71.10 184.75 70.01 C 180.93 64.84 181.08 58.23 182.21 52.19 C 183.59 46.47 189.25 42.96 195.00 43.93 Z" fill="#000000" />
<path d="M 212.94 44.06 C 214.88 44.06 216.81 44.06 218.75 44.07 L 218.54 46.61 C 221.53 44.72 224.37 43.24 228.05 43.86 C 232.85 44.36 236.17 48.18 236.33 52.96 C 236.62 59.63 236.35 66.33 236.44 73.00 C 234.48 73.00 232.52 73.00 230.56 73.00 C 230.54 67.65 230.59 62.30 230.58 56.96 C 230.51 54.63 230.53 52.02 228.65 50.33 C 225.21 47.52 219.38 49.24 218.99 53.98 C 218.56 60.29 218.94 66.67 218.82 73.00 C 216.86 73.00 214.90 73.00 212.94 73.00 C 212.94 63.35 212.94 53.70 212.94 44.06 Z" fill="#000000" />
<path d="M 244.75 44.05 C 246.69 44.06 248.63 44.06 250.57 44.07 L 250.32 46.58 C 253.11 44.93 255.63 43.41 259.02 43.78 C 263.68 43.93 267.53 47.25 268.02 51.95 C 268.55 58.93 268.11 66.00 268.25 73.00 C 266.29 73.00 264.33 73.00 262.37 73.00 C 262.35 67.66 262.40 62.33 262.38 56.99 C 262.29 54.94 262.38 52.63 261.02 50.94 C 258.74 48.09 253.48 48.41 251.59 51.55 C 250.63 53.12 250.68 55.21 250.61 56.99 C 250.60 62.33 250.65 67.66 250.63 73.00 C 248.67 73.00 246.71 73.00 244.75 73.00 C 244.75 63.35 244.75 53.70 244.75 44.05 Z" fill="#000000" />
<path d="M 292.70 44.63 C 294.41 44.30 296.13 44.06 297.87 43.84 C 297.28 44.90 296.68 45.96 296.09 47.02 C 299.80 52.12 299.72 57.99 298.88 63.98 C 298.18 68.00 295.47 71.39 291.55 72.68 C 288.17 73.87 285.08 73.18 281.72 72.42 C 280.03 72.79 278.33 73.03 276.63 73.30 C 277.19 72.21 277.75 71.13 278.32 70.04 C 276.57 67.24 275.31 64.38 275.26 61.03 C 275.07 55.80 275.06 50.07 279.41 46.40 C 283.39 43.10 287.96 43.45 292.70 44.63 Z" fill="#000000" />
<path d="M 302.39 44.06 C 304.47 44.06 306.55 44.06 308.63 44.07 C 310.91 50.81 313.19 57.55 315.50 64.29 C 317.73 57.54 319.95 50.80 322.20 44.06 C 324.29 44.06 326.39 44.06 328.48 44.06 C 324.42 55.14 320.31 66.19 316.28 77.27 C 315.35 79.59 314.55 82.07 312.26 83.39 C 310.29 84.52 307.50 84.39 305.29 84.58 C 305.26 82.86 305.23 81.13 305.19 79.41 C 306.63 79.15 308.14 78.96 309.52 78.47 C 310.95 76.54 311.64 73.95 312.51 71.73 C 309.16 62.49 305.75 53.28 302.39 44.06 Z" fill="#000000" />
<path d="M 353.16 46.84 C 351.96 48.06 350.76 49.29 349.56 50.52 C 346.21 49.06 341.94 47.63 338.48 49.54 C 336.43 50.79 336.36 54.23 338.82 55.06 C 342.83 56.31 348.43 55.30 351.76 58.23 C 355.69 61.93 354.58 69.30 349.64 71.68 C 343.37 74.60 335.13 73.82 329.74 69.33 C 330.98 68.06 332.23 66.79 333.47 65.51 C 337.42 68.07 341.99 69.41 346.49 67.37 C 348.80 66.22 349.09 62.48 346.51 61.48 C 342.52 60.29 336.96 61.26 333.62 58.40 C 329.83 54.90 330.82 47.80 335.42 45.40 C 340.84 42.50 348.11 43.53 353.16 46.84 Z" fill="#000000" />
<path d="M 360.25 44.06 C 362.21 44.06 364.16 44.06 366.12 44.06 C 366.14 49.38 366.10 54.70 366.11 60.03 C 366.17 61.96 366.11 64.04 367.16 65.74 C 369.19 68.95 374.74 68.84 376.79 65.70 C 377.88 64.02 377.82 61.96 377.89 60.03 C 377.90 54.71 377.85 49.38 377.88 44.06 C 379.83 44.06 381.79 44.06 383.75 44.06 C 383.75 53.71 383.75 63.35 383.76 73.00 C 381.83 73.00 379.90 73.00 377.97 73.00 L 378.06 70.46 C 374.94 72.60 371.83 73.96 367.95 73.13 C 363.36 72.36 360.46 68.51 360.34 63.95 C 360.10 57.33 360.32 50.69 360.25 44.06 Z" fill="#000000" />
<path d="M 392.31 44.06 C 394.26 44.06 396.21 44.06 398.17 44.06 C 398.11 44.92 398.05 45.78 398.00 46.64 C 400.83 44.80 403.51 43.32 407.04 43.81 C 411.70 44.16 415.23 47.56 415.65 52.23 C 416.05 59.13 415.70 66.09 415.82 73.00 C 413.86 73.00 411.90 73.00 409.94 73.00 C 409.92 67.66 409.96 62.33 409.95 56.99 C 409.88 55.08 409.96 52.86 408.82 51.22 C 406.74 48.15 401.34 48.29 399.31 51.36 C 398.24 52.99 398.23 55.07 398.18 56.96 C 398.16 62.31 398.21 67.65 398.19 73.00 C 396.23 73.00 394.27 73.00 392.31 73.00 C 392.31 63.35 392.31 53.71 392.31 44.06 Z" fill="#000000" />
<path d="M 455.06 44.06 C 457.01 44.06 458.96 44.06 460.91 44.07 C 460.87 44.96 460.83 45.85 460.79 46.73 C 463.08 45.24 465.11 43.79 467.98 43.75 C 470.94 43.49 473.18 44.80 475.65 46.18 C 474.22 47.71 472.77 49.21 471.31 50.70 C 469.61 49.96 467.96 48.73 466.02 49.03 C 463.01 49.41 461.11 52.02 461.04 54.95 C 460.77 60.95 461.02 66.99 460.94 73.00 C 458.98 73.00 457.02 73.00 455.06 73.00 C 455.06 63.35 455.06 53.71 455.06 44.06 Z" fill="#000000" />
<path d="M 498.38 48.60 C 500.85 52.23 500.77 56.03 500.99 60.24 C 494.59 60.29 488.20 60.18 481.80 60.32 C 482.59 62.99 482.82 65.86 485.53 67.32 C 489.53 69.31 493.30 68.04 496.63 65.47 C 497.86 66.63 499.10 67.78 500.33 68.95 C 495.52 73.41 489.12 74.62 483.03 72.11 C 479.25 70.39 477.28 66.76 476.62 62.80 C 475.89 58.00 476.19 52.24 479.18 48.18 C 483.56 42.05 494.26 42.28 498.38 48.60 Z" fill="#000000" />
<path d="M 524.47 46.68 L 524.25 44.07 C 526.16 44.06 528.08 44.06 530.00 44.05 C 530.00 53.37 530.00 62.69 530.01 72.01 C 530.04 75.37 529.42 78.56 527.14 81.13 C 522.09 86.70 512.70 86.00 507.24 81.34 C 508.46 80.09 509.69 78.84 510.92 77.61 C 514.27 79.84 518.01 81.16 521.67 78.70 C 524.53 76.44 523.94 72.70 524.31 69.47 C 520.29 72.66 514.91 73.48 510.57 70.43 C 506.77 67.44 506.60 62.43 506.54 58.00 C 506.60 53.62 506.78 48.50 510.57 45.58 C 515.01 42.60 520.45 43.35 524.47 46.68 Z" fill="#000000" />
<path d="M 538.63 44.06 C 540.58 44.06 542.54 44.06 544.50 44.06 C 544.50 53.71 544.50 63.35 544.51 73.00 C 542.54 73.00 540.58 73.00 538.62 73.00 C 538.62 63.35 538.62 53.71 538.63 44.06 Z" fill="#000000" />
<path d="M 573.59 46.82 C 572.37 48.08 571.14 49.33 569.91 50.58 C 566.58 49.01 562.92 47.81 559.32 49.30 C 556.99 50.33 556.58 53.95 559.09 55.00 C 563.04 56.33 568.50 55.28 571.99 58.05 C 575.81 61.24 575.24 68.37 571.06 71.06 C 564.93 74.82 555.65 73.97 550.14 69.31 C 551.40 68.02 552.67 66.74 553.94 65.46 C 557.73 68.07 562.13 69.28 566.57 67.54 C 569.02 66.55 569.66 63.04 567.26 61.63 C 563.52 60.23 557.83 61.29 554.36 58.66 C 550.06 55.18 551.20 47.53 556.20 45.20 C 561.67 42.57 568.57 43.58 573.59 46.82 Z" fill="#000000" />
<path d="M 599.31 44.06 C 601.24 44.06 603.17 44.06 605.10 44.06 C 605.06 44.98 605.01 45.89 604.95 46.81 C 607.18 45.31 609.17 43.87 611.98 43.76 C 615.02 43.44 617.34 44.74 619.89 46.14 C 618.48 47.68 617.05 49.20 615.61 50.71 C 613.72 49.90 612.16 48.68 610.02 49.06 C 607.08 49.56 605.34 52.16 605.26 55.03 C 605.05 61.01 605.26 67.01 605.19 73.00 C 603.23 73.00 601.27 73.00 599.31 73.00 C 599.31 63.35 599.31 53.71 599.31 44.06 Z" fill="#000000" />
<path d="M 642.53 48.48 C 645.09 52.13 645.01 55.98 645.16 60.25 C 638.78 60.30 632.39 60.14 626.01 60.36 C 626.90 63.07 627.01 65.74 629.72 67.29 C 633.75 69.35 637.51 68.04 640.86 65.43 C 642.09 66.61 643.32 67.79 644.55 68.98 C 641.66 71.26 638.87 73.21 635.03 73.30 C 629.71 73.73 624.44 72.03 622.10 66.89 C 619.82 61.48 619.84 54.03 622.91 48.92 C 626.96 42.12 638.14 41.99 642.53 48.48 Z" fill="#000000" />
<path d="M 652.12 44.06 C 654.05 44.06 655.98 44.06 657.91 44.06 L 657.79 46.63 C 660.68 44.75 663.45 43.28 667.05 43.83 C 671.71 44.26 675.12 47.75 675.48 52.42 C 675.85 59.25 675.52 66.15 675.63 73.00 C 673.67 73.00 671.71 73.00 669.75 73.00 C 669.71 67.32 669.81 61.64 669.74 55.96 C 669.66 53.79 669.50 51.73 667.72 50.22 C 664.23 47.57 658.56 49.32 658.17 53.99 C 657.74 60.30 658.12 66.68 658.00 73.00 C 656.04 73.00 654.08 73.00 652.12 73.00 C 652.12 63.35 652.12 53.71 652.12 44.06 Z" fill="#000000" />
<path d="M 704.50 48.51 C 707.04 52.15 706.96 55.99 707.10 60.25 C 700.72 60.29 694.33 60.15 687.95 60.36 C 688.84 63.08 688.94 65.77 691.68 67.30 C 695.72 69.35 699.46 68.02 702.82 65.43 C 704.05 66.62 705.27 67.79 706.50 68.98 C 703.86 70.98 701.48 72.88 698.04 73.20 C 692.41 73.90 686.61 72.44 684.06 66.91 C 681.77 61.50 681.79 54.02 684.87 48.90 C 688.94 42.11 700.12 42.00 704.50 48.51 Z" fill="#000000" />
<path d="M 2.00 48.62 C 10.13 48.62 18.25 48.62 26.38 48.62 C 26.38 51.36 26.38 54.09 26.37 56.82 C 18.25 56.81 10.13 56.81 2.00 56.82 C 2.00 54.09 2.00 51.36 2.00 48.62 Z" fill="#000000" />
<path d="M 34.44 48.62 C 42.59 48.63 50.73 48.62 58.88 48.63 C 58.88 51.36 58.88 54.09 58.88 56.81 C 50.73 56.82 42.58 56.82 34.43 56.81 C 34.44 54.08 34.44 51.35 34.44 48.62 Z" fill="#000000" />
<path d="M 197.11 49.64 C 194.11 54.70 191.22 59.84 188.02 64.78 C 187.47 60.73 186.74 55.32 188.69 51.56 C 190.86 48.38 193.82 48.90 197.11 49.64 Z" fill="#ffffff" />
<path d="M 290.73 49.57 C 287.79 54.63 284.96 59.80 281.64 64.61 C 281.08 60.60 280.33 55.11 282.41 51.43 C 284.57 48.36 287.50 48.97 290.73 49.57 Z" fill="#ffffff" />
<path d="M 433.16 49.12 C 435.89 48.59 438.71 49.44 439.73 52.22 C 440.94 55.65 440.93 61.37 439.74 64.80 C 438.41 69.05 431.48 69.25 429.74 65.27 C 428.40 62.14 428.50 58.28 428.85 54.95 C 429.22 52.26 430.21 49.73 433.16 49.12 Z" fill="#ffffff" />
<path d="M 493.27 50.72 C 494.43 52.17 494.80 54.36 495.32 56.10 C 490.81 56.13 486.31 56.13 481.81 56.10 C 482.25 54.54 482.56 52.79 483.35 51.36 C 485.44 48.00 490.75 47.72 493.27 50.72 Z" fill="#ffffff" />
<path d="M 515.48 49.59 C 518.19 48.38 521.86 48.85 523.17 51.82 C 524.52 55.31 524.43 59.96 523.44 63.54 C 522.28 67.83 515.54 68.25 513.57 64.48 C 512.33 61.97 512.32 58.73 512.48 55.98 C 512.70 53.64 513.18 50.79 515.48 49.59 Z" fill="#ffffff" />
<path d="M 637.39 50.60 C 638.65 52.03 639.01 54.33 639.54 56.10 C 635.06 56.13 630.57 56.14 626.08 56.10 C 626.55 54.42 626.86 52.34 627.89 50.91 C 630.15 48.02 634.95 47.87 637.39 50.60 Z" fill="#ffffff" />
<path d="M 699.38 50.64 C 700.61 52.06 700.95 54.34 701.45 56.10 C 696.98 56.13 692.50 56.14 688.03 56.10 C 688.49 54.41 688.80 52.30 689.86 50.87 C 692.17 48.01 696.94 47.88 699.38 50.64 Z" fill="#ffffff" />
<path d="M 199.23 52.55 C 199.86 56.54 200.49 61.82 198.52 65.52 C 196.37 68.66 193.44 68.14 190.16 67.47 C 193.10 62.47 195.82 57.26 199.23 52.55 Z" fill="#ffffff" />
<path d="M 292.90 52.27 C 293.37 56.35 294.27 62.26 291.89 65.88 C 289.59 68.72 286.92 68.08 283.76 67.43 C 286.77 62.36 289.64 57.18 292.90 52.27 Z" fill="#ffffff" />
<path d="M 129.94 55.13 C 133.97 55.26 138.29 54.71 142.24 55.56 C 147.29 57.07 147.55 64.74 142.79 66.78 C 138.79 67.99 134.10 67.26 129.94 67.43 C 129.94 63.33 129.94 59.23 129.94 55.13 Z" fill="#ffffff" />
<path d="M 2.00 64.87 C 10.13 64.87 18.25 64.87 26.38 64.88 C 26.38 67.60 26.38 70.33 26.38 73.06 C 18.25 73.06 10.13 73.06 2.00 73.06 C 2.00 70.33 2.00 67.60 2.00 64.87 Z" fill="#000000" />
<path d="M 34.43 64.88 C 42.58 64.87 50.73 64.87 58.88 64.88 C 58.88 67.60 58.88 70.33 58.88 73.06 C 50.73 73.06 42.58 73.06 34.43 73.06 C 34.44 70.33 34.44 67.60 34.43 64.88 Z" fill="#000000" />
</svg>