<svg width="328" height="199" viewBox="0 0 328 199" fill="none" xmlns="http://www.w3.org/2000/svg">
<path fill-rule="evenodd" clip-rule="evenodd" d="M173.804 119.219V97.018H163.448V119.219H158.004V97.018H154V92.6207H158.004V87.9554C158.004 82.3247 161.42 79 166.812 79C167.826 79 168.84 79.1609 169.801 79.4826L168.84 84.2016C168.199 83.9871 167.612 83.9335 167.025 83.9335C164.836 83.9335 163.448 85.3814 163.448 88.0626V92.6207H179.249V119.219H173.804ZM173.431 88.3844V82.2175H179.623V88.3844H173.431ZM192.115 81.6812V101.576L201.136 92.6207H207.809L198.467 101.844L209.41 119.219H203.058L194.57 105.705L192.115 108.172V119.219H186.67V81.6812H192.115ZM236.101 107.099H215.122C215.335 111.818 218.485 115.197 223.182 115.197C227.506 115.197 229.535 112.837 231.083 109.673L235.3 112.194C232.844 117.288 229.001 119.969 223.022 119.969C215.762 119.969 209.677 114.231 209.677 105.92C209.677 97.6077 215.762 91.8699 223.289 91.8699C230.976 91.8699 236.101 97.3932 236.101 105.169V107.099ZM223.182 96.2671C219.232 96.2671 216.136 99.0556 215.121 102.917H230.922C230.495 98.573 226.865 96.2671 223.182 96.2671ZM265.727 101.147V119.219H260.282V102.756C260.282 99.1093 258.147 96.9106 254.41 96.9106C250.62 96.9106 247.471 100.128 247.471 105.169V119.219H242.026V92.6206H247.471V97.0715C249.339 93.9613 252.648 91.8699 256.492 91.8699C261.67 91.8699 265.727 95.141 265.727 101.147Z" fill="#5239BA"/>
<path fill-rule="evenodd" clip-rule="evenodd" d="M92.2093 95.7852C90.3555 95.7831 88.5787 95.0543 87.2702 93.7595C85.9617 92.4646 85.2289 90.7099 85.2332 88.882V86.2127C85.2152 71.2215 97.5092 59.0464 112.711 59C118.192 58.9921 123.547 60.6126 128.08 63.6502C131.213 65.8015 132.017 70.0331 129.886 73.1569C127.755 76.2807 123.478 77.1418 120.276 75.0915C118.045 73.596 115.409 72.7996 112.711 72.8065C105.225 72.8329 99.1741 78.8306 99.1854 86.2127V88.894C99.1886 90.7216 98.4554 92.4757 97.1472 93.7703C95.8389 95.0649 94.0627 95.794 92.2093 95.7972" fill="#75ABF7"/>
<path fill-rule="evenodd" clip-rule="evenodd" d="M115.41 102.264H99.1774V86.2129C99.2644 83.7007 97.9549 81.3418 95.7619 80.0603C93.569 78.7787 90.8418 78.7787 88.6489 80.0603C86.456 81.3418 85.1464 83.7007 85.2334 86.2129V102.276H69.0004C65.1342 102.276 62 105.367 62 109.18C62 112.992 65.1342 116.083 69.0004 116.083H85.2334V132.146C85.1723 134.643 86.488 136.976 88.6709 138.242C90.8538 139.508 93.561 139.508 95.7439 138.242C97.9269 136.976 99.2426 134.643 99.1815 132.146V116.071H115.414C119.281 116.071 122.415 112.98 122.415 109.168C122.415 105.355 119.281 102.264 115.414 102.264" fill="#5239BA"/>
</svg>
