<?xml version="1.0" encoding="UTF-8" standalone="no"?>
<!DOCTYPE svg PUBLIC "-//W3C//DTD SVG 1.1//EN" "http://www.w3.org/Graphics/SVG/1.1/DTD/svg11.dtd">
<svg xmlns="http://www.w3.org/2000/svg" version="1.1" viewBox="0 0 445 250" width="445.0pt" height="250.0pt">
<path d="M 0.00 0.00 L 445.00 0.00 L 445.00 250.00 L 0.00 250.00 L 0.00 0.00 Z" fill="#f6f2f3" />
<path d="M 49.97 56.46 C 71.31 56.50 92.66 56.48 114.00 56.48 C 116.78 56.52 119.67 56.28 122.41 56.75 C 124.89 57.76 126.51 60.28 126.41 62.96 C 126.55 80.77 126.32 98.60 126.52 116.40 C 118.88 121.15 109.62 124.75 100.74 121.16 C 92.43 117.58 84.73 110.91 78.02 104.96 C 72.26 99.79 64.11 97.38 56.48 98.79 C 51.06 99.94 46.98 102.92 42.56 106.03 C 42.30 92.69 42.56 79.33 42.42 65.98 C 42.52 63.12 42.07 60.46 44.20 58.19 C 45.79 56.31 47.74 56.58 49.97 56.46 Z" fill="#19833b" />
<path d="M 343.17 114.17 C 344.30 123.25 343.50 132.57 343.77 141.72 C 347.91 137.56 351.44 132.79 355.57 128.64 C 357.52 128.29 359.58 128.44 361.56 128.38 C 357.71 132.98 353.60 137.32 349.56 141.75 C 354.42 147.60 359.61 153.18 364.27 159.17 C 362.20 159.21 360.13 159.24 358.06 159.26 C 353.61 153.58 348.71 148.20 344.61 142.26 C 344.32 142.57 344.03 142.88 343.75 143.19 C 343.76 148.53 343.73 153.86 343.78 159.20 C 342.14 159.23 340.50 159.25 338.85 159.28 C 338.81 149.85 338.86 140.43 338.84 131.00 C 338.80 125.58 339.09 120.28 338.33 114.89 C 339.94 114.64 341.55 114.40 343.17 114.17 Z" fill="#020101" />
<path d="M 149.24 116.78 C 150.94 116.80 152.65 116.81 154.35 116.83 C 154.34 130.96 154.34 145.09 154.36 159.22 C 152.65 159.23 150.94 159.25 149.23 159.28 C 149.20 145.12 149.16 130.95 149.24 116.78 Z" fill="#020101" />
<path d="M 170.91 116.86 C 173.02 116.75 175.12 116.77 177.25 116.75 C 171.76 123.55 165.91 130.07 160.31 136.78 C 165.94 144.21 171.63 151.65 177.08 159.21 C 175.00 159.23 172.93 159.26 170.86 159.31 C 165.26 151.91 159.97 144.28 154.50 136.78 C 160.02 130.19 165.26 123.34 170.91 116.86 Z" fill="#020101" />
<path d="M 62.04 117.75 C 69.35 118.15 75.42 122.93 81.40 126.70 C 88.56 131.29 95.11 138.85 103.97 139.69 C 112.64 140.66 119.10 136.83 126.49 133.12 C 126.43 145.75 126.45 158.38 126.46 171.00 C 126.40 173.21 126.44 175.21 124.94 177.00 C 123.15 179.17 120.59 179.15 118.01 179.22 C 97.67 179.15 77.33 179.20 57.00 179.19 C 53.74 179.15 50.36 179.44 47.14 178.94 C 44.24 178.26 42.33 175.85 42.48 172.84 C 42.39 156.52 42.49 140.15 42.44 123.82 C 48.29 120.54 55.18 117.39 62.04 117.75 Z" fill="#1a59a0" />
<path d="M 243.25 119.60 C 242.91 122.56 242.68 125.51 242.53 128.48 C 245.13 128.46 247.72 128.45 250.32 128.41 C 249.74 129.71 249.15 131.01 248.55 132.30 C 246.50 132.24 244.46 132.19 242.41 132.14 C 242.46 138.10 242.45 144.06 242.42 150.02 C 242.45 151.62 242.41 153.42 242.91 154.95 C 244.02 157.20 247.51 156.11 249.55 156.14 C 249.67 157.19 249.79 158.24 249.91 159.29 C 246.68 159.92 243.90 160.82 240.73 159.33 C 238.18 158.21 237.68 155.55 237.64 153.03 C 237.59 146.07 237.63 139.10 237.65 132.14 C 236.31 132.17 234.96 132.19 233.62 132.22 C 233.65 130.94 233.68 129.66 233.71 128.38 C 235.00 128.42 236.30 128.46 237.59 128.50 C 237.71 125.86 237.91 123.25 238.18 120.62 C 239.87 120.30 241.56 119.94 243.25 119.60 Z" fill="#020101" />
<path d="M 407.81 119.55 C 407.55 122.51 407.33 125.46 407.16 128.42 C 409.74 128.46 412.31 128.46 414.89 128.49 C 414.38 129.73 413.87 130.97 413.36 132.20 C 411.27 132.21 409.19 132.20 407.11 132.22 C 407.26 139.42 406.87 146.69 407.28 153.87 C 407.74 157.45 411.85 156.16 414.32 156.18 C 414.37 157.22 414.43 158.26 414.48 159.29 C 411.06 159.92 408.14 160.89 404.87 159.04 C 402.58 157.76 402.31 155.44 402.27 153.05 C 402.27 146.10 402.31 139.15 402.29 132.20 C 400.97 132.19 399.65 132.17 398.32 132.16 C 398.29 130.94 398.26 129.72 398.23 128.50 C 399.55 128.49 400.88 128.48 402.21 128.47 C 402.35 125.89 402.48 123.27 402.79 120.70 C 404.46 120.28 406.13 119.93 407.81 119.55 Z" fill="#020101" />
<path d="M 197.12 127.84 C 200.62 128.48 203.59 131.26 203.63 134.95 C 204.00 141.61 203.27 148.28 203.74 154.95 C 204.51 155.64 205.29 156.33 206.06 157.01 C 205.04 158.22 204.03 159.42 203.00 160.62 C 201.59 159.21 200.33 157.75 199.14 156.14 C 195.09 160.26 188.88 161.23 183.92 158.18 C 179.35 154.82 179.69 147.39 183.88 143.85 C 188.18 140.28 193.67 140.17 198.98 140.18 C 198.70 137.74 199.67 133.42 196.79 132.29 C 192.78 130.29 187.51 133.17 183.96 135.14 C 183.21 133.98 182.46 132.83 181.72 131.68 C 186.50 128.89 191.48 127.01 197.12 127.84 Z" fill="#020101" />
<path d="M 218.53 127.60 C 218.88 129.18 219.23 130.76 219.57 132.35 C 222.61 128.90 224.93 127.34 229.77 127.48 C 229.17 129.18 228.55 130.88 227.92 132.57 C 224.14 133.04 220.17 133.99 219.59 138.41 C 219.24 145.33 219.54 152.31 219.46 159.24 C 217.85 159.24 216.24 159.23 214.64 159.22 C 214.64 151.82 214.63 144.41 214.66 137.00 C 214.71 134.24 214.30 131.58 213.69 128.89 C 215.30 128.46 216.91 128.03 218.53 127.60 Z" fill="#020101" />
<path d="M 257.48 127.57 C 260.61 136.27 263.91 145.10 266.15 154.07 C 268.96 145.62 271.69 137.06 274.88 128.75 C 276.33 128.17 278.46 128.56 280.05 128.45 C 276.12 138.76 272.36 149.14 268.46 159.47 C 266.89 159.46 265.31 159.45 263.74 159.44 C 259.97 149.24 256.45 138.94 252.65 128.74 C 254.26 128.36 255.87 127.96 257.48 127.57 Z" fill="#020101" />
<path d="M 305.06 130.96 C 308.64 134.26 308.43 140.08 308.67 144.57 C 302.23 144.64 295.78 144.58 289.33 144.59 C 289.72 148.05 289.55 151.18 292.38 153.65 C 296.61 157.14 302.07 156.04 306.24 153.03 C 306.80 154.11 307.36 155.20 307.92 156.28 C 303.25 159.56 297.67 160.91 292.19 158.85 C 287.31 156.93 284.74 152.02 284.17 147.04 C 283.40 141.48 284.07 135.37 288.26 131.25 C 292.56 126.55 300.62 126.39 305.06 130.96 Z" fill="#020101" />
<path d="M 317.11 128.84 C 318.59 128.41 320.07 127.97 321.55 127.53 C 322.00 129.10 322.43 130.68 322.86 132.26 C 325.78 128.84 328.27 127.39 332.94 127.50 C 332.37 129.21 331.76 130.91 331.16 132.61 C 327.59 133.00 323.70 134.01 322.81 138.00 C 322.40 145.05 322.78 152.19 322.62 159.26 C 321.02 159.25 319.43 159.25 317.83 159.26 C 317.43 149.18 318.52 138.83 317.11 128.84 Z" fill="#020101" />
<path d="M 389.50 131.48 C 392.59 134.81 392.33 140.30 392.61 144.53 C 386.15 144.66 379.69 144.59 373.24 144.58 C 373.71 148.25 373.48 151.81 376.87 154.13 C 381.29 156.96 386.10 155.86 390.18 153.02 C 390.75 154.10 391.32 155.19 391.89 156.28 C 388.23 158.62 384.42 160.24 379.96 159.73 C 374.79 159.47 370.49 155.83 369.00 150.92 C 366.89 144.61 367.22 136.19 372.17 131.22 C 376.64 126.40 385.26 126.40 389.50 131.48 Z" fill="#020101" />
<path d="M 302.11 134.12 C 303.14 136.08 303.33 138.66 303.66 140.83 C 298.88 140.86 294.11 140.87 289.33 140.82 C 289.82 138.12 290.05 135.18 292.12 133.14 C 294.99 130.58 299.81 130.95 302.11 134.12 Z" fill="#f6f2f3" />
<path d="M 385.47 133.50 C 387.09 135.44 387.20 138.41 387.59 140.81 C 382.80 140.88 378.01 140.88 373.23 140.82 C 373.74 138.17 374.07 135.03 376.08 133.05 C 378.83 130.77 382.99 130.90 385.47 133.50 Z" fill="#f6f2f3" />
<path d="M 198.80 143.42 C 198.77 146.17 198.89 148.96 198.55 151.69 C 196.44 156.12 191.93 157.15 187.47 155.59 C 185.96 152.55 185.16 148.50 187.87 145.88 C 190.56 143.17 195.30 143.52 198.80 143.42 Z" fill="#f6f2f3" />
</svg>