<?xml version="1.0" encoding="UTF-8" standalone="no"?>
<!DOCTYPE svg PUBLIC "-//W3C//DTD SVG 1.1//EN" "http://www.w3.org/Graphics/SVG/1.1/DTD/svg11.dtd">
<svg xmlns="http://www.w3.org/2000/svg" version="1.1" viewBox="0 0 721 194" width="721.0pt" height="194.0pt">
<path d="M 0.00 0.00 L 721.00 0.00 L 721.00 194.00 L 0.00 194.00 L 0.00 0.00 Z" fill="#ffffff" />
<path d="M 80.65 24.59 C 85.21 25.90 89.42 26.59 94.17 26.02 C 92.46 28.55 92.58 31.05 92.82 34.01 C 93.27 38.65 92.68 43.18 91.96 47.75 C 92.93 47.95 93.90 48.14 94.88 48.34 L 94.57 48.80 C 85.55 48.50 76.19 49.32 67.33 47.56 C 71.72 39.88 76.10 32.17 80.65 24.59 Z" fill="#bf2d45" />
<path d="M 80.65 24.59 C 89.99 24.44 99.33 24.56 108.67 24.51 C 106.45 28.39 104.21 32.26 101.94 36.10 C 100.56 38.40 99.24 40.73 97.89 43.04 C 96.87 44.80 95.92 46.59 94.88 48.34 C 93.90 48.14 92.93 47.95 91.96 47.75 C 92.68 43.18 93.27 38.65 92.82 34.01 C 92.58 31.05 92.46 28.55 94.17 26.02 C 89.42 26.59 85.21 25.90 80.65 24.59 Z" fill="#c23137" />
<path d="M 108.67 24.51 C 112.92 31.86 117.20 39.18 121.43 46.55 C 114.39 44.49 108.73 39.42 101.94 36.10 C 104.21 32.26 106.45 28.39 108.67 24.51 Z" fill="#a60640" />
<path d="M 101.94 36.10 C 108.73 39.42 114.39 44.49 121.43 46.55 C 121.85 47.28 122.28 48.00 122.71 48.73 C 121.41 50.66 120.31 52.65 119.15 54.66 C 111.54 51.65 104.93 47.11 97.89 43.04 C 99.24 40.73 100.56 38.40 101.94 36.10 Z" fill="#950a3d" />
<path d="M 97.89 43.04 C 104.93 47.11 111.54 51.65 119.15 54.66 C 117.88 56.89 116.57 59.10 115.29 61.32 C 109.81 59.75 105.57 56.30 100.49 53.95 C 99.69 54.15 98.89 54.36 98.10 54.58 C 96.95 52.64 95.76 50.72 94.57 48.80 L 94.88 48.34 C 95.92 46.59 96.87 44.80 97.89 43.04 Z" fill="#850d3a" />
<path d="M 67.33 47.56 C 76.19 49.32 85.55 48.50 94.57 48.80 C 95.76 50.72 96.95 52.64 98.10 54.58 C 101.57 60.60 105.02 66.63 108.48 72.65 L 108.02 72.87 C 98.94 72.90 89.84 72.74 80.76 72.91 C 76.13 64.79 71.07 56.88 66.76 48.58 C 66.95 48.24 67.14 47.90 67.33 47.56 Z" fill="#be3664" />
<path d="M 122.71 48.73 C 123.59 48.67 124.47 48.64 125.36 48.62 C 126.45 56.45 126.65 63.89 125.46 71.73 C 123.58 72.12 121.71 72.56 119.83 72.92 C 116.08 73.04 112.35 72.91 108.61 72.87 L 108.02 72.87 L 108.48 72.65 C 111.08 69.15 113.04 65.15 115.29 61.32 C 116.57 59.10 117.88 56.89 119.15 54.66 C 120.31 52.65 121.41 50.66 122.71 48.73 Z" fill="#be3250" />
<path d="M 38.71 48.71 C 40.05 48.67 41.40 48.66 42.75 48.69 C 44.14 49.22 45.52 49.79 46.89 50.36 C 45.44 57.57 46.01 64.56 45.66 71.82 C 48.09 72.00 50.51 72.20 52.94 72.43 L 52.64 72.89 C 43.29 73.37 33.95 72.33 24.59 72.82 C 29.39 64.84 33.81 56.62 38.71 48.71 Z" fill="#be2d4b" />
<path d="M 42.75 48.69 C 50.72 48.58 58.69 48.72 66.65 48.58 C 63.20 55.22 59.06 61.44 55.45 67.99 C 54.62 69.47 53.80 70.96 52.94 72.43 C 50.51 72.20 48.09 72.00 45.66 71.82 C 46.01 64.56 45.44 57.57 46.89 50.36 C 45.52 49.79 44.14 49.22 42.75 48.69 Z" fill="#c1313a" />
<path d="M 66.65 48.58 L 66.76 48.58 C 71.07 56.88 76.13 64.79 80.76 72.91 C 79.20 75.30 77.85 77.75 76.42 80.22 C 69.27 76.70 61.50 73.22 55.45 67.99 C 59.06 61.44 63.20 55.22 66.65 48.58 Z" fill="#99093e" />
<path d="M 125.36 48.62 C 130.78 48.64 136.20 48.61 141.61 48.66 C 144.22 49.15 146.71 49.86 149.26 50.54 C 147.43 53.67 145.70 56.85 143.92 60.02 C 142.21 62.99 140.59 66.01 138.86 68.97 C 138.10 70.26 137.36 71.56 136.62 72.87 C 131.02 73.04 125.43 72.97 119.83 72.92 C 121.71 72.56 123.58 72.12 125.46 71.73 C 126.65 63.89 126.45 56.45 125.36 48.62 Z" fill="#c33c42" />
<path d="M 141.61 48.66 C 144.64 48.68 147.66 48.66 150.69 48.66 C 154.68 55.62 158.75 62.52 162.72 69.49 C 155.94 68.34 150.28 63.04 143.92 60.02 C 145.70 56.85 147.43 53.67 149.26 50.54 C 146.71 49.86 144.22 49.15 141.61 48.66 Z" fill="#c64122" />
<path d="M 188.72 47.74 C 190.80 49.75 189.99 53.33 190.14 56.00 C 190.09 84.66 190.09 113.34 190.14 141.99 C 190.22 143.71 189.76 145.16 188.75 146.33 C 188.54 144.89 188.36 143.45 188.21 142.01 C 188.21 114.01 188.22 86.00 188.21 58.00 C 188.07 54.50 188.15 51.21 188.72 47.74 Z" fill="#7c7c7c" />
<path d="M 100.49 53.95 C 105.57 56.30 109.81 59.75 115.29 61.32 C 113.04 65.15 111.08 69.15 108.48 72.65 C 105.02 66.63 101.57 60.60 98.10 54.58 C 98.89 54.36 99.69 54.15 100.49 53.95 Z" fill="#751136" />
<path d="M 143.92 60.02 C 150.28 63.04 155.94 68.34 162.72 69.49 C 163.37 70.62 164.04 71.74 164.70 72.87 C 163.09 75.62 161.50 78.37 159.90 81.12 C 152.66 77.40 145.71 73.37 138.86 68.97 C 140.59 66.01 142.21 62.99 143.92 60.02 Z" fill="#b43123" />
<path d="M 591.41 61.43 C 595.40 59.20 600.42 62.38 599.95 66.97 C 599.75 71.48 594.32 73.99 590.70 71.28 C 587.33 68.73 587.80 63.51 591.41 61.43 Z" fill="#636363" />
<path d="M 553.34 62.12 C 553.34 64.91 553.34 67.69 553.35 70.48 C 550.14 70.65 545.93 69.92 543.64 72.67 C 541.78 74.65 542.29 77.58 542.06 80.09 C 545.82 80.09 549.58 80.09 553.34 80.07 C 553.34 82.96 553.34 85.85 553.35 88.74 C 549.61 88.71 545.87 88.72 542.13 88.73 C 542.16 102.77 542.13 116.82 542.14 130.87 C 539.19 130.88 536.23 130.89 533.28 130.91 C 533.27 112.26 533.28 93.61 533.27 74.96 C 533.19 70.73 534.84 66.78 538.42 64.40 C 542.78 61.35 548.34 62.24 553.34 62.12 Z" fill="#636363" />
<path d="M 581.56 62.11 C 581.56 64.90 581.57 67.69 581.58 70.48 C 578.64 70.65 574.50 69.98 572.29 72.27 C 569.91 74.45 570.50 77.18 570.22 80.08 C 574.00 80.09 577.78 80.10 581.55 80.06 C 581.56 82.95 581.57 85.84 581.58 88.74 C 577.82 88.71 574.07 88.72 570.31 88.73 C 570.33 102.79 570.32 116.85 570.32 130.91 C 567.38 130.89 564.44 130.90 561.50 130.91 C 561.48 112.30 561.49 93.63 561.49 75.01 C 561.44 70.80 562.99 66.94 566.52 64.50 C 570.83 61.35 576.53 62.24 581.56 62.11 Z" fill="#636363" />
<path d="M 217.51 63.27 C 226.98 63.02 236.51 63.29 246.00 63.17 C 250.14 63.21 254.58 62.86 258.44 64.58 C 262.35 66.23 265.24 69.81 265.90 74.02 C 266.55 78.27 266.26 82.71 266.34 87.00 C 266.29 91.53 266.55 95.98 263.87 99.88 C 261.16 103.89 256.67 105.49 251.99 105.57 C 243.78 105.66 235.56 105.54 227.35 105.60 C 227.38 114.04 227.37 122.47 227.36 130.90 C 224.04 130.88 220.73 130.89 217.41 130.91 C 217.47 108.42 217.25 85.73 217.51 63.27 Z" fill="#636363" />
<path d="M 500.00 63.18 C 505.62 63.26 512.15 62.54 516.96 66.05 C 521.20 69.19 522.07 74.01 522.17 78.98 C 522.18 90.99 522.17 103.01 522.17 115.02 C 522.10 120.02 521.23 124.82 516.99 128.00 C 511.78 131.92 504.15 130.70 498.00 130.88 C 492.50 130.69 485.20 131.80 480.41 128.65 C 475.74 125.64 474.33 120.33 474.33 115.05 C 474.37 102.71 474.28 90.35 474.38 78.01 C 474.50 72.10 477.41 66.30 483.21 64.21 C 488.41 62.54 494.57 63.38 500.00 63.18 Z" fill="#636363" />
<path d="M 55.45 67.99 C 61.50 73.22 69.27 76.70 76.42 80.22 C 73.17 85.83 69.90 91.43 66.67 97.05 C 61.90 89.04 57.41 80.89 52.64 72.89 L 52.94 72.43 C 53.80 70.96 54.62 69.47 55.45 67.99 Z" fill="#7e0f38" />
<path d="M 138.86 68.97 C 145.71 73.37 152.66 77.40 159.90 81.12 C 158.79 83.04 157.66 84.96 156.55 86.89 C 151.91 83.94 147.11 80.72 142.02 78.63 C 141.49 78.89 140.97 79.16 140.44 79.43 C 139.16 77.25 137.89 75.06 136.62 72.87 C 137.36 71.56 138.10 70.26 138.86 68.97 Z" fill="#a42223" />
<path d="M 24.59 72.82 C 33.95 72.33 43.29 73.37 52.64 72.89 C 57.41 80.89 61.90 89.04 66.67 97.05 L 66.66 97.06 C 61.79 96.92 56.93 96.85 52.06 97.07 C 47.61 97.14 43.12 96.93 38.69 97.12 C 33.96 89.04 29.29 80.92 24.59 72.82 Z" fill="#be3664" />
<path d="M 80.76 72.91 C 89.84 72.74 98.94 72.90 108.02 72.87 L 108.61 72.87 C 113.16 80.79 117.83 88.65 122.33 96.61 L 122.60 97.10 C 117.84 105.07 113.28 113.16 108.59 121.16 L 107.91 121.16 C 98.84 121.13 89.77 121.15 80.70 121.17 L 80.60 121.00 L 80.40 120.68 C 75.87 112.77 71.24 104.93 66.66 97.06 L 66.67 97.05 C 69.90 91.43 73.17 85.83 76.42 80.22 C 77.85 77.75 79.20 75.30 80.76 72.91 Z" fill="#ffffff" />
<path d="M 108.61 72.87 C 112.35 72.91 116.08 73.04 119.83 72.92 C 125.43 72.97 131.02 73.04 136.62 72.87 C 137.89 75.06 139.16 77.25 140.44 79.43 C 143.89 85.27 147.25 91.15 150.64 97.01 L 150.81 97.30 L 150.36 97.26 C 141.03 96.37 131.68 97.22 122.33 96.61 C 117.83 88.65 113.16 80.79 108.61 72.87 Z" fill="#ca5039" />
<path d="M 227.46 73.26 C 233.29 72.91 239.16 73.26 245.00 73.10 C 248.31 73.21 252.13 72.71 254.64 75.36 C 256.67 77.32 256.27 80.43 256.42 83.00 C 256.30 85.98 256.74 89.71 255.37 92.42 C 253.78 95.12 250.82 95.37 247.99 95.47 C 241.11 95.49 234.23 95.45 227.35 95.44 C 227.48 88.05 227.18 80.64 227.46 73.26 Z" fill="#ffffff" />
<path d="M 490.18 73.35 C 494.09 72.93 498.09 73.15 502.02 73.11 C 504.70 73.20 507.97 72.99 510.10 74.92 C 512.36 76.93 512.20 80.24 512.30 83.00 C 512.27 90.33 512.27 97.67 512.28 105.00 C 512.24 108.62 512.53 112.38 511.98 115.97 C 511.53 118.64 509.42 120.36 506.81 120.75 C 502.59 121.35 498.23 121.12 493.98 121.13 C 491.18 120.97 488.16 121.19 486.17 118.84 C 484.21 116.60 484.37 113.81 484.28 111.02 C 484.31 102.01 484.33 93.01 484.28 84.00 C 484.33 81.75 484.20 79.18 484.99 77.04 C 485.86 74.86 487.91 73.63 490.18 73.35 Z" fill="#ffffff" />
<path d="M 142.02 78.63 C 147.11 80.72 151.91 83.94 156.55 86.89 C 154.60 90.28 152.64 93.66 150.64 97.01 C 147.25 91.15 143.89 85.27 140.44 79.43 C 140.97 79.16 141.49 78.89 142.02 78.63 Z" fill="#961624" />
<path d="M 290.00 80.08 C 295.58 80.26 301.27 79.74 306.81 80.38 C 312.36 81.46 315.42 86.64 315.49 92.02 C 315.59 101.02 315.58 110.05 315.50 119.05 C 315.55 124.50 312.05 129.64 306.53 130.64 C 302.41 131.15 298.15 130.80 294.00 130.87 C 290.09 130.83 286.07 131.12 282.18 130.64 C 277.10 129.81 273.31 125.12 273.05 120.04 C 272.62 112.05 273.03 104.01 272.85 96.00 C 272.86 91.02 272.97 86.50 276.98 82.97 C 280.77 79.36 285.19 80.21 290.00 80.08 Z" fill="#626262" />
<path d="M 322.28 80.03 C 325.17 80.07 328.06 80.10 330.95 80.14 C 334.18 93.33 337.30 106.56 340.75 119.69 C 343.06 109.18 345.81 98.77 348.22 88.28 C 348.84 85.96 349.44 82.97 351.18 81.21 C 353.22 79.08 356.81 79.06 358.93 81.07 C 360.55 82.59 361.19 85.19 361.77 87.27 C 364.35 98.06 366.81 108.89 369.58 119.63 C 372.69 106.43 376.01 93.28 379.24 80.11 C 382.11 80.09 384.97 80.08 387.84 80.06 C 384.35 94.73 380.67 109.37 377.14 124.03 C 376.22 127.85 374.40 131.57 369.93 131.68 C 365.77 131.81 363.64 128.72 362.77 125.03 C 360.11 114.14 357.47 103.24 354.95 92.32 C 352.59 102.54 350.20 112.77 347.89 123.01 C 347.36 125.12 346.81 127.67 345.38 129.37 C 343.16 132.09 338.51 132.52 335.93 130.08 C 333.98 128.29 333.39 125.75 332.72 123.29 C 329.27 108.86 325.72 94.46 322.28 80.03 Z" fill="#626262" />
<path d="M 416.00 80.09 C 421.42 80.29 428.52 78.99 432.66 83.34 C 436.80 87.53 435.71 94.73 435.87 100.10 C 424.62 104.67 413.37 109.23 402.13 113.80 C 402.51 116.09 402.29 119.22 404.28 120.76 C 406.03 122.24 408.84 122.11 411.00 122.21 C 419.26 122.16 427.52 122.19 435.78 122.16 C 435.78 125.07 435.78 127.99 435.78 130.90 C 426.52 130.86 417.25 130.87 407.99 130.90 C 404.51 130.86 401.31 130.78 398.38 128.64 C 395.07 126.36 393.54 122.79 393.46 118.84 C 393.33 110.23 393.43 101.61 393.41 93.00 C 393.48 88.77 394.55 84.70 398.28 82.27 C 403.07 79.07 410.46 80.34 416.00 80.09 Z" fill="#626262" />
<path d="M 465.07 80.12 C 465.06 82.96 465.06 85.80 465.07 88.64 C 462.22 88.81 458.37 88.33 455.89 89.91 C 453.52 91.55 453.68 94.42 453.54 96.99 C 453.55 108.29 453.57 119.60 453.55 130.91 C 450.61 130.89 447.66 130.89 444.72 130.90 C 444.72 118.61 444.71 106.28 444.71 93.99 C 444.79 89.49 445.51 85.17 449.37 82.36 C 453.60 79.28 460.11 80.20 465.07 80.12 Z" fill="#636363" />
<path d="M 589.84 80.10 C 592.77 80.09 595.71 80.08 598.64 80.06 C 598.65 97.01 598.65 113.96 598.64 130.91 C 595.71 130.89 592.77 130.88 589.84 130.88 C 589.84 113.95 589.84 97.02 589.84 80.10 Z" fill="#636363" />
<path d="M 620.95 80.10 C 628.43 80.02 635.92 80.16 643.41 80.06 C 643.41 82.95 643.41 85.84 643.41 88.73 C 636.60 88.84 629.72 88.46 622.92 88.88 C 620.40 89.09 618.64 90.59 618.44 93.17 C 618.02 98.42 618.42 103.73 618.27 109.00 C 618.32 112.04 617.99 115.32 618.71 118.28 C 619.74 120.95 622.22 122.02 624.94 122.11 C 631.16 122.33 637.40 122.11 643.62 122.14 C 643.62 125.07 643.62 127.99 643.61 130.92 C 636.73 130.83 629.84 130.94 622.96 130.88 C 619.18 130.82 615.40 130.17 612.63 127.38 C 609.94 124.49 609.44 120.84 609.41 117.05 C 609.42 109.35 609.45 101.66 609.40 93.96 C 609.43 90.18 609.64 86.27 612.32 83.32 C 614.60 80.82 617.68 80.14 620.95 80.10 Z" fill="#636363" />
<path d="M 678.00 80.07 C 682.81 80.14 687.91 79.62 691.51 83.49 C 695.47 87.72 694.48 94.80 694.56 100.13 C 683.32 104.66 672.10 109.22 660.88 113.79 C 661.26 115.83 661.03 118.85 662.58 120.41 C 664.34 122.30 667.63 122.11 670.00 122.21 C 678.16 122.15 686.32 122.22 694.47 122.14 C 694.47 125.07 694.47 127.99 694.47 130.92 C 684.30 130.77 674.12 131.01 663.96 130.82 C 659.59 130.77 655.47 128.46 653.46 124.52 C 651.87 121.47 652.19 117.36 652.14 114.00 C 652.28 106.36 651.99 98.70 652.26 91.06 C 652.51 85.89 655.69 81.87 660.74 80.65 C 666.33 79.57 672.32 80.31 678.00 80.07 Z" fill="#626262" />
<path d="M 286.92 88.86 C 291.60 88.55 296.42 88.64 301.11 88.79 C 303.88 88.84 306.02 90.69 306.47 93.41 C 306.99 97.55 306.62 101.83 306.70 106.00 C 306.64 109.85 306.97 113.79 306.49 117.61 C 306.06 120.37 303.82 122.08 301.06 122.11 C 296.38 122.25 291.58 122.34 286.90 122.03 C 284.18 121.84 282.16 119.76 281.90 117.07 C 281.54 113.41 281.79 109.67 281.75 106.00 C 281.81 101.99 281.50 97.90 281.92 93.91 C 282.19 91.24 284.20 89.06 286.92 88.86 Z" fill="#ffffff" />
<path d="M 406.99 89.07 C 410.59 88.47 414.36 88.71 418.00 88.68 C 420.22 88.77 423.13 88.63 424.97 90.04 C 426.52 91.05 426.61 93.38 427.17 95.03 C 418.88 98.42 410.55 101.76 402.27 105.20 C 402.32 101.27 401.97 97.24 402.47 93.35 C 402.83 91.05 404.81 89.53 406.99 89.07 Z" fill="#fefefe" />
<path d="M 666.02 89.01 C 669.63 88.50 673.36 88.69 677.00 88.68 C 679.24 88.78 681.96 88.67 683.79 90.15 C 685.22 91.17 685.32 93.46 685.88 95.03 C 677.56 98.39 669.28 101.86 660.92 105.14 C 660.95 101.18 660.59 97.05 661.22 93.12 C 661.71 90.75 663.75 89.42 666.02 89.01 Z" fill="#fefefe" />
<path d="M 122.33 96.61 C 131.68 97.22 141.03 96.37 150.36 97.26 C 148.95 99.42 147.73 101.62 146.49 103.87 C 140.22 103.09 133.96 103.78 127.72 103.35 C 125.39 102.62 123.88 98.98 122.60 97.10 L 122.33 96.61 Z" fill="#c63d2d" />
<path d="M 38.69 97.12 C 43.12 96.93 47.61 97.14 52.06 97.07 C 51.28 97.51 50.52 97.96 49.75 98.42 C 50.08 106.09 50.33 113.59 49.16 121.21 C 45.79 121.07 42.42 121.12 39.05 121.15 C 38.90 113.37 39.85 105.98 37.87 98.32 C 38.13 97.91 38.41 97.52 38.69 97.12 Z" fill="#c4494a" />
<path d="M 52.06 97.07 C 56.93 96.85 61.79 96.92 66.66 97.06 C 71.24 104.93 75.87 112.77 80.40 120.68 C 72.87 118.08 66.99 113.14 59.98 109.58 C 57.84 112.05 56.11 114.81 54.61 117.71 C 53.96 118.92 53.34 120.16 52.72 121.39 C 51.53 121.32 50.35 121.26 49.16 121.21 C 50.33 113.59 50.08 106.09 49.75 98.42 C 50.52 97.96 51.28 97.51 52.06 97.07 Z" fill="#c44d3c" />
<path d="M 150.36 97.26 L 150.81 97.30 C 155.45 105.23 160.03 113.21 164.69 121.13 C 162.44 125.07 160.17 129.01 157.87 132.92 C 153.07 128.96 147.71 125.38 141.96 122.97 C 140.77 122.38 139.24 123.22 138.01 123.42 C 137.57 122.77 137.12 122.12 136.65 121.47 L 136.94 121.02 C 140.35 115.45 143.27 109.57 146.49 103.87 C 147.73 101.62 148.95 99.42 150.36 97.26 Z" fill="#d57d3e" />
<path d="M 122.60 97.10 C 123.88 98.98 125.39 102.62 127.72 103.35 C 133.96 103.78 140.22 103.09 146.49 103.87 C 143.27 109.57 140.35 115.45 136.94 121.02 C 127.50 121.35 118.03 121.10 108.59 121.16 C 113.28 113.16 117.84 105.07 122.60 97.10 Z" fill="#cc5734" />
<path d="M 37.87 98.32 C 39.85 105.98 38.90 113.37 39.05 121.15 C 34.23 121.17 29.41 121.18 24.59 121.15 C 29.07 113.58 33.37 105.89 37.87 98.32 Z" fill="#c14656" />
<path d="M 59.98 109.58 C 66.99 113.14 72.87 118.08 80.40 120.68 L 80.60 121.00 C 78.92 124.04 77.34 127.12 75.56 130.10 C 68.40 126.22 61.28 122.41 54.61 117.71 C 56.11 114.81 57.84 112.05 59.98 109.58 Z" fill="#ac3c31" />
<path d="M 54.61 117.71 C 61.28 122.41 68.40 126.22 75.56 130.10 C 74.58 131.75 73.59 133.40 72.63 135.05 C 67.03 131.37 61.72 127.61 55.26 125.56 C 54.42 124.16 53.56 122.78 52.72 121.39 C 53.34 120.16 53.96 118.92 54.61 117.71 Z" fill="#9d292a" />
<path d="M 24.59 121.15 C 29.41 121.18 34.23 121.17 39.05 121.15 C 42.42 121.12 45.79 121.07 49.16 121.21 C 50.35 121.26 51.53 121.32 52.72 121.39 C 53.56 122.78 54.42 124.16 55.26 125.56 C 59.05 132.12 62.81 138.69 66.55 145.27 C 57.25 145.37 47.95 145.27 38.65 145.34 C 33.92 137.30 29.29 129.20 24.59 121.15 Z" fill="#cf633d" />
<path d="M 80.60 121.00 L 80.70 121.17 C 85.06 129.27 89.99 137.02 94.23 145.19 C 85.05 145.22 75.86 145.36 66.68 145.51 C 68.65 142.02 70.61 138.52 72.63 135.05 C 73.59 133.40 74.58 131.75 75.56 130.10 C 77.34 127.12 78.92 124.04 80.60 121.00 Z" fill="#ce5b37" />
<path d="M 80.70 121.17 C 89.77 121.15 98.84 121.13 107.91 121.16 L 108.41 121.71 C 105.95 125.49 103.86 129.44 101.62 133.35 C 100.56 135.10 99.56 136.88 98.55 138.67 C 97.33 140.84 96.13 143.03 94.92 145.21 L 94.23 145.19 C 89.99 137.02 85.06 129.27 80.70 121.17 Z" fill="#c94d2b" />
<path d="M 107.91 121.16 L 108.59 121.16 C 118.03 121.10 127.50 121.35 136.94 121.02 L 136.65 121.47 C 131.99 129.16 127.29 136.97 123.77 145.26 L 122.81 145.22 C 121.44 143.25 120.19 141.21 118.97 139.14 C 117.71 137.01 116.48 134.87 115.27 132.71 C 113.16 129.00 111.15 125.00 108.41 121.71 L 107.91 121.16 Z" fill="#d98731" />
<path d="M 108.41 121.71 C 111.15 125.00 113.16 129.00 115.27 132.71 C 110.73 133.02 106.16 133.00 101.62 133.35 C 103.86 129.44 105.95 125.49 108.41 121.71 Z" fill="#d4791e" />
<path d="M 136.65 121.47 C 137.12 122.12 137.57 122.77 138.01 123.42 C 138.96 124.97 139.87 126.54 140.76 128.12 C 138.52 133.77 138.12 137.52 139.28 143.53 C 140.57 144.12 141.84 144.72 143.14 145.26 C 136.69 145.26 130.22 145.43 123.77 145.26 C 127.29 136.97 131.99 129.16 136.65 121.47 Z" fill="#e1a55b" />
<path d="M 141.96 122.97 C 147.71 125.38 153.07 128.96 157.87 132.92 C 155.47 137.04 153.11 141.19 150.69 145.30 C 147.40 139.56 144.00 133.89 140.76 128.12 C 139.87 126.54 138.96 124.97 138.01 123.42 C 139.24 123.22 140.77 122.38 141.96 122.97 Z" fill="#cf6637" />
<path d="M 72.63 135.05 C 70.61 138.52 68.65 142.02 66.68 145.51 L 66.55 145.27 C 62.81 138.69 59.05 132.12 55.26 125.56 C 61.72 127.61 67.03 131.37 72.63 135.05 Z" fill="#911a24" />
<path d="M 140.76 128.12 C 144.00 133.89 147.40 139.56 150.69 145.30 C 148.18 145.32 145.66 145.33 143.14 145.26 C 141.84 144.72 140.57 144.12 139.28 143.53 C 138.12 137.52 138.52 133.77 140.76 128.12 Z" fill="#e5b269" />
<path d="M 101.62 133.35 C 106.16 133.00 110.73 133.02 115.27 132.71 C 116.48 134.87 117.71 137.01 118.97 139.14 C 112.13 139.36 105.37 139.17 98.55 138.67 C 99.56 136.88 100.56 135.10 101.62 133.35 Z" fill="#d1702a" />
<path d="M 98.55 138.67 C 105.37 139.17 112.13 139.36 118.97 139.14 C 120.19 141.21 121.44 143.25 122.81 145.22 C 113.52 145.09 104.22 145.31 94.92 145.21 C 96.13 143.03 97.33 140.84 98.55 138.67 Z" fill="#cf643a" />
<path d="M 66.68 145.51 C 75.86 145.36 85.05 145.22 94.23 145.19 L 94.92 145.21 C 104.22 145.31 113.52 145.09 122.81 145.22 L 122.37 145.81 C 116.16 145.57 110.00 145.43 103.80 146.05 C 108.74 148.23 113.42 150.64 117.65 154.03 C 116.58 155.85 115.51 157.67 114.46 159.50 C 109.75 155.68 104.44 152.55 98.92 150.07 L 98.66 150.09 L 97.54 150.19 C 95.94 147.52 94.49 146.48 91.68 145.22 C 94.52 149.84 92.80 153.92 92.71 159.00 C 92.55 161.92 93.09 164.61 93.59 167.46 C 95.13 168.12 96.67 168.81 98.23 169.43 C 92.37 169.44 86.51 169.47 80.65 169.52 C 75.96 161.54 71.29 153.54 66.68 145.51 Z" fill="#e2a65c" />
<path d="M 91.68 145.22 C 94.49 146.48 95.94 147.52 97.54 150.19 C 101.23 156.63 105.05 162.99 108.69 169.45 C 105.21 169.46 101.71 169.53 98.23 169.43 C 96.67 168.81 95.13 168.12 93.59 167.46 C 93.09 164.61 92.55 161.92 92.71 159.00 C 92.80 153.92 94.52 149.84 91.68 145.22 Z" fill="#e6b46c" />
<path d="M 103.80 146.05 C 110.00 145.43 116.16 145.57 122.37 145.81 C 120.69 148.48 119.26 151.31 117.65 154.03 C 113.42 150.64 108.74 148.23 103.80 146.05 Z" fill="#e6b46d" />
<path d="M 98.66 150.09 L 98.92 150.07 C 104.44 152.55 109.75 155.68 114.46 159.50 C 112.57 162.83 110.63 166.14 108.69 169.45 C 105.05 162.99 101.23 156.63 97.54 150.19 L 98.66 150.09 Z" fill="#dd994b" />
</svg>