<?xml version="1.0" encoding="UTF-8" standalone="no"?>
<!DOCTYPE svg PUBLIC "-//W3C//DTD SVG 1.1//EN" "http://www.w3.org/Graphics/SVG/1.1/DTD/svg11.dtd">
<svg xmlns="http://www.w3.org/2000/svg" version="1.1" viewBox="0 0 1915 546" width="1915.0pt" height="546.0pt">
<path d="M 0.00 0.00 L 435.88 0.00 C 429.40 2.51 423.28 6.00 417.02 9.02 C 371.02 31.58 325.05 54.37 279.05 76.90 C 268.59 82.27 258.03 87.44 247.38 92.42 C 239.92 96.04 236.12 103.80 236.47 111.93 C 236.62 139.06 236.36 166.19 236.54 193.32 C 216.61 203.93 196.20 213.67 176.18 224.11 C 171.28 226.57 166.32 228.88 161.59 231.67 C 150.58 237.29 139.38 242.58 128.53 248.51 C 124.26 251.10 119.42 253.77 119.37 259.45 C 119.36 272.30 119.26 285.16 119.29 298.01 C 119.41 307.16 119.19 316.30 119.36 325.45 L 119.33 325.96 C 105.72 324.94 92.05 326.15 78.98 330.13 C 60.90 335.44 44.14 345.47 31.05 359.05 C 16.82 373.60 6.92 392.16 2.54 412.01 C 1.30 417.99 0.54 424.08 0.00 430.16 L 0.00 0.00 Z" fill="#ffffff" />
<path d="M 435.88 0.00 L 443.16 0.00 C 448.07 1.84 452.54 3.96 455.55 8.46 C 457.71 11.89 459.92 16.28 459.59 20.44 C 458.73 24.33 459.37 28.08 459.40 31.99 C 459.25 47.31 459.37 62.63 459.32 77.95 C 456.97 78.94 454.60 79.88 452.21 80.78 C 451.25 79.62 450.28 78.45 449.32 77.28 C 449.07 78.14 448.83 79.00 448.59 79.86 C 447.83 79.01 447.07 78.16 446.31 77.31 C 446.09 78.17 445.88 79.04 445.66 79.90 C 445.24 79.00 444.83 78.10 444.42 77.20 C 444.15 77.93 443.88 78.66 443.61 79.39 C 440.65 78.54 437.91 79.63 435.00 78.77 C 433.79 78.39 432.70 79.32 431.57 79.76 C 431.44 79.04 431.30 78.32 431.17 77.61 C 428.14 78.13 425.33 78.79 422.28 77.81 C 419.06 76.61 416.94 79.58 413.84 78.72 C 413.62 79.48 413.45 80.25 413.24 81.01 C 412.24 80.58 411.24 80.14 410.24 79.71 C 410.31 78.47 410.38 77.22 410.45 75.98 C 406.92 76.14 403.99 76.70 400.83 78.34 C 400.24 78.08 399.65 77.82 399.07 77.56 C 398.49 78.28 397.91 78.99 397.33 79.71 C 397.10 78.91 396.87 78.10 396.64 77.30 C 395.21 78.03 393.77 78.93 392.23 79.39 C 389.56 78.95 387.24 77.79 384.47 77.69 C 381.86 77.48 379.71 78.39 377.26 79.13 C 377.75 78.41 378.24 77.69 378.72 76.96 C 377.30 77.16 375.88 77.36 374.46 77.55 C 374.20 78.20 373.94 78.84 373.68 79.49 C 373.18 79.15 372.68 78.81 372.18 78.47 C 371.57 79.18 370.97 79.89 370.36 80.60 C 369.82 79.67 369.27 78.74 368.73 77.81 C 366.94 77.39 365.14 76.98 363.35 76.57 C 362.02 77.72 360.70 78.88 359.37 80.04 C 359.38 78.92 359.38 77.80 359.37 76.68 C 357.94 78.08 356.53 79.51 355.14 80.96 C 355.26 79.60 355.38 78.24 355.49 76.89 C 353.85 77.42 352.27 78.01 350.69 78.70 C 350.35 77.79 350.01 76.88 349.67 75.97 C 349.32 76.84 348.97 77.71 348.62 78.57 C 347.85 78.18 347.08 77.79 346.32 77.39 C 346.16 78.04 346.00 78.69 345.85 79.34 C 343.29 78.08 341.14 78.18 338.39 78.49 C 335.89 78.85 333.96 77.80 331.70 76.95 C 331.58 77.58 331.45 78.21 331.32 78.84 C 328.05 78.30 325.67 78.39 322.47 79.34 C 321.36 77.76 320.18 76.30 318.66 75.10 C 318.22 76.05 317.80 77.01 317.38 77.98 C 315.13 77.98 313.39 77.48 311.37 76.59 C 311.08 77.23 310.79 77.88 310.50 78.52 C 308.45 78.42 306.51 78.23 304.52 78.84 C 303.10 79.14 301.19 80.02 299.81 79.39 C 298.94 78.63 298.44 77.30 297.80 76.32 C 297.09 77.06 296.37 77.80 295.65 78.54 C 292.22 78.27 289.41 77.50 286.46 79.91 C 286.55 78.88 286.63 77.86 286.71 76.83 C 283.87 77.20 283.54 77.38 282.02 79.82 C 281.15 78.70 280.16 77.79 279.05 76.90 C 325.05 54.37 371.02 31.58 417.02 9.02 C 423.28 6.00 429.40 2.51 435.88 0.00 Z" fill="#9daffe" />
<path d="M 443.16 0.00 L 1915.00 0.00 L 1915.00 265.34 C 1904.16 265.28 1893.30 265.25 1882.46 265.34 C 1882.34 287.01 1882.50 308.70 1882.38 330.37 C 1866.36 313.07 1838.77 309.02 1818.22 320.38 C 1805.80 327.07 1796.52 338.35 1791.43 351.43 C 1786.46 364.06 1785.50 378.46 1787.01 391.85 C 1788.86 408.58 1796.94 425.24 1810.30 435.76 C 1825.83 448.45 1848.98 450.80 1866.92 442.01 C 1873.43 438.96 1878.88 434.92 1883.66 429.55 C 1883.77 434.66 1883.59 439.71 1884.21 444.79 C 1894.47 444.70 1904.74 444.83 1915.00 444.71 L 1915.00 546.00 L 479.13 546.00 C 484.50 545.44 489.89 545.52 495.26 544.90 C 524.94 541.95 553.85 531.30 578.45 514.45 C 603.53 497.40 624.10 473.80 637.69 446.69 C 650.96 420.44 657.40 391.07 656.86 361.69 C 656.32 342.52 652.90 323.65 646.51 305.57 C 642.94 295.51 638.41 285.78 633.15 276.50 C 625.50 263.10 616.11 250.67 605.24 239.71 C 593.88 227.82 580.34 217.74 566.14 209.48 C 544.24 196.88 519.23 188.97 494.07 186.65 C 486.29 186.09 478.52 185.57 470.71 185.77 C 469.28 162.19 467.62 138.36 465.88 114.79 C 464.19 86.31 461.97 58.21 460.15 29.90 C 459.74 26.74 459.50 23.62 459.59 20.44 C 459.92 16.28 457.71 11.89 455.55 8.46 C 452.54 3.96 448.07 1.84 443.16 0.00 Z" fill="#ffffff" />
<path d="M 459.59 20.44 C 459.50 23.62 459.74 26.74 460.15 29.90 C 461.97 58.21 464.19 86.31 465.88 114.79 C 467.62 138.36 469.28 162.19 470.71 185.77 C 473.44 222.23 475.57 258.60 478.40 295.14 C 479.54 318.04 481.50 340.91 483.06 363.78 C 484.16 385.57 486.07 407.33 487.49 429.10 C 488.11 438.60 488.45 448.18 489.50 457.64 C 490.67 480.13 492.68 502.63 493.90 525.13 C 494.38 531.72 494.96 538.30 495.26 544.90 C 489.89 545.52 484.50 545.44 479.13 546.00 L 459.32 546.00 L 459.32 545.05 C 459.42 512.03 459.38 479.02 459.43 446.00 C 459.49 442.16 459.40 438.33 459.21 434.49 C 459.51 422.22 459.56 409.74 459.20 397.48 C 459.61 383.00 459.29 368.48 459.41 354.00 C 459.33 344.82 459.61 335.63 459.24 326.46 C 459.58 309.31 459.34 292.13 459.30 274.98 C 458.52 261.48 459.36 247.91 458.79 234.41 C 458.70 226.25 459.54 218.16 459.30 210.00 C 459.16 200.04 459.60 189.94 459.12 180.02 L 457.74 178.83 C 457.71 178.51 457.69 178.20 457.66 177.89 C 460.69 175.23 458.89 169.02 459.31 165.28 C 459.34 147.65 459.36 130.02 459.32 112.39 C 459.33 100.91 459.35 89.43 459.32 77.95 C 459.37 62.63 459.25 47.31 459.40 31.99 C 459.37 28.08 458.73 24.33 459.59 20.44 Z" fill="#193eff" />
<path d="M 318.66 75.10 C 320.18 76.30 321.36 77.76 322.47 79.34 C 325.67 78.39 328.05 78.30 331.32 78.84 C 331.45 78.21 331.58 77.58 331.70 76.95 C 333.96 77.80 335.89 78.85 338.39 78.49 C 341.14 78.18 343.29 78.08 345.85 79.34 C 346.00 78.69 346.16 78.04 346.32 77.39 C 347.08 77.79 347.85 78.18 348.62 78.57 C 348.97 77.71 349.32 76.84 349.67 75.97 C 350.01 76.88 350.35 77.79 350.69 78.70 C 352.27 78.01 353.85 77.42 355.49 76.89 C 355.38 78.24 355.26 79.60 355.14 80.96 C 356.53 79.51 357.94 78.08 359.37 76.68 C 359.38 77.80 359.38 78.92 359.37 80.04 C 360.70 78.88 362.02 77.72 363.35 76.57 C 365.14 76.98 366.94 77.39 368.73 77.81 C 369.27 78.74 369.82 79.67 370.36 80.60 C 370.97 79.89 371.57 79.18 372.18 78.47 C 372.68 78.81 373.18 79.15 373.68 79.49 C 373.94 78.84 374.20 78.20 374.46 77.55 C 375.88 77.36 377.30 77.16 378.72 76.96 C 378.24 77.69 377.75 78.41 377.26 79.13 C 379.71 78.39 381.86 77.48 384.47 77.69 C 387.24 77.79 389.56 78.95 392.23 79.39 C 393.77 78.93 395.21 78.03 396.64 77.30 C 396.87 78.10 397.10 78.91 397.33 79.71 C 397.91 78.99 398.49 78.28 399.07 77.56 C 399.65 77.82 400.24 78.08 400.83 78.34 C 403.99 76.70 406.92 76.14 410.45 75.98 C 410.38 77.22 410.31 78.47 410.24 79.71 C 411.24 80.14 412.24 80.58 413.24 81.01 C 413.45 80.25 413.62 79.48 413.84 78.72 C 416.94 79.58 419.06 76.61 422.28 77.81 C 425.33 78.79 428.14 78.13 431.17 77.61 C 431.30 78.32 431.44 79.04 431.57 79.76 C 432.70 79.32 433.79 78.39 435.00 78.77 C 437.91 79.63 440.65 78.54 443.61 79.39 C 443.88 78.66 444.15 77.93 444.42 77.20 C 444.83 78.10 445.24 79.00 445.66 79.90 C 445.88 79.04 446.09 78.17 446.31 77.31 C 447.07 78.16 447.83 79.01 448.59 79.86 C 448.83 79.00 449.07 78.14 449.32 77.28 C 450.28 78.45 451.25 79.62 452.21 80.78 C 454.60 79.88 456.97 78.94 459.32 77.95 C 459.35 89.43 459.33 100.91 459.32 112.39 C 457.91 112.18 456.44 111.89 455.01 111.85 C 452.89 112.10 451.02 114.54 448.89 114.55 C 448.10 113.73 447.39 112.82 446.67 111.94 C 446.38 113.62 446.07 115.29 445.75 116.97 C 445.12 115.92 444.49 114.88 443.86 113.83 C 441.97 114.50 440.50 114.11 438.59 113.84 C 436.99 114.14 435.47 115.05 433.99 115.73 C 432.52 113.74 431.05 112.30 429.02 110.89 C 428.82 112.22 428.63 113.54 428.44 114.86 C 427.33 115.47 426.21 116.07 425.10 116.68 C 425.03 115.24 424.97 113.79 424.90 112.34 C 424.24 112.82 423.57 113.29 422.90 113.77 C 421.76 113.30 420.61 112.83 419.47 112.36 C 419.39 113.31 419.44 114.33 419.17 115.24 C 418.24 115.64 417.29 116.00 416.33 116.32 C 416.86 114.92 417.41 113.53 417.96 112.14 C 415.44 113.01 412.96 113.93 410.48 114.92 C 410.56 113.98 410.63 113.04 410.71 112.11 C 408.46 112.45 407.20 113.54 405.57 115.06 C 404.86 113.88 404.14 112.70 403.43 111.52 C 399.43 112.62 396.51 113.50 392.69 111.17 C 389.99 112.55 388.99 114.74 387.70 117.33 C 387.68 116.47 387.66 115.62 387.63 114.77 C 386.90 114.49 386.17 114.22 385.44 113.94 C 385.62 112.73 385.81 111.52 386.00 110.31 C 384.22 111.98 383.21 112.68 380.76 112.97 C 380.59 112.35 380.42 111.73 380.25 111.11 C 379.69 111.08 379.13 111.05 378.57 111.02 C 378.58 111.68 378.59 112.34 378.60 113.01 C 376.95 113.86 376.18 115.16 375.24 116.70 C 375.09 115.94 374.94 115.19 374.79 114.43 C 374.15 114.87 373.50 115.31 372.86 115.76 C 372.57 114.19 372.27 112.62 371.98 111.05 C 370.77 111.67 369.56 112.28 368.34 112.90 C 368.78 113.75 369.21 114.60 369.64 115.46 C 367.91 114.37 366.27 113.21 364.68 111.92 C 364.57 113.10 364.44 114.28 364.32 115.47 C 360.94 114.43 357.47 113.89 354.15 112.66 C 352.00 111.76 350.60 112.79 348.65 113.56 C 346.88 113.73 345.10 113.93 343.33 113.89 C 340.67 113.70 337.85 112.31 335.21 112.63 C 332.43 113.32 329.79 114.76 327.16 115.89 C 327.27 114.61 327.38 113.33 327.49 112.06 C 327.16 111.78 326.82 111.51 326.49 111.23 C 325.58 112.81 324.67 114.40 323.76 115.98 C 322.98 115.33 322.21 114.68 321.43 114.03 C 321.86 113.22 322.30 112.42 322.73 111.61 C 321.03 111.46 319.35 111.39 317.65 111.48 C 317.32 112.92 316.98 114.37 316.64 115.81 C 316.28 115.08 315.92 114.35 315.56 113.62 C 314.37 113.52 313.19 113.42 312.01 113.33 C 311.50 114.02 311.00 114.77 310.39 115.36 C 309.20 115.71 307.72 115.04 306.52 114.88 C 306.12 113.58 305.72 112.28 305.32 110.98 C 305.15 112.57 304.98 114.15 304.82 115.74 C 303.60 114.44 302.38 113.13 301.17 111.83 C 299.52 112.80 297.87 113.76 296.22 114.72 C 296.33 113.80 296.43 112.87 296.54 111.95 C 292.32 113.69 287.99 113.64 283.58 114.39 C 281.99 114.56 280.56 114.93 279.11 114.00 C 278.37 112.99 278.16 111.50 277.76 110.33 C 276.26 111.87 274.73 113.38 273.19 114.88 C 271.71 113.53 270.17 112.31 268.54 111.15 C 267.52 112.21 266.49 113.27 265.47 114.33 C 261.41 113.75 257.34 114.16 253.27 113.66 C 252.28 112.52 251.29 111.39 250.26 110.30 C 247.69 112.14 248.87 114.23 248.91 116.94 C 247.80 114.79 246.59 113.12 244.89 111.41 C 243.26 112.69 241.59 113.88 239.84 114.99 C 238.72 113.97 237.59 112.95 236.47 111.93 C 236.12 103.80 239.92 96.04 247.38 92.42 C 258.03 87.44 268.59 82.27 279.05 76.90 C 280.16 77.79 281.15 78.70 282.02 79.82 C 283.54 77.38 283.87 77.20 286.71 76.83 C 286.63 77.86 286.55 78.88 286.46 79.91 C 289.41 77.50 292.22 78.27 295.65 78.54 C 296.37 77.80 297.09 77.06 297.80 76.32 C 298.44 77.30 298.94 78.63 299.81 79.39 C 301.19 80.02 303.10 79.14 304.52 78.84 C 306.51 78.23 308.45 78.42 310.50 78.52 C 310.79 77.88 311.08 77.23 311.37 76.59 C 313.39 77.48 315.13 77.98 317.38 77.98 C 317.80 77.01 318.22 76.05 318.66 75.10 Z" fill="#97aafd" />
<path d="M 250.26 110.30 C 251.29 111.39 252.28 112.52 253.27 113.66 C 257.34 114.16 261.41 113.75 265.47 114.33 C 266.49 113.27 267.52 112.21 268.54 111.15 C 270.17 112.31 271.71 113.53 273.19 114.88 C 274.73 113.38 276.26 111.87 277.76 110.33 C 278.16 111.50 278.37 112.99 279.11 114.00 C 280.56 114.93 281.99 114.56 283.58 114.39 C 287.99 113.64 292.32 113.69 296.54 111.95 C 296.43 112.87 296.33 113.80 296.22 114.72 C 297.87 113.76 299.52 112.80 301.17 111.83 C 302.38 113.13 303.60 114.44 304.82 115.74 C 304.98 114.15 305.15 112.57 305.32 110.98 C 305.72 112.28 306.12 113.58 306.52 114.88 C 307.72 115.04 309.20 115.71 310.39 115.36 C 311.00 114.77 311.50 114.02 312.01 113.33 C 313.19 113.42 314.37 113.52 315.56 113.62 C 315.92 114.35 316.28 115.08 316.64 115.81 C 316.98 114.37 317.32 112.92 317.65 111.48 C 319.35 111.39 321.03 111.46 322.73 111.61 C 322.30 112.42 321.86 113.22 321.43 114.03 C 322.21 114.68 322.98 115.33 323.76 115.98 C 324.67 114.40 325.58 112.81 326.49 111.23 C 326.82 111.51 327.16 111.78 327.49 112.06 C 327.38 113.33 327.27 114.61 327.16 115.89 C 329.79 114.76 332.43 113.32 335.21 112.63 C 337.85 112.31 340.67 113.70 343.33 113.89 C 345.10 113.93 346.88 113.73 348.65 113.56 C 350.60 112.79 352.00 111.76 354.15 112.66 C 357.47 113.89 360.94 114.43 364.32 115.47 C 364.44 114.28 364.57 113.10 364.68 111.92 C 366.27 113.21 367.91 114.37 369.64 115.46 C 369.21 114.60 368.78 113.75 368.34 112.90 C 369.56 112.28 370.77 111.67 371.98 111.05 C 372.27 112.62 372.57 114.19 372.86 115.76 C 373.50 115.31 374.15 114.87 374.79 114.43 C 374.94 115.19 375.09 115.94 375.24 116.70 C 376.18 115.16 376.95 113.86 378.60 113.01 C 378.59 112.34 378.58 111.68 378.57 111.02 C 379.13 111.05 379.69 111.08 380.25 111.11 C 380.42 111.73 380.59 112.35 380.76 112.97 C 383.21 112.68 384.22 111.98 386.00 110.31 C 385.81 111.52 385.62 112.73 385.44 113.94 C 386.17 114.22 386.90 114.49 387.63 114.77 C 387.66 115.62 387.68 116.47 387.70 117.33 C 388.99 114.74 389.99 112.55 392.69 111.17 C 396.51 113.50 399.43 112.62 403.43 111.52 C 404.14 112.70 404.86 113.88 405.57 115.06 C 407.20 113.54 408.46 112.45 410.71 112.11 C 410.63 113.04 410.56 113.98 410.48 114.92 C 412.96 113.93 415.44 113.01 417.96 112.14 C 417.41 113.53 416.86 114.92 416.33 116.32 C 417.29 116.00 418.24 115.64 419.17 115.24 C 419.44 114.33 419.39 113.31 419.47 112.36 C 420.61 112.83 421.76 113.30 422.90 113.77 C 423.57 113.29 424.24 112.82 424.90 112.34 C 424.97 113.79 425.03 115.24 425.10 116.68 C 426.21 116.07 427.33 115.47 428.44 114.86 C 428.63 113.54 428.82 112.22 429.02 110.89 C 431.05 112.30 432.52 113.74 433.99 115.73 C 435.47 115.05 436.99 114.14 438.59 113.84 C 440.50 114.11 441.97 114.50 443.86 113.83 C 444.49 114.88 445.12 115.92 445.75 116.97 C 446.07 115.29 446.38 113.62 446.67 111.94 C 447.39 112.82 448.10 113.73 448.89 114.55 C 451.02 114.54 452.89 112.10 455.01 111.85 C 456.44 111.89 457.91 112.18 459.32 112.39 C 459.36 130.02 459.34 147.65 459.31 165.28 C 457.60 165.14 455.90 164.92 454.22 164.64 C 453.50 163.49 453.45 161.91 453.15 160.60 C 449.85 160.87 446.82 161.20 443.63 162.18 C 440.66 161.83 437.79 160.37 434.72 160.09 C 434.59 160.69 434.45 161.29 434.31 161.90 C 432.28 161.29 430.30 160.80 428.17 160.76 C 427.70 162.11 427.22 163.46 426.73 164.81 C 425.49 164.87 424.24 164.94 422.99 165.01 C 423.96 164.38 424.93 163.75 425.90 163.12 C 423.86 162.93 421.82 162.74 419.78 162.56 C 419.43 161.76 419.08 160.97 418.73 160.17 C 417.96 161.48 417.20 162.79 416.45 164.10 C 415.27 163.29 413.83 161.15 412.24 161.35 C 410.67 161.17 410.68 163.06 409.97 164.05 C 406.43 164.29 404.61 162.39 402.09 160.33 C 401.62 161.56 401.14 162.78 400.66 164.00 C 400.32 163.15 399.98 162.30 399.63 161.45 C 397.61 162.13 395.62 162.88 393.65 163.71 C 392.96 163.06 392.26 162.41 391.57 161.76 C 390.02 162.13 388.35 162.68 386.75 162.64 C 383.89 162.33 381.76 160.71 378.76 160.97 C 376.09 161.32 373.54 160.53 370.92 160.58 C 370.25 161.19 369.65 161.90 369.04 162.58 C 365.91 162.14 362.47 161.34 359.33 161.76 C 357.05 162.69 355.04 164.03 352.60 164.58 C 351.11 163.08 349.65 161.56 348.28 159.96 L 348.88 161.50 C 347.31 161.11 345.76 160.65 344.18 160.26 C 343.70 163.63 343.10 166.91 342.32 170.23 C 342.14 165.09 342.87 159.88 339.41 155.60 C 335.84 151.30 329.28 151.41 324.29 152.38 C 312.29 154.87 300.36 160.98 289.47 166.49 C 276.07 173.42 262.58 180.18 249.17 187.11 C 244.96 189.17 240.74 191.22 236.54 193.32 C 236.36 166.19 236.62 139.06 236.47 111.93 C 237.59 112.95 238.72 113.97 239.84 114.99 C 241.59 113.88 243.26 112.69 244.89 111.41 C 246.59 113.12 247.80 114.79 248.91 116.94 C 248.87 114.23 247.69 112.14 250.26 110.30 Z" fill="#90a4fc" />
<path d="M 324.29 152.38 C 329.28 151.41 335.84 151.30 339.41 155.60 C 342.87 159.88 342.14 165.09 342.32 170.23 L 342.33 170.60 C 342.41 176.59 342.35 182.59 342.36 188.58 C 336.72 189.29 331.30 188.18 325.65 188.45 C 321.49 188.72 317.59 187.66 313.45 188.29 C 307.84 189.06 302.54 187.69 297.03 189.08 C 294.01 189.90 291.21 188.03 288.16 188.02 C 281.42 188.45 274.34 189.09 267.65 187.90 C 262.10 188.59 256.59 188.75 251.01 188.44 C 250.37 188.10 249.75 187.66 249.17 187.11 C 262.58 180.18 276.07 173.42 289.47 166.49 C 300.36 160.98 312.29 154.87 324.29 152.38 Z" fill="#dae1fc" />
<path d="M 344.18 160.26 C 345.76 160.65 347.31 161.11 348.88 161.50 L 348.28 159.96 C 349.65 161.56 351.11 163.08 352.60 164.58 C 355.04 164.03 357.05 162.69 359.33 161.76 C 362.47 161.34 365.91 162.14 369.04 162.58 C 369.65 161.90 370.25 161.19 370.92 160.58 C 373.54 160.53 376.09 161.32 378.76 160.97 C 381.76 160.71 383.89 162.33 386.75 162.64 C 388.35 162.68 390.02 162.13 391.57 161.76 C 392.26 162.41 392.96 163.06 393.65 163.71 C 395.62 162.88 397.61 162.13 399.63 161.45 C 399.98 162.30 400.32 163.15 400.66 164.00 C 401.14 162.78 401.62 161.56 402.09 160.33 C 404.61 162.39 406.43 164.29 409.97 164.05 C 410.68 163.06 410.67 161.17 412.24 161.35 C 413.83 161.15 415.27 163.29 416.45 164.10 C 417.20 162.79 417.96 161.48 418.73 160.17 C 419.08 160.97 419.43 161.76 419.78 162.56 C 421.82 162.74 423.86 162.93 425.90 163.12 C 424.93 163.75 423.96 164.38 422.99 165.01 C 424.24 164.94 425.49 164.87 426.73 164.81 C 427.22 163.46 427.70 162.11 428.17 160.76 C 430.30 160.80 432.28 161.29 434.31 161.90 C 434.45 161.29 434.59 160.69 434.72 160.09 C 437.79 160.37 440.66 161.83 443.63 162.18 C 446.82 161.20 449.85 160.87 453.15 160.60 C 453.45 161.91 453.50 163.49 454.22 164.64 C 455.90 164.92 457.60 165.14 459.31 165.28 C 458.89 169.02 460.69 175.23 457.66 177.89 C 457.69 178.20 457.71 178.51 457.74 178.83 L 459.12 180.02 C 459.60 189.94 459.16 200.04 459.30 210.00 C 459.54 218.16 458.70 226.25 458.79 234.41 L 458.17 235.60 C 457.86 230.39 457.98 225.19 457.82 219.98 C 454.21 219.25 450.58 219.94 446.96 219.21 C 445.81 220.57 444.68 221.94 443.56 223.31 C 443.66 221.98 443.77 220.66 443.87 219.34 C 442.00 219.87 440.12 220.40 438.24 220.93 C 437.60 220.44 436.95 219.95 436.31 219.45 C 435.98 220.30 435.66 221.14 435.33 221.99 C 435.11 220.70 434.89 219.42 434.67 218.14 C 433.39 219.25 432.11 220.36 430.82 221.45 C 428.80 220.86 426.99 220.37 424.87 220.85 C 421.44 221.67 417.77 219.73 414.50 218.73 C 414.07 219.00 413.64 219.26 413.21 219.53 C 413.03 218.76 412.84 218.00 412.66 217.23 C 412.18 218.10 411.70 218.96 411.23 219.83 C 410.63 219.47 410.04 219.11 409.45 218.75 C 406.00 219.58 403.44 219.69 399.95 219.10 C 397.31 218.62 395.56 219.91 393.57 221.40 C 392.96 220.80 392.34 220.20 391.72 219.59 C 389.21 219.66 386.70 219.80 384.20 220.11 C 383.63 219.49 383.05 218.87 382.48 218.26 C 381.92 219.52 381.36 220.79 380.79 222.05 C 378.32 220.81 377.42 219.54 376.14 217.15 C 376.04 219.11 375.91 221.07 375.78 223.03 C 375.40 222.16 375.02 221.29 374.64 220.43 C 374.21 220.81 373.77 221.20 373.34 221.58 C 373.05 220.79 372.76 219.99 372.47 219.20 C 371.36 219.64 370.25 220.08 369.14 220.53 C 367.88 219.81 366.62 219.10 365.36 218.38 C 365.08 219.21 364.80 220.04 364.51 220.87 C 363.34 219.64 362.18 218.39 361.02 217.14 C 360.30 218.07 359.87 219.83 358.35 219.40 C 356.48 218.95 355.14 218.97 353.24 219.28 C 352.08 218.58 350.94 217.88 349.79 217.18 C 350.76 218.75 351.75 220.32 352.75 221.88 C 351.09 221.55 349.43 221.23 347.77 220.91 C 346.31 206.60 344.89 192.30 343.53 177.99 C 343.32 175.49 342.80 173.05 342.33 170.60 L 342.32 170.23 C 343.10 166.91 343.70 163.63 344.18 160.26 Z" fill="#899efb" />
<path d="M 342.33 170.60 C 342.80 173.05 343.32 175.49 343.53 177.99 C 344.89 192.30 346.31 206.60 347.77 220.91 C 349.55 239.66 351.51 258.38 353.40 277.12 C 355.15 297.18 357.59 317.16 359.33 337.22 C 361.82 360.84 364.02 384.47 366.49 408.08 C 368.04 424.14 369.54 440.18 371.30 456.21 C 373.14 478.11 375.85 499.92 377.75 521.81 C 378.60 529.59 379.43 537.37 380.15 545.16 C 372.11 545.46 364.05 545.22 356.00 545.29 C 351.51 545.39 346.71 544.86 342.33 545.75 C 342.32 537.82 342.40 529.89 342.35 521.96 C 342.31 513.71 342.41 505.47 342.36 497.22 C 342.33 489.20 342.39 481.19 342.36 473.18 C 342.31 462.41 342.41 451.65 342.36 440.88 C 342.32 430.64 342.41 420.40 342.36 410.17 C 342.32 402.61 342.40 395.06 342.34 387.50 C 342.31 373.87 342.41 360.25 342.35 346.62 C 342.32 338.86 342.38 331.10 342.34 323.34 C 342.33 314.47 342.39 305.60 342.34 296.73 C 342.34 284.11 342.38 271.49 342.35 258.87 C 342.34 249.20 342.39 239.54 342.36 229.87 C 342.33 216.11 342.39 202.35 342.36 188.58 C 342.35 182.59 342.41 176.59 342.33 170.60 Z" fill="#193eff" />
<path d="M 470.71 185.77 C 478.52 185.57 486.29 186.09 494.07 186.65 C 519.23 188.97 544.24 196.88 566.14 209.48 C 564.69 210.21 563.24 210.94 561.78 211.67 C 561.66 212.38 561.53 213.08 561.41 213.79 C 560.18 213.30 559.26 212.08 557.97 212.93 C 556.21 213.68 556.76 215.16 556.43 216.73 C 555.51 216.57 554.59 216.41 553.67 216.25 C 553.56 216.73 553.44 217.21 553.32 217.69 C 552.52 217.64 551.71 217.58 550.90 217.53 C 551.06 218.12 551.21 218.72 551.37 219.31 C 552.39 219.98 553.40 220.65 554.41 221.33 C 552.30 222.63 550.10 222.93 547.68 223.20 C 547.61 223.96 547.53 224.71 547.46 225.47 C 545.44 226.48 542.64 227.38 541.26 229.25 C 539.82 231.60 539.81 234.86 538.24 237.21 C 537.22 237.47 536.17 237.64 535.13 237.84 C 533.50 239.69 532.25 241.54 529.77 242.29 C 525.52 243.45 524.69 249.46 522.75 252.77 C 521.07 254.54 518.64 255.68 516.59 256.98 C 517.04 258.63 517.27 260.12 517.25 261.84 C 516.09 260.88 514.96 259.91 513.83 258.92 C 513.60 259.67 513.38 260.42 513.15 261.16 C 512.11 261.68 511.06 262.19 510.02 262.71 C 511.19 263.74 512.38 264.75 513.56 265.77 C 510.30 267.10 507.69 267.55 504.19 267.53 C 504.24 269.57 505.30 273.10 503.83 274.79 C 501.82 276.09 499.10 276.53 496.83 277.36 C 498.21 277.74 499.60 278.11 500.99 278.49 C 500.63 278.74 500.27 279.00 499.92 279.26 C 496.24 279.22 495.24 279.75 492.68 282.30 C 493.90 282.36 495.12 282.43 496.34 282.50 C 494.64 285.00 492.12 286.12 489.16 285.93 C 488.84 286.65 488.53 287.37 488.22 288.09 C 486.62 288.82 485.03 289.55 483.43 290.27 C 483.98 290.97 484.52 291.66 485.07 292.36 C 482.87 293.82 481.00 294.65 478.40 295.14 C 475.57 258.60 473.44 222.23 470.71 185.77 Z" fill="#a8b5ff" />
<path d="M 249.17 187.11 C 249.75 187.66 250.37 188.10 251.01 188.44 C 256.59 188.75 262.10 188.59 267.65 187.90 C 274.34 189.09 281.42 188.45 288.16 188.02 C 291.21 188.03 294.01 189.90 297.03 189.08 C 302.54 187.69 307.84 189.06 313.45 188.29 C 317.59 187.66 321.49 188.72 325.65 188.45 C 331.30 188.18 336.72 189.29 342.36 188.58 C 342.39 202.35 342.33 216.11 342.36 229.87 C 334.96 229.92 327.55 229.77 320.16 229.50 C 317.62 229.48 315.11 230.82 312.64 230.42 C 309.72 229.97 306.95 229.44 304.00 229.99 C 301.90 230.41 300.09 229.73 298.04 229.42 C 296.26 229.31 294.44 230.13 292.66 230.24 C 290.40 230.22 288.14 229.47 285.89 229.52 C 284.31 229.75 282.76 230.30 281.13 230.42 C 279.24 230.33 277.30 229.53 275.42 229.68 C 271.37 230.57 267.16 230.03 263.01 230.12 C 256.11 229.37 249.29 229.79 242.38 230.08 C 236.35 229.72 230.30 229.72 224.29 229.09 C 224.78 229.77 225.27 230.46 225.76 231.15 C 218.33 228.32 210.70 228.72 203.02 230.10 C 200.08 230.85 197.69 229.60 194.79 229.60 C 191.90 229.65 189.00 230.26 186.10 230.22 C 184.12 230.19 182.20 229.46 180.23 229.40 C 178.96 229.84 177.80 230.65 176.63 231.31 C 175.30 230.41 174.52 228.90 172.76 229.40 C 169.02 230.10 165.36 231.09 161.59 231.67 C 166.32 228.88 171.28 226.57 176.18 224.11 C 196.20 213.67 216.61 203.93 236.54 193.32 C 240.74 191.22 244.96 189.17 249.17 187.11 Z" fill="#cdd6fc" />
<path d="M 566.14 209.48 C 580.34 217.74 593.88 227.82 605.24 239.71 C 604.19 239.58 603.13 239.48 602.07 239.40 C 602.27 240.72 602.51 242.04 602.74 243.35 C 602.23 243.45 601.72 243.56 601.21 243.66 C 601.40 244.49 601.58 245.32 601.77 246.15 C 598.66 246.80 596.07 248.39 593.31 249.88 C 593.29 250.77 593.27 251.67 593.25 252.56 C 592.32 253.95 591.59 255.30 591.05 256.89 C 589.74 256.78 588.44 256.67 587.14 256.55 C 586.79 256.85 586.45 257.15 586.10 257.45 C 587.07 257.85 588.05 258.24 589.02 258.64 C 586.98 259.64 584.77 260.53 582.95 261.90 C 580.88 263.88 579.82 267.10 578.20 269.46 C 576.91 270.60 575.13 271.24 573.62 272.03 C 573.57 272.86 573.52 273.68 573.47 274.50 C 571.54 275.59 569.61 276.66 567.70 277.76 C 567.01 280.49 565.03 281.90 563.08 283.74 C 563.60 284.48 564.12 285.22 564.64 285.97 C 563.14 286.29 561.46 286.44 560.08 287.12 C 558.82 289.05 558.87 291.76 557.82 293.80 C 555.37 295.26 551.91 295.48 549.14 296.32 C 549.93 296.71 550.72 297.11 551.52 297.51 C 551.55 298.40 551.58 299.29 551.62 300.17 C 550.41 299.62 549.20 299.06 547.98 298.50 C 547.09 299.00 546.19 299.50 545.29 300.01 C 545.74 301.29 546.20 302.57 546.65 303.85 C 544.82 304.85 542.68 305.75 541.18 307.22 C 540.50 308.10 540.71 309.57 540.52 310.63 C 539.64 310.10 538.76 309.56 537.88 309.03 C 537.13 310.13 536.37 311.23 535.62 312.34 C 534.77 312.34 533.92 312.35 533.07 312.35 C 534.00 313.16 534.93 313.96 535.85 314.76 C 533.34 316.99 530.15 317.67 527.42 319.46 C 526.32 321.03 525.57 322.88 524.72 324.59 C 524.28 324.23 523.84 323.87 523.40 323.50 C 522.19 326.80 521.03 329.92 518.57 332.54 C 516.93 334.15 515.04 335.53 513.27 337.00 C 512.59 336.47 511.92 335.95 511.24 335.43 C 510.79 336.87 510.35 338.30 509.91 339.74 C 509.03 340.49 508.14 341.24 507.25 341.98 C 507.83 343.10 508.42 344.23 509.00 345.35 C 507.15 346.46 505.27 347.47 503.25 348.25 C 502.22 349.93 501.39 352.42 499.75 353.56 C 498.21 353.59 496.65 353.34 495.12 353.17 C 496.01 354.32 496.88 355.47 497.76 356.63 C 495.63 357.20 492.36 356.86 491.32 359.15 C 489.31 362.30 487.60 365.52 484.95 368.21 C 484.30 366.74 483.65 365.29 483.06 363.78 C 481.50 340.91 479.54 318.04 478.40 295.14 C 481.00 294.65 482.87 293.82 485.07 292.36 C 484.52 291.66 483.98 290.97 483.43 290.27 C 485.03 289.55 486.62 288.82 488.22 288.09 C 488.53 287.37 488.84 286.65 489.16 285.93 C 492.12 286.12 494.64 285.00 496.34 282.50 C 495.12 282.43 493.90 282.36 492.68 282.30 C 495.24 279.75 496.24 279.22 499.92 279.26 C 500.27 279.00 500.63 278.74 500.99 278.49 C 499.60 278.11 498.21 277.74 496.83 277.36 C 499.10 276.53 501.82 276.09 503.83 274.79 C 505.30 273.10 504.24 269.57 504.19 267.53 C 507.69 267.55 510.30 267.10 513.56 265.77 C 512.38 264.75 511.19 263.74 510.02 262.71 C 511.06 262.19 512.11 261.68 513.15 261.16 C 513.38 260.42 513.60 259.67 513.83 258.92 C 514.96 259.91 516.09 260.88 517.25 261.84 C 517.27 260.12 517.04 258.63 516.59 256.98 C 518.64 255.68 521.07 254.54 522.75 252.77 C 524.69 249.46 525.52 243.45 529.77 242.29 C 532.25 241.54 533.50 239.69 535.13 237.84 C 536.17 237.64 537.22 237.47 538.24 237.21 C 539.81 234.86 539.82 231.60 541.26 229.25 C 542.64 227.38 545.44 226.48 547.46 225.47 C 547.53 224.71 547.61 223.96 547.68 223.20 C 550.10 222.93 552.30 222.63 554.41 221.33 C 553.40 220.65 552.39 219.98 551.37 219.31 C 551.21 218.72 551.06 218.12 550.90 217.53 C 551.71 217.58 552.52 217.64 553.32 217.69 C 553.44 217.21 553.56 216.73 553.67 216.25 C 554.59 216.41 555.51 216.57 556.43 216.73 C 556.76 215.16 556.21 213.68 557.97 212.93 C 559.26 212.08 560.18 213.30 561.41 213.79 C 561.53 213.08 561.66 212.38 561.78 211.67 C 563.24 210.94 564.69 210.21 566.14 209.48 Z" fill="#9faeff" />
<path d="M 349.79 217.18 C 350.94 217.88 352.08 218.58 353.24 219.28 C 355.14 218.97 356.48 218.95 358.35 219.40 C 359.87 219.83 360.30 218.07 361.02 217.14 C 362.18 218.39 363.34 219.64 364.51 220.87 C 364.80 220.04 365.08 219.21 365.36 218.38 C 366.62 219.10 367.88 219.81 369.14 220.53 C 370.25 220.08 371.36 219.64 372.47 219.20 C 372.76 219.99 373.05 220.79 373.34 221.58 C 373.77 221.20 374.21 220.81 374.64 220.43 C 375.02 221.29 375.40 222.16 375.78 223.03 C 375.91 221.07 376.04 219.11 376.14 217.15 C 377.42 219.54 378.32 220.81 380.79 222.05 C 381.36 220.79 381.92 219.52 382.48 218.26 C 383.05 218.87 383.63 219.49 384.20 220.11 C 386.70 219.80 389.21 219.66 391.72 219.59 C 392.34 220.20 392.96 220.80 393.57 221.40 C 395.56 219.91 397.31 218.62 399.95 219.10 C 403.44 219.69 406.00 219.58 409.45 218.75 C 410.04 219.11 410.63 219.47 411.23 219.83 C 411.70 218.96 412.18 218.10 412.66 217.23 C 412.84 218.00 413.03 218.76 413.21 219.53 C 413.64 219.26 414.07 219.00 414.50 218.73 C 417.77 219.73 421.44 221.67 424.87 220.85 C 426.99 220.37 428.80 220.86 430.82 221.45 C 432.11 220.36 433.39 219.25 434.67 218.14 C 434.89 219.42 435.11 220.70 435.33 221.99 C 435.66 221.14 435.98 220.30 436.31 219.45 C 436.95 219.95 437.60 220.44 438.24 220.93 C 440.12 220.40 442.00 219.87 443.87 219.34 C 443.77 220.66 443.66 221.98 443.56 223.31 C 444.68 221.94 445.81 220.57 446.96 219.21 C 450.58 219.94 454.21 219.25 457.82 219.98 C 457.98 225.19 457.86 230.39 458.17 235.60 C 457.81 249.71 458.22 263.83 457.86 277.94 C 456.21 277.36 454.53 276.69 452.82 276.37 C 450.53 276.49 448.34 277.86 446.03 277.92 C 443.34 277.72 440.66 276.72 438.02 276.13 C 433.68 278.17 427.60 278.78 423.60 275.69 C 416.15 277.46 409.04 276.85 401.53 276.67 C 400.79 276.84 400.04 277.03 399.30 277.23 C 397.98 276.61 396.65 275.86 395.24 275.46 C 393.51 275.88 391.93 277.07 390.40 277.96 C 390.54 277.04 390.68 276.12 390.81 275.21 C 389.62 276.04 388.43 276.87 387.24 277.69 C 383.59 276.04 380.99 276.29 377.21 277.30 C 372.98 276.93 368.52 276.12 364.64 277.85 C 364.53 277.20 364.42 276.56 364.32 275.92 C 360.47 277.44 357.54 278.35 353.40 277.12 C 351.51 258.38 349.55 239.66 347.77 220.91 C 349.43 221.23 351.09 221.55 352.75 221.88 C 351.75 220.32 350.76 218.75 349.79 217.18 Z" fill="#8197fa" />
<path d="M 172.76 229.40 C 174.52 228.90 175.30 230.41 176.63 231.31 C 177.80 230.65 178.96 229.84 180.23 229.40 C 182.20 229.46 184.12 230.19 186.10 230.22 C 189.00 230.26 191.90 229.65 194.79 229.60 C 197.69 229.60 200.08 230.85 203.02 230.10 C 210.70 228.72 218.33 228.32 225.76 231.15 C 225.27 230.46 224.78 229.77 224.29 229.09 C 230.30 229.72 236.35 229.72 242.38 230.08 C 249.29 229.79 256.11 229.37 263.01 230.12 C 267.16 230.03 271.37 230.57 275.42 229.68 C 277.30 229.53 279.24 230.33 281.13 230.42 C 282.76 230.30 284.31 229.75 285.89 229.52 C 288.14 229.47 290.40 230.22 292.66 230.24 C 294.44 230.13 296.26 229.31 298.04 229.42 C 300.09 229.73 301.90 230.41 304.00 229.99 C 306.95 229.44 309.72 229.97 312.64 230.42 C 315.11 230.82 317.62 229.48 320.16 229.50 C 327.55 229.77 334.96 229.92 342.36 229.87 C 342.39 239.54 342.34 249.20 342.35 258.87 C 338.87 258.36 335.60 258.06 332.16 259.06 C 328.74 260.00 325.72 258.76 322.24 259.17 C 319.04 259.58 316.12 258.83 312.98 258.42 C 310.32 258.09 308.26 259.10 305.73 259.58 C 303.15 259.87 300.10 258.06 297.55 258.86 C 295.86 259.30 294.24 259.54 292.49 259.64 C 292.21 258.98 291.93 258.32 291.64 257.67 C 287.97 258.88 284.01 258.69 280.09 259.20 C 277.68 259.46 275.63 258.69 273.25 258.50 C 270.77 258.30 268.54 259.98 266.12 259.26 C 261.96 258.56 257.89 258.12 253.74 259.19 C 247.75 258.66 241.48 257.89 235.68 259.91 C 232.12 259.70 228.70 258.17 225.04 258.26 C 220.97 257.95 217.33 259.56 213.35 259.69 C 207.99 259.56 202.70 259.26 197.49 257.95 C 193.06 261.77 187.16 257.47 182.23 259.61 C 181.32 259.97 180.42 260.39 179.52 260.80 C 179.48 260.31 179.44 259.82 179.40 259.33 C 173.61 258.96 168.65 257.51 163.09 260.30 C 161.48 259.52 160.26 258.33 158.39 258.67 C 154.78 259.08 151.36 259.84 147.70 259.25 C 145.34 258.86 143.07 259.50 140.73 259.40 C 139.50 258.95 138.35 258.26 137.13 257.81 C 135.45 258.21 133.85 259.15 132.15 259.43 C 130.34 259.16 128.49 258.28 126.66 258.31 C 124.21 258.51 121.79 259.10 119.37 259.45 C 119.42 253.77 124.26 251.10 128.53 248.51 C 139.38 242.58 150.58 237.29 161.59 231.67 C 165.36 231.09 169.02 230.10 172.76 229.40 Z" fill="#c1ccfb" />
<path d="M 458.17 235.60 L 458.79 234.41 C 459.36 247.91 458.52 261.48 459.30 274.98 C 459.34 292.13 459.58 309.31 459.24 326.46 C 457.37 330.43 458.04 334.18 457.95 338.42 C 453.65 338.68 448.29 337.63 444.48 339.78 C 444.46 339.21 444.44 338.65 444.42 338.09 C 442.43 338.71 440.45 339.33 438.46 339.95 C 438.57 339.09 438.68 338.24 438.79 337.38 C 436.41 338.18 433.81 339.59 431.28 338.76 C 430.81 337.89 430.46 336.99 430.08 336.08 C 428.69 338.12 428.23 338.81 425.69 339.22 C 425.57 338.48 425.45 337.74 425.33 337.00 C 423.83 337.74 422.32 338.64 420.72 339.10 C 418.20 339.25 415.50 338.18 413.08 337.56 C 412.21 338.13 411.35 338.69 410.49 339.26 C 408.45 338.80 406.36 338.13 404.27 338.00 C 402.16 338.18 400.10 339.07 397.99 339.24 C 396.87 339.33 396.65 338.00 396.10 337.28 C 394.96 337.92 393.82 338.57 392.67 339.21 C 392.60 338.50 392.53 337.79 392.45 337.07 C 390.39 338.03 388.44 339.09 386.54 340.36 C 385.26 339.88 383.98 339.40 382.71 338.92 C 382.56 339.69 382.41 340.45 382.26 341.21 C 381.63 340.99 380.99 340.76 380.36 340.53 C 378.74 340.19 378.35 337.57 376.79 337.32 C 375.18 337.23 373.46 338.08 371.94 338.55 C 371.00 338.19 370.07 337.83 369.13 337.47 C 368.23 338.09 367.34 338.72 366.44 339.34 C 363.85 338.99 361.69 338.34 359.33 337.22 C 357.59 317.16 355.15 297.18 353.40 277.12 C 357.54 278.35 360.47 277.44 364.32 275.92 C 364.42 276.56 364.53 277.20 364.64 277.85 C 368.52 276.12 372.98 276.93 377.21 277.30 C 380.99 276.29 383.59 276.04 387.24 277.69 C 388.43 276.87 389.62 276.04 390.81 275.21 C 390.68 276.12 390.54 277.04 390.40 277.96 C 391.93 277.07 393.51 275.88 395.24 275.46 C 396.65 275.86 397.98 276.61 399.30 277.23 C 400.04 277.03 400.79 276.84 401.53 276.67 C 409.04 276.85 416.15 277.46 423.60 275.69 C 427.60 278.78 433.68 278.17 438.02 276.13 C 440.66 276.72 443.34 277.72 446.03 277.92 C 448.34 277.86 450.53 276.49 452.82 276.37 C 454.53 276.69 456.21 277.36 457.86 277.94 C 458.22 263.83 457.81 249.71 458.17 235.60 Z" fill="#7890f9" />
<path d="M 602.07 239.40 C 603.13 239.48 604.19 239.58 605.24 239.71 C 616.11 250.67 625.50 263.10 633.15 276.50 C 632.69 276.55 632.23 276.61 631.76 276.68 C 629.21 279.21 626.42 281.60 624.14 284.36 C 623.04 284.70 621.95 285.02 620.84 285.32 C 622.21 285.72 623.57 286.12 624.93 286.53 C 622.03 287.20 618.96 287.42 616.91 289.85 C 616.55 290.89 616.61 292.14 616.48 293.24 C 613.48 294.92 612.03 297.63 610.16 300.36 C 609.56 299.32 608.96 298.28 608.36 297.24 C 607.22 299.99 606.45 302.59 605.92 305.52 C 604.19 305.56 602.46 305.60 600.73 305.64 C 601.80 306.40 602.87 307.15 603.93 307.90 C 602.43 308.35 600.94 308.86 599.46 309.38 C 599.87 309.91 600.29 310.44 600.70 310.97 C 599.31 311.73 597.91 312.49 596.51 313.25 C 596.98 313.98 597.46 314.70 597.94 315.42 C 594.62 315.39 593.71 315.54 591.28 318.01 C 591.73 318.92 592.17 319.83 592.61 320.74 C 591.21 320.95 589.80 321.16 588.39 321.37 C 587.47 323.10 586.55 324.83 585.62 326.56 C 584.55 326.79 583.47 327.02 582.40 327.25 C 582.77 327.74 583.15 328.23 583.52 328.72 C 581.68 329.78 580.51 331.24 579.29 332.95 C 578.65 332.46 578.01 331.97 577.37 331.49 C 576.25 332.81 575.34 334.10 574.77 335.75 C 574.06 338.40 571.47 339.17 570.54 341.67 C 569.43 344.63 567.11 346.68 565.78 349.52 C 564.91 349.18 564.04 348.83 563.18 348.49 C 558.47 351.39 556.22 355.82 553.68 360.51 C 552.94 360.18 552.20 359.85 551.45 359.52 C 550.09 362.02 548.86 364.58 547.71 367.18 C 546.56 367.00 545.41 366.83 544.26 366.65 C 544.77 367.50 545.27 368.35 545.78 369.19 C 543.61 370.25 541.95 371.38 540.35 373.21 C 538.92 374.82 537.11 375.34 535.31 376.38 C 535.57 377.61 536.06 378.83 536.52 380.01 C 535.03 380.91 533.70 381.48 532.01 381.89 C 531.50 382.68 531.00 383.48 530.50 384.27 C 529.59 384.38 528.68 384.49 527.78 384.60 C 528.71 385.29 529.65 385.98 530.60 386.67 C 530.35 387.32 530.11 387.98 529.87 388.64 C 528.85 388.13 527.84 387.61 526.83 387.10 C 526.39 387.40 525.96 387.71 525.53 388.01 C 525.65 389.66 525.77 391.32 525.90 392.97 C 523.40 393.48 520.90 393.85 518.35 393.90 C 518.77 394.49 519.19 395.09 519.61 395.69 C 517.22 397.58 514.65 399.04 511.90 400.34 C 511.49 401.65 511.31 403.33 510.43 404.41 C 509.11 405.42 507.49 406.05 506.21 407.11 C 505.21 408.39 504.35 409.79 503.44 411.14 C 503.12 412.22 502.80 413.29 502.48 414.36 C 499.48 416.13 496.65 417.74 494.55 420.61 C 493.27 422.36 491.99 423.93 490.12 425.10 C 490.22 426.71 490.33 428.33 490.45 429.94 C 489.46 429.66 488.48 429.38 487.49 429.10 C 486.07 407.33 484.16 385.57 483.06 363.78 C 483.65 365.29 484.30 366.74 484.95 368.21 C 487.60 365.52 489.31 362.30 491.32 359.15 C 492.36 356.86 495.63 357.20 497.76 356.63 C 496.88 355.47 496.01 354.32 495.12 353.17 C 496.65 353.34 498.21 353.59 499.75 353.56 C 501.39 352.42 502.22 349.93 503.25 348.25 C 505.27 347.47 507.15 346.46 509.00 345.35 C 508.42 344.23 507.83 343.10 507.25 341.98 C 508.14 341.24 509.03 340.49 509.91 339.74 C 510.35 338.30 510.79 336.87 511.24 335.43 C 511.92 335.95 512.59 336.47 513.27 337.00 C 515.04 335.53 516.93 334.15 518.57 332.54 C 521.03 329.92 522.19 326.80 523.40 323.50 C 523.84 323.87 524.28 324.23 524.72 324.59 C 525.57 322.88 526.32 321.03 527.42 319.46 C 530.15 317.67 533.34 316.99 535.85 314.76 C 534.93 313.96 534.00 313.16 533.07 312.35 C 533.92 312.35 534.77 312.34 535.62 312.34 C 536.37 311.23 537.13 310.13 537.88 309.03 C 538.76 309.56 539.64 310.10 540.52 310.63 C 540.71 309.57 540.50 308.10 541.18 307.22 C 542.68 305.75 544.82 304.85 546.65 303.85 C 546.20 302.57 545.74 301.29 545.29 300.01 C 546.19 299.50 547.09 299.00 547.98 298.50 C 549.20 299.06 550.41 299.62 551.62 300.17 C 551.58 299.29 551.55 298.40 551.52 297.51 C 550.72 297.11 549.93 296.71 549.14 296.32 C 551.91 295.48 555.37 295.26 557.82 293.80 C 558.87 291.76 558.82 289.05 560.08 287.12 C 561.46 286.44 563.14 286.29 564.64 285.97 C 564.12 285.22 563.60 284.48 563.08 283.74 C 565.03 281.90 567.01 280.49 567.70 277.76 C 569.61 276.66 571.54 275.59 573.47 274.50 C 573.52 273.68 573.57 272.86 573.62 272.03 C 575.13 271.24 576.91 270.60 578.20 269.46 C 579.82 267.10 580.88 263.88 582.95 261.90 C 584.77 260.53 586.98 259.64 589.02 258.64 C 588.05 258.24 587.07 257.85 586.10 257.45 C 586.45 257.15 586.79 256.85 587.14 256.55 C 588.44 256.67 589.74 256.78 591.05 256.89 C 591.59 255.30 592.32 253.95 593.25 252.56 C 593.27 251.67 593.29 250.77 593.31 249.88 C 596.07 248.39 598.66 246.80 601.77 246.15 C 601.58 245.32 601.40 244.49 601.21 243.66 C 601.72 243.56 602.23 243.45 602.74 243.35 C 602.51 242.04 602.27 240.72 602.07 239.40 Z" fill="#98a7ff" />
<path d="M 137.13 257.81 C 138.35 258.26 139.50 258.95 140.73 259.40 C 143.07 259.50 145.34 258.86 147.70 259.25 C 151.36 259.84 154.78 259.08 158.39 258.67 C 160.26 258.33 161.48 259.52 163.09 260.30 C 168.65 257.51 173.61 258.96 179.40 259.33 C 179.44 259.82 179.48 260.31 179.52 260.80 C 180.42 260.39 181.32 259.97 182.23 259.61 C 187.16 257.47 193.06 261.77 197.49 257.95 C 202.70 259.26 207.99 259.56 213.35 259.69 C 217.33 259.56 220.97 257.95 225.04 258.26 C 228.70 258.17 232.12 259.70 235.68 259.91 C 241.48 257.89 247.75 258.66 253.74 259.19 C 257.89 258.12 261.96 258.56 266.12 259.26 C 268.54 259.98 270.77 258.30 273.25 258.50 C 275.63 258.69 277.68 259.46 280.09 259.20 C 284.01 258.69 287.97 258.88 291.64 257.67 C 291.93 258.32 292.21 258.98 292.49 259.64 C 294.24 259.54 295.86 259.30 297.55 258.86 C 300.10 258.06 303.15 259.87 305.73 259.58 C 308.26 259.10 310.32 258.09 312.98 258.42 C 316.12 258.83 319.04 259.58 322.24 259.17 C 325.72 258.76 328.74 260.00 332.16 259.06 C 335.60 258.06 338.87 258.36 342.35 258.87 C 342.38 271.49 342.34 284.11 342.34 296.73 C 336.80 296.25 331.30 296.72 325.75 296.46 C 322.21 296.26 318.83 297.02 315.33 297.33 C 313.74 297.48 312.07 296.31 310.63 295.72 C 306.54 296.80 302.54 296.26 298.38 296.47 C 295.82 296.59 293.36 296.00 290.83 295.88 C 287.17 296.12 283.93 297.27 280.16 296.73 C 276.59 296.14 273.10 296.83 269.58 295.93 C 266.91 296.65 265.02 296.30 262.42 295.50 C 262.16 296.11 261.90 296.73 261.64 297.34 C 259.92 297.04 258.29 296.88 256.55 296.93 C 251.78 295.48 247.52 296.72 242.35 296.46 C 238.57 296.23 234.91 297.09 231.14 297.01 C 228.24 297.00 225.51 297.54 222.53 297.86 C 222.27 297.11 222.02 296.37 221.77 295.62 C 220.15 296.35 218.67 297.40 216.83 297.19 C 213.77 296.93 210.85 296.83 207.80 297.32 C 205.19 296.81 202.47 295.97 199.80 295.93 C 197.94 296.15 196.08 296.90 194.32 297.51 C 194.10 296.81 193.88 296.10 193.65 295.39 C 192.54 296.12 191.43 296.95 190.21 297.49 C 187.77 297.23 185.66 296.31 183.15 296.90 C 180.25 297.50 177.76 296.68 175.07 295.63 C 174.61 296.18 174.14 296.74 173.68 297.29 C 173.12 297.07 172.57 296.84 172.01 296.61 C 169.72 296.87 167.45 297.19 165.14 297.22 C 162.20 297.36 159.58 296.48 156.80 295.68 C 155.67 295.89 154.59 296.41 153.52 296.81 C 153.50 296.22 153.48 295.62 153.46 295.02 C 152.23 295.91 150.99 296.88 149.64 297.58 C 148.14 297.66 146.51 296.78 145.08 296.36 C 144.30 296.84 143.53 297.33 142.75 297.81 C 142.08 297.57 141.41 297.32 140.74 297.07 C 136.06 296.91 131.84 295.76 127.40 296.53 C 124.65 296.87 121.93 297.07 119.29 298.01 C 119.26 285.16 119.36 272.30 119.37 259.45 C 121.79 259.10 124.21 258.51 126.66 258.31 C 128.49 258.28 130.34 259.16 132.15 259.43 C 133.85 259.15 135.45 258.21 137.13 257.81 Z" fill="#b5c2fa" />
<path d="M 1432.44 265.39 C 1443.12 265.15 1453.86 265.37 1464.56 265.30 C 1464.56 325.12 1464.55 384.94 1464.57 444.75 C 1453.83 444.76 1443.09 444.76 1432.35 444.75 C 1432.34 387.84 1432.35 330.92 1432.34 274.00 C 1432.36 271.14 1432.22 268.25 1432.44 265.39 Z" fill="#2328c2" />
<path d="M 1882.46 265.34 C 1893.30 265.25 1904.16 265.28 1915.00 265.34 L 1915.00 444.71 C 1904.74 444.83 1894.47 444.70 1884.21 444.79 C 1883.59 439.71 1883.77 434.66 1883.66 429.55 C 1878.88 434.92 1873.43 438.96 1866.92 442.01 C 1848.98 450.80 1825.83 448.45 1810.30 435.76 C 1796.94 425.24 1788.86 408.58 1787.01 391.85 C 1785.50 378.46 1786.46 364.06 1791.43 351.43 C 1796.52 338.35 1805.80 327.07 1818.22 320.38 C 1838.77 309.02 1866.36 313.07 1882.38 330.37 C 1882.50 308.70 1882.34 287.01 1882.46 265.34 Z" fill="#2328c2" />
<path d="M 1370.54 275.63 C 1385.18 280.34 1398.53 287.97 1408.18 300.18 C 1401.38 308.64 1393.84 316.53 1386.80 324.80 C 1378.68 316.49 1368.81 308.92 1357.20 306.54 C 1344.77 303.91 1330.96 306.22 1320.33 313.30 C 1309.22 320.58 1301.57 333.08 1298.84 345.95 C 1296.39 358.07 1297.09 371.17 1301.41 382.80 C 1303.90 389.90 1308.35 396.08 1313.87 401.14 C 1323.59 410.39 1337.80 414.38 1351.00 413.77 C 1361.74 414.11 1371.54 410.16 1380.36 404.32 C 1383.76 402.09 1386.53 399.24 1389.77 396.77 C 1394.66 405.03 1399.69 413.22 1404.67 421.42 C 1405.24 422.86 1406.64 423.69 1405.08 425.04 C 1395.88 434.73 1382.20 440.74 1369.48 444.19 C 1345.86 450.33 1318.88 447.50 1298.48 433.48 C 1286.64 425.64 1277.41 414.45 1271.28 401.68 C 1263.67 385.90 1261.36 367.32 1262.82 349.99 C 1264.32 333.41 1270.47 317.79 1280.56 304.56 C 1290.88 290.76 1306.00 280.56 1322.49 275.71 C 1338.00 271.27 1355.05 270.90 1370.54 275.63 Z" fill="#2328c2" />
<path d="M 720.92 274.76 C 742.88 274.69 765.02 274.77 787.00 274.72 C 794.21 275.01 801.09 275.49 807.80 278.38 C 823.56 284.64 835.36 298.73 839.53 315.07 C 841.87 325.07 841.60 335.51 839.02 345.43 C 835.26 358.73 826.45 370.44 814.69 377.69 C 806.94 382.46 798.06 384.55 789.01 384.61 C 777.06 384.67 765.11 384.59 753.17 384.64 C 753.18 404.68 753.17 424.72 753.17 444.76 C 741.69 444.61 730.15 445.07 718.68 444.52 C 718.89 389.02 718.72 333.48 718.76 277.97 C 718.86 276.26 718.63 274.65 720.92 274.76 Z" fill="#2328c2" />
<path d="M 631.76 276.68 C 632.23 276.61 632.69 276.55 633.15 276.50 C 638.41 285.78 642.94 295.51 646.51 305.57 C 645.85 306.52 645.16 307.44 644.43 308.32 C 643.28 308.53 642.05 308.44 640.88 308.44 C 640.05 309.94 639.25 311.72 637.98 312.88 C 636.49 314.12 634.21 314.59 632.40 315.16 C 632.92 315.85 633.43 316.54 633.95 317.23 C 632.08 318.13 630.20 319.02 628.33 319.91 C 628.73 320.56 629.13 321.20 629.53 321.84 C 628.68 322.26 627.79 322.65 626.99 323.17 C 626.59 324.50 626.42 325.91 626.04 327.25 C 624.85 327.49 623.60 327.52 622.39 327.60 C 622.55 329.89 623.18 331.76 621.68 333.78 C 620.49 334.16 619.16 333.01 618.10 332.52 C 617.99 333.80 617.88 335.08 617.77 336.36 C 616.61 336.58 615.29 336.65 614.22 337.17 C 613.36 338.10 612.76 339.30 612.13 340.39 C 608.50 340.41 608.98 343.70 607.07 345.99 C 605.35 348.16 603.45 349.96 602.34 352.59 C 600.73 352.87 599.11 353.14 597.50 353.40 C 596.86 354.46 596.22 355.51 595.58 356.57 C 596.37 357.32 597.17 358.07 597.96 358.82 C 596.68 358.73 595.41 358.64 594.13 358.56 C 593.79 358.85 593.45 359.15 593.10 359.44 C 594.09 359.85 595.08 360.26 596.06 360.67 C 594.16 361.94 592.64 362.55 590.36 362.83 C 589.94 364.11 589.53 365.38 589.11 366.66 C 588.49 366.26 587.87 365.86 587.25 365.46 C 586.60 366.04 585.95 366.61 585.30 367.19 C 586.28 368.05 587.27 368.86 588.37 369.55 C 587.24 369.50 586.11 369.46 584.98 369.43 C 583.52 371.42 583.59 371.58 581.18 370.79 C 580.63 372.18 580.09 373.58 579.56 374.98 C 579.18 374.00 578.81 373.02 578.44 372.05 C 577.32 373.95 576.63 375.61 576.34 377.81 C 574.75 378.94 573.14 380.05 571.52 381.14 C 571.81 381.55 572.11 381.95 572.41 382.36 C 570.32 385.31 568.31 388.31 566.43 391.39 C 565.36 391.56 564.29 391.74 563.22 391.91 C 560.66 396.11 557.41 399.79 555.03 404.12 C 553.60 403.17 552.17 402.22 550.75 401.27 C 551.35 402.55 551.94 403.82 552.54 405.09 C 551.99 405.19 551.44 405.29 550.88 405.38 C 550.34 405.13 549.79 404.89 549.25 404.64 C 547.62 407.71 545.65 410.50 543.47 413.20 C 542.97 413.32 542.47 413.45 541.97 413.57 C 540.73 414.80 539.43 415.96 538.10 417.10 C 534.01 420.01 535.20 425.73 531.26 429.20 C 530.91 428.13 530.56 427.06 530.21 425.99 C 528.36 428.33 526.72 430.21 523.59 430.65 C 523.21 431.68 522.84 432.72 522.48 433.76 C 522.85 434.74 523.29 435.73 523.53 436.76 C 522.76 438.28 521.14 439.51 519.99 440.77 C 519.00 440.28 518.01 439.79 517.01 439.29 C 516.44 440.30 515.91 441.28 515.23 442.22 C 514.18 443.69 511.28 443.97 510.93 445.86 C 512.17 446.96 513.55 447.94 514.88 448.92 C 511.23 449.77 507.59 450.49 504.12 451.98 C 504.17 453.66 504.56 455.56 504.16 457.20 C 499.70 460.58 496.32 464.29 491.21 465.90 C 491.03 462.91 491.38 460.19 489.50 457.64 C 488.45 448.18 488.11 438.60 487.49 429.10 C 488.48 429.38 489.46 429.66 490.45 429.94 C 490.33 428.33 490.22 426.71 490.12 425.10 C 491.99 423.93 493.27 422.36 494.55 420.61 C 496.65 417.74 499.48 416.13 502.48 414.36 C 502.80 413.29 503.12 412.22 503.44 411.14 C 504.35 409.79 505.21 408.39 506.21 407.11 C 507.49 406.05 509.11 405.42 510.43 404.41 C 511.31 403.33 511.49 401.65 511.90 400.34 C 514.65 399.04 517.22 397.58 519.61 395.69 C 519.19 395.09 518.77 394.49 518.35 393.90 C 520.90 393.85 523.40 393.48 525.90 392.97 C 525.77 391.32 525.65 389.66 525.53 388.01 C 525.96 387.71 526.39 387.40 526.83 387.10 C 527.84 387.61 528.85 388.13 529.87 388.64 C 530.11 387.98 530.35 387.32 530.60 386.67 C 529.65 385.98 528.71 385.29 527.78 384.60 C 528.68 384.49 529.59 384.38 530.50 384.27 C 531.00 383.48 531.50 382.68 532.01 381.89 C 533.70 381.48 535.03 380.91 536.52 380.01 C 536.06 378.83 535.57 377.61 535.31 376.38 C 537.11 375.34 538.92 374.82 540.35 373.21 C 541.95 371.38 543.61 370.25 545.78 369.19 C 545.27 368.35 544.77 367.50 544.26 366.65 C 545.41 366.83 546.56 367.00 547.71 367.18 C 548.86 364.58 550.09 362.02 551.45 359.52 C 552.20 359.85 552.94 360.18 553.68 360.51 C 556.22 355.82 558.47 351.39 563.18 348.49 C 564.04 348.83 564.91 349.18 565.78 349.52 C 567.11 346.68 569.43 344.63 570.54 341.67 C 571.47 339.17 574.06 338.40 574.77 335.75 C 575.34 334.10 576.25 332.81 577.37 331.49 C 578.01 331.97 578.65 332.46 579.29 332.95 C 580.51 331.24 581.68 329.78 583.52 328.72 C 583.15 328.23 582.77 327.74 582.40 327.25 C 583.47 327.02 584.55 326.79 585.62 326.56 C 586.55 324.83 587.47 323.10 588.39 321.37 C 589.80 321.16 591.21 320.95 592.61 320.74 C 592.17 319.83 591.73 318.92 591.28 318.01 C 593.71 315.54 594.62 315.39 597.94 315.42 C 597.46 314.70 596.98 313.98 596.51 313.25 C 597.91 312.49 599.31 311.73 600.70 310.97 C 600.29 310.44 599.87 309.91 599.46 309.38 C 600.94 308.86 602.43 308.35 603.93 307.90 C 602.87 307.15 601.80 306.40 600.73 305.64 C 602.46 305.60 604.19 305.56 605.92 305.52 C 606.45 302.59 607.22 299.99 608.36 297.24 C 608.96 298.28 609.56 299.32 610.16 300.36 C 612.03 297.63 613.48 294.92 616.48 293.24 C 616.61 292.14 616.55 290.89 616.91 289.85 C 618.96 287.42 622.03 287.20 624.93 286.53 C 623.57 286.12 622.21 285.72 620.84 285.32 C 621.95 285.02 623.04 284.70 624.14 284.36 C 626.42 281.60 629.21 279.21 631.76 276.68 Z" fill="#92a3ff" />
<path d="M 153.46 295.02 C 153.48 295.62 153.50 296.22 153.52 296.81 C 154.59 296.41 155.67 295.89 156.80 295.68 C 159.58 296.48 162.20 297.36 165.14 297.22 C 167.45 297.19 169.72 296.87 172.01 296.61 C 172.57 296.84 173.12 297.07 173.68 297.29 C 174.14 296.74 174.61 296.18 175.07 295.63 C 177.76 296.68 180.25 297.50 183.15 296.90 C 185.66 296.31 187.77 297.23 190.21 297.49 C 191.43 296.95 192.54 296.12 193.65 295.39 C 193.88 296.10 194.10 296.81 194.32 297.51 C 196.08 296.90 197.94 296.15 199.80 295.93 C 202.47 295.97 205.19 296.81 207.80 297.32 C 210.85 296.83 213.77 296.93 216.83 297.19 C 218.67 297.40 220.15 296.35 221.77 295.62 C 222.02 296.37 222.27 297.11 222.53 297.86 C 225.51 297.54 228.24 297.00 231.14 297.01 C 234.91 297.09 238.57 296.23 242.35 296.46 C 247.52 296.72 251.78 295.48 256.55 296.93 C 258.29 296.88 259.92 297.04 261.64 297.34 C 261.90 296.73 262.16 296.11 262.42 295.50 C 265.02 296.30 266.91 296.65 269.58 295.93 C 273.10 296.83 276.59 296.14 280.16 296.73 C 283.93 297.27 287.17 296.12 290.83 295.88 C 293.36 296.00 295.82 296.59 298.38 296.47 C 302.54 296.26 306.54 296.80 310.63 295.72 C 312.07 296.31 313.74 297.48 315.33 297.33 C 318.83 297.02 322.21 296.26 325.75 296.46 C 331.30 296.72 336.80 296.25 342.34 296.73 C 342.39 305.60 342.33 314.47 342.34 323.34 C 337.79 324.62 334.09 321.75 329.70 323.18 C 325.67 322.02 321.41 322.08 317.36 323.09 C 316.65 322.95 315.94 322.80 315.24 322.66 C 313.70 322.99 312.24 322.97 310.68 322.90 C 307.56 322.78 305.10 324.09 302.11 322.71 C 302.03 323.27 301.95 323.84 301.87 324.40 C 299.84 323.52 297.47 322.19 295.21 322.61 C 293.91 323.16 292.76 324.13 291.59 324.93 C 291.52 324.43 291.45 323.93 291.38 323.43 C 285.15 323.18 278.47 322.34 272.42 323.87 C 270.46 323.53 268.90 322.41 267.01 323.03 C 262.94 324.26 258.91 323.70 254.91 322.52 C 254.74 323.27 254.58 324.02 254.41 324.76 C 250.51 322.26 247.26 324.48 242.78 323.46 C 237.63 322.34 232.80 323.15 227.68 323.92 C 224.01 323.58 220.83 322.18 217.05 323.05 C 212.85 324.10 209.12 321.81 204.91 322.86 C 202.19 323.48 199.92 323.19 197.25 322.56 C 196.46 323.37 195.66 324.18 194.86 325.00 C 194.35 324.67 193.85 324.35 193.34 324.02 C 193.80 323.27 194.26 322.51 194.72 321.76 C 191.33 322.17 187.74 323.72 184.50 322.73 C 181.78 321.85 179.99 324.30 177.30 323.40 C 174.80 322.66 172.90 322.47 170.33 323.06 C 169.80 322.79 169.28 322.53 168.76 322.27 C 166.78 323.48 164.82 324.47 162.59 325.10 C 162.61 324.14 162.63 323.17 162.65 322.21 C 160.63 322.45 158.80 322.87 156.88 323.57 C 156.03 323.20 155.17 322.83 154.32 322.46 C 154.13 323.17 153.94 323.89 153.76 324.60 C 153.07 323.86 152.37 322.35 151.29 322.21 C 148.98 322.09 146.67 323.70 144.37 323.72 C 142.59 323.30 140.92 322.30 139.13 322.05 C 138.23 322.72 137.38 323.47 136.52 324.20 C 135.98 323.95 135.44 323.70 134.91 323.45 C 134.16 323.68 133.41 323.91 132.67 324.14 C 129.40 322.98 125.92 323.62 122.57 322.53 C 121.52 323.54 120.52 324.57 119.36 325.45 C 119.19 316.30 119.41 307.16 119.29 298.01 C 121.93 297.07 124.65 296.87 127.40 296.53 C 131.84 295.76 136.06 296.91 140.74 297.07 C 141.41 297.32 142.08 297.57 142.75 297.81 C 143.53 297.33 144.30 296.84 145.08 296.36 C 146.51 296.78 148.14 297.66 149.64 297.58 C 150.99 296.88 152.23 295.91 153.46 295.02 Z" fill="#aab8f9" />
<path d="M 646.51 305.57 C 652.90 323.65 656.32 342.52 656.86 361.69 C 654.88 361.52 652.95 361.02 651.13 362.07 C 649.76 364.06 648.78 366.34 647.67 368.49 C 647.96 368.94 648.24 369.40 648.53 369.86 C 646.18 370.65 643.84 371.48 641.51 372.33 C 642.01 373.62 642.51 374.91 643.00 376.20 C 641.76 375.64 640.52 375.14 639.23 374.70 C 638.56 376.41 638.05 378.43 636.91 379.90 C 634.79 381.91 632.25 383.00 630.40 385.38 C 627.63 388.99 624.29 392.29 620.60 394.97 C 620.98 396.55 621.24 398.10 621.30 399.72 C 619.94 398.88 618.58 398.01 617.24 397.14 C 616.88 397.59 616.53 398.03 616.18 398.48 C 617.06 398.84 617.94 399.21 618.82 399.57 C 617.07 400.06 615.32 400.55 613.56 401.03 C 613.66 402.38 613.77 403.73 613.87 405.08 C 612.00 405.60 610.12 406.03 608.21 406.34 C 609.19 406.92 610.16 407.51 611.14 408.09 C 609.93 408.47 608.26 408.41 607.61 409.70 C 606.85 411.37 606.44 413.30 605.51 414.87 C 604.74 414.45 603.96 414.01 603.20 413.55 C 601.79 414.65 600.41 415.77 599.03 416.91 C 599.27 418.06 599.51 419.21 599.74 420.36 C 598.64 420.58 597.54 420.80 596.44 421.02 C 597.05 422.15 597.66 423.28 598.29 424.41 C 596.65 423.91 594.97 423.59 593.27 423.34 C 592.30 425.53 591.31 427.95 589.87 429.87 C 588.14 432.16 585.74 433.62 583.40 435.20 C 583.81 435.73 584.23 436.26 584.64 436.79 C 583.65 436.95 582.67 437.11 581.69 437.27 C 581.52 438.89 581.24 440.48 580.88 442.07 C 580.39 441.13 579.90 440.20 579.42 439.26 C 578.76 439.19 578.10 439.11 577.44 439.04 C 577.41 439.94 577.38 440.84 577.35 441.73 C 574.85 442.99 574.50 445.02 573.63 447.47 C 573.97 447.96 574.31 448.45 574.64 448.93 C 573.21 448.98 571.79 449.02 570.36 449.06 C 570.78 449.69 571.20 450.32 571.61 450.95 C 571.07 451.47 570.52 451.99 569.97 452.51 C 569.25 452.14 568.53 451.76 567.82 451.38 C 567.73 452.34 567.64 453.30 567.56 454.25 C 567.14 454.44 566.72 454.62 566.30 454.80 C 566.08 455.83 565.85 456.86 565.63 457.89 C 565.22 456.96 564.80 456.02 564.38 455.08 C 563.39 456.88 562.68 458.59 562.29 460.62 C 558.30 461.97 554.78 462.40 552.47 466.32 C 552.80 467.35 553.13 468.39 553.46 469.43 C 550.52 471.79 547.61 473.56 546.38 477.39 C 545.82 477.55 545.26 477.71 544.70 477.86 C 542.86 479.72 540.67 480.78 538.26 481.71 C 538.42 482.50 538.57 483.30 538.73 484.10 C 535.94 484.82 534.13 486.64 532.12 488.58 C 532.97 488.82 533.81 489.06 534.66 489.30 C 532.64 491.38 530.91 492.43 531.29 495.66 C 529.08 496.09 527.14 496.23 524.95 495.55 C 525.56 496.69 526.16 497.84 526.76 498.99 C 524.73 499.19 522.83 499.28 520.85 498.76 C 520.15 500.72 519.56 502.69 519.11 504.72 C 517.44 505.82 515.70 506.86 514.13 508.11 C 512.22 509.46 512.79 512.51 510.65 513.57 C 508.81 514.71 507.74 515.81 506.45 517.56 C 505.02 519.65 502.23 519.78 500.83 521.79 C 499.11 524.16 497.69 526.73 496.01 529.12 C 494.95 525.07 495.33 520.93 494.51 516.82 C 494.12 519.58 493.87 522.35 493.90 525.13 C 492.68 502.63 490.67 480.13 489.50 457.64 C 491.38 460.19 491.03 462.91 491.21 465.90 C 496.32 464.29 499.70 460.58 504.16 457.20 C 504.56 455.56 504.17 453.66 504.12 451.98 C 507.59 450.49 511.23 449.77 514.88 448.92 C 513.55 447.94 512.17 446.96 510.93 445.86 C 511.28 443.97 514.18 443.69 515.23 442.22 C 515.91 441.28 516.44 440.30 517.01 439.29 C 518.01 439.79 519.00 440.28 519.99 440.77 C 521.14 439.51 522.76 438.28 523.53 436.76 C 523.29 435.73 522.85 434.74 522.48 433.76 C 522.84 432.72 523.21 431.68 523.59 430.65 C 526.72 430.21 528.36 428.33 530.21 425.99 C 530.56 427.06 530.91 428.13 531.26 429.20 C 535.20 425.73 534.01 420.01 538.10 417.10 C 539.43 415.96 540.73 414.80 541.97 413.57 C 542.47 413.45 542.97 413.32 543.47 413.20 C 545.65 410.50 547.62 407.71 549.25 404.64 C 549.79 404.89 550.34 405.13 550.88 405.38 C 551.44 405.29 551.99 405.19 552.54 405.09 C 551.94 403.82 551.35 402.55 550.75 401.27 C 552.17 402.22 553.60 403.17 555.03 404.12 C 557.41 399.79 560.66 396.11 563.22 391.91 C 564.29 391.74 565.36 391.56 566.43 391.39 C 568.31 388.31 570.32 385.31 572.41 382.36 C 572.11 381.95 571.81 381.55 571.52 381.14 C 573.14 380.05 574.75 378.94 576.34 377.81 C 576.63 375.61 577.32 373.95 578.44 372.05 C 578.81 373.02 579.18 374.00 579.56 374.98 C 580.09 373.58 580.63 372.18 581.18 370.79 C 583.59 371.58 583.52 371.42 584.98 369.43 C 586.11 369.46 587.24 369.50 588.37 369.55 C 587.27 368.86 586.28 368.05 585.30 367.19 C 585.95 366.61 586.60 366.04 587.25 365.46 C 587.87 365.86 588.49 366.26 589.11 366.66 C 589.53 365.38 589.94 364.11 590.36 362.83 C 592.64 362.55 594.16 361.94 596.06 360.67 C 595.08 360.26 594.09 359.85 593.10 359.44 C 593.45 359.15 593.79 358.85 594.13 358.56 C 595.41 358.64 596.68 358.73 597.96 358.82 C 597.17 358.07 596.37 357.32 595.58 356.57 C 596.22 355.51 596.86 354.46 597.50 353.40 C 599.11 353.14 600.73 352.87 602.34 352.59 C 603.45 349.96 605.35 348.16 607.07 345.99 C 608.98 343.70 608.50 340.41 612.13 340.39 C 612.76 339.30 613.36 338.10 614.22 337.17 C 615.29 336.65 616.61 336.58 617.77 336.36 C 617.88 335.08 617.99 333.80 618.10 332.52 C 619.16 333.01 620.49 334.16 621.68 333.78 C 623.18 331.76 622.55 329.89 622.39 327.60 C 623.60 327.52 624.85 327.49 626.04 327.25 C 626.42 325.91 626.59 324.50 626.99 323.17 C 627.79 322.65 628.68 322.26 629.53 321.84 C 629.13 321.20 628.73 320.56 628.33 319.91 C 630.20 319.02 632.08 318.13 633.95 317.23 C 633.43 316.54 632.92 315.85 632.40 315.16 C 634.21 314.59 636.49 314.12 637.98 312.88 C 639.25 311.72 640.05 309.94 640.88 308.44 C 642.05 308.44 643.28 308.53 644.43 308.32 C 645.16 307.44 645.85 306.52 646.51 305.57 Z" fill="#8c9dff" />
<path d="M 752.76 306.74 C 763.84 306.70 774.93 306.70 786.01 306.72 C 791.56 306.82 796.21 308.97 799.95 313.02 C 808.92 322.13 808.39 338.44 799.16 347.16 C 795.69 350.67 790.99 352.80 786.03 352.75 C 774.97 352.79 763.90 352.74 752.84 352.76 C 752.65 337.43 752.80 322.08 752.76 306.74 Z" fill="#ffffff" />
<path d="M 931.18 314.54 C 937.84 313.59 945.22 313.96 951.59 316.19 C 949.13 328.34 945.79 340.37 943.02 352.47 C 936.41 349.26 929.31 348.66 922.11 349.73 C 912.48 351.89 904.52 359.51 901.91 369.03 C 900.33 374.41 900.70 379.48 900.68 385.00 C 900.68 404.92 900.68 424.84 900.68 444.75 C 889.88 444.76 879.09 444.76 868.29 444.76 C 868.36 402.04 868.14 359.29 868.39 316.58 C 878.77 316.70 889.15 316.61 899.53 316.63 C 899.90 323.46 899.16 330.52 900.47 337.22 C 906.97 326.16 918.43 316.96 931.18 314.54 Z" fill="#2328c2" />
<path d="M 1022.00 314.08 C 1033.82 313.72 1045.58 316.10 1055.94 321.93 C 1070.06 329.26 1080.69 342.18 1085.74 357.20 C 1090.06 369.86 1090.50 383.92 1087.71 396.96 C 1084.29 412.60 1075.03 426.79 1061.80 435.87 C 1048.83 445.11 1031.69 448.54 1016.03 446.81 C 1008.59 446.28 1001.36 444.30 994.56 441.28 C 977.90 433.69 965.14 418.56 960.20 400.95 C 957.32 390.24 956.72 378.94 958.51 367.99 C 960.45 355.10 966.49 342.91 975.50 333.50 C 987.64 321.11 1004.64 313.98 1022.00 314.08 Z" fill="#2328c2" />
<path d="M 1198.99 315.68 C 1210.80 318.24 1221.46 325.74 1228.75 335.26 C 1238.46 348.09 1243.00 363.99 1242.71 380.00 C 1243.06 393.67 1240.05 407.26 1233.13 419.10 C 1226.49 430.60 1216.00 440.28 1203.20 444.33 C 1195.29 447.19 1187.26 447.01 1178.97 446.48 C 1167.08 444.89 1156.13 439.12 1147.78 430.54 C 1147.70 453.10 1147.77 475.66 1147.75 498.21 C 1136.85 498.34 1125.94 498.23 1115.04 498.27 C 1114.86 437.74 1115.00 377.18 1114.97 316.65 C 1125.40 316.62 1135.83 316.63 1146.26 316.65 C 1146.46 321.80 1146.58 326.96 1146.78 332.11 C 1159.29 317.23 1180.25 311.10 1198.99 315.68 Z" fill="#2328c2" />
<path d="M 1571.19 315.87 C 1588.61 320.02 1604.16 331.56 1612.47 347.53 C 1617.31 356.34 1619.56 366.02 1620.30 375.99 C 1621.10 391.59 1617.55 407.55 1608.33 420.36 C 1597.85 435.51 1580.55 445.40 1562.18 446.79 C 1557.00 447.46 1552.21 447.48 1547.02 446.81 C 1529.88 445.56 1513.94 437.26 1503.10 423.92 C 1493.41 412.13 1488.58 397.19 1488.43 382.00 C 1488.09 367.51 1491.79 353.09 1500.18 341.16 C 1507.84 329.90 1519.42 321.80 1532.21 317.37 C 1544.55 313.42 1558.59 312.96 1571.19 315.87 Z" fill="#2328c2" />
<path d="M 1645.24 316.73 L 1645.74 316.72 C 1656.30 316.53 1666.87 316.68 1677.43 316.64 C 1677.50 341.76 1677.41 366.90 1677.47 392.01 C 1677.71 401.07 1681.17 411.78 1689.62 416.39 C 1700.30 422.19 1715.21 419.44 1722.73 409.70 C 1726.77 404.98 1728.21 399.11 1728.31 393.00 C 1728.36 367.54 1728.19 342.06 1728.40 316.59 C 1739.08 316.69 1749.77 316.60 1760.46 316.64 C 1760.53 359.35 1760.47 402.05 1760.50 444.75 C 1750.21 444.76 1739.93 444.77 1729.64 444.74 C 1729.33 438.82 1729.43 432.97 1728.65 427.08 C 1715.27 446.47 1687.03 453.19 1666.42 441.60 C 1657.83 436.74 1652.10 428.64 1648.83 419.47 C 1646.50 412.56 1645.22 405.31 1645.27 398.00 C 1645.24 370.91 1645.31 343.82 1645.24 316.73 Z" fill="#2328c2" />
<path d="M 122.57 322.53 C 125.92 323.62 129.40 322.98 132.67 324.14 C 133.41 323.91 134.16 323.68 134.91 323.45 C 135.44 323.70 135.98 323.95 136.52 324.20 C 137.38 323.47 138.23 322.72 139.13 322.05 C 140.92 322.30 142.59 323.30 144.37 323.72 C 146.67 323.70 148.98 322.09 151.29 322.21 C 152.37 322.35 153.07 323.86 153.76 324.60 C 153.94 323.89 154.13 323.17 154.32 322.46 C 155.17 322.83 156.03 323.20 156.88 323.57 C 158.80 322.87 160.63 322.45 162.65 322.21 C 162.63 323.17 162.61 324.14 162.59 325.10 C 164.82 324.47 166.78 323.48 168.76 322.27 C 169.28 322.53 169.80 322.79 170.33 323.06 C 172.90 322.47 174.80 322.66 177.30 323.40 C 179.99 324.30 181.78 321.85 184.50 322.73 C 187.74 323.72 191.33 322.17 194.72 321.76 C 194.26 322.51 193.80 323.27 193.34 324.02 C 193.85 324.35 194.35 324.67 194.86 325.00 C 195.66 324.18 196.46 323.37 197.25 322.56 C 199.92 323.19 202.19 323.48 204.91 322.86 C 209.12 321.81 212.85 324.10 217.05 323.05 C 220.83 322.18 224.01 323.58 227.68 323.92 C 232.80 323.15 237.63 322.34 242.78 323.46 C 247.26 324.48 250.51 322.26 254.41 324.76 C 254.58 324.02 254.74 323.27 254.91 322.52 C 258.91 323.70 262.94 324.26 267.01 323.03 C 268.90 322.41 270.46 323.53 272.42 323.87 C 278.47 322.34 285.15 323.18 291.38 323.43 C 291.45 323.93 291.52 324.43 291.59 324.93 C 292.76 324.13 293.91 323.16 295.21 322.61 C 297.47 322.19 299.84 323.52 301.87 324.40 C 301.95 323.84 302.03 323.27 302.11 322.71 C 305.10 324.09 307.56 322.78 310.68 322.90 C 312.24 322.97 313.70 322.99 315.24 322.66 C 315.94 322.80 316.65 322.95 317.36 323.09 C 321.41 322.08 325.67 322.02 329.70 323.18 C 334.09 321.75 337.79 324.62 342.34 323.34 C 342.38 331.10 342.32 338.86 342.35 346.62 C 337.60 345.76 333.70 348.31 329.11 346.51 C 328.62 346.73 328.13 346.96 327.63 347.18 C 327.05 346.94 326.46 346.71 325.87 346.47 C 324.85 346.82 323.83 347.17 322.80 347.52 C 319.51 346.52 316.55 346.93 313.20 347.42 C 311.56 347.75 310.98 346.59 309.74 345.75 C 303.38 348.43 295.12 347.11 288.31 346.74 C 284.48 345.94 281.17 346.62 277.47 347.56 C 275.76 346.93 274.92 347.08 273.20 347.55 C 268.25 346.67 262.69 345.85 257.71 346.84 C 254.97 347.33 252.21 347.46 249.49 348.08 C 248.24 347.50 246.99 346.92 245.74 346.35 C 243.73 347.07 241.93 347.64 239.77 347.18 C 236.32 346.54 233.14 347.86 229.62 347.63 C 224.73 347.84 220.20 346.11 215.34 346.49 C 212.48 346.65 209.91 347.52 207.02 346.98 C 203.99 346.47 201.04 347.32 198.01 346.79 C 197.57 347.27 197.13 347.75 196.69 348.23 C 194.61 347.59 192.37 346.81 190.19 346.65 C 187.95 346.57 185.68 347.51 183.42 347.50 C 180.47 347.33 177.58 346.15 174.66 345.86 C 167.89 345.61 161.12 347.25 154.38 346.69 C 153.35 346.86 152.39 347.41 151.43 347.81 C 151.46 347.22 151.49 346.64 151.52 346.05 C 150.93 346.40 150.33 346.75 149.74 347.11 C 147.23 346.77 144.77 346.20 142.27 345.83 C 141.16 346.28 140.06 346.79 138.96 347.28 C 137.70 346.89 136.53 346.43 135.19 346.37 C 130.02 346.17 124.95 345.90 119.85 346.94 C 119.69 340.25 119.86 333.58 119.31 326.91 L 119.33 325.96 L 119.36 325.45 C 120.52 324.57 121.52 323.54 122.57 322.53 Z" fill="#a1b1f9" />
<path d="M 119.33 325.96 L 119.31 326.91 C 118.94 346.93 119.27 366.97 119.22 387.00 C 119.23 393.25 119.15 399.44 119.36 405.68 C 119.31 409.35 118.99 413.01 118.93 416.67 C 116.20 419.19 116.60 421.84 116.40 425.21 C 115.62 425.36 114.85 425.50 114.07 425.64 C 114.48 426.26 114.89 426.89 115.30 427.52 C 114.22 429.86 113.54 432.13 113.05 434.65 C 110.94 436.18 111.04 438.30 109.98 440.48 C 109.25 442.08 108.04 443.58 107.57 445.26 C 108.13 447.74 108.13 448.65 107.36 451.13 C 108.17 451.93 108.98 452.72 109.80 453.51 C 108.76 454.49 107.72 455.46 106.69 456.43 C 106.89 457.17 107.10 457.91 107.30 458.65 C 105.85 461.66 103.99 464.10 103.98 467.57 C 103.92 469.24 103.10 470.47 102.42 471.95 C 102.10 470.61 101.78 469.26 101.46 467.92 C 101.16 469.31 100.55 470.82 100.63 472.25 C 101.08 473.81 102.01 475.27 102.75 476.72 C 101.84 476.65 100.93 476.59 100.02 476.53 C 99.32 479.37 99.09 481.28 100.33 483.98 C 99.13 484.26 97.92 484.54 96.72 484.82 C 96.49 485.21 96.26 485.59 96.03 485.98 C 97.10 486.60 98.17 487.17 99.30 487.68 C 98.87 488.35 98.45 489.01 98.03 489.68 C 97.48 489.30 96.94 488.92 96.39 488.54 C 95.56 490.18 94.73 491.82 93.92 493.47 C 95.56 496.31 93.56 497.66 92.23 499.98 C 93.13 500.89 94.77 501.56 94.65 503.00 C 94.89 505.06 91.57 506.18 90.25 507.28 C 89.92 510.24 89.78 513.27 89.20 516.20 C 88.70 518.77 87.17 520.75 86.17 523.14 C 86.47 524.53 87.15 525.86 87.72 527.15 C 86.91 529.10 86.08 530.71 84.31 531.93 C 84.91 533.00 85.52 534.07 86.13 535.14 C 85.37 535.38 84.61 535.63 83.85 535.87 C 82.80 537.79 81.76 539.71 80.72 541.62 C 60.81 536.11 42.66 525.07 28.77 509.75 C 29.98 508.77 31.20 507.80 32.42 506.82 C 32.21 506.05 31.99 505.27 31.78 504.50 C 32.22 503.55 32.67 502.60 33.11 501.66 C 32.42 501.57 31.73 501.49 31.05 501.41 C 31.97 500.17 33.40 498.83 33.64 497.27 C 34.21 494.55 34.01 492.09 35.68 489.73 C 37.61 486.96 38.46 484.16 39.06 480.87 C 37.95 480.46 36.84 480.04 35.73 479.60 C 36.87 478.93 38.07 478.64 39.36 478.39 C 39.01 473.84 43.67 472.75 43.50 468.23 C 42.86 467.03 42.00 465.93 41.21 464.82 C 42.31 463.74 43.40 462.66 44.50 461.58 C 45.06 461.95 45.62 462.31 46.18 462.68 C 45.54 460.93 44.14 458.63 44.49 456.72 C 46.20 454.71 48.09 453.05 49.25 450.61 C 48.35 450.63 47.45 450.65 46.55 450.67 C 46.23 449.40 45.54 447.96 45.66 446.65 C 46.45 445.50 47.45 444.46 48.38 443.43 C 48.85 443.82 49.31 444.21 49.78 444.59 C 50.36 441.82 51.46 439.12 51.84 436.31 C 50.77 435.67 49.68 435.14 48.55 434.58 C 50.89 433.23 51.75 431.43 52.85 429.08 C 53.62 429.64 54.39 430.20 55.15 430.76 C 54.43 428.97 53.96 427.13 53.55 425.25 C 54.42 425.71 55.28 426.18 56.15 426.64 C 56.15 424.67 55.96 422.71 55.94 420.75 C 56.88 418.87 58.45 417.27 59.32 415.35 C 58.55 412.97 57.78 411.68 58.76 409.14 C 59.84 409.66 60.92 410.19 61.99 410.71 C 61.18 408.28 60.37 405.85 59.56 403.41 C 60.70 402.64 61.84 401.86 62.97 401.08 C 62.72 398.93 62.13 396.99 62.84 394.90 C 63.82 391.50 66.46 389.38 67.07 385.77 C 67.62 383.77 67.26 382.14 66.68 380.22 C 67.86 378.76 70.43 377.07 70.11 374.99 C 70.05 369.86 71.41 365.04 73.46 360.38 C 74.37 358.33 74.04 356.39 73.79 354.25 C 74.83 354.73 75.87 355.20 76.91 355.67 C 76.66 354.15 76.34 352.58 76.29 351.04 C 76.79 349.90 77.86 348.99 78.65 348.04 C 77.51 346.44 76.60 344.83 75.81 343.04 C 76.92 343.54 78.03 344.05 79.13 344.57 C 79.32 344.18 79.52 343.78 79.71 343.39 C 78.98 342.78 78.26 342.18 77.53 341.57 C 79.96 338.40 80.51 335.45 80.55 331.54 L 78.98 330.13 C 92.05 326.15 105.72 324.94 119.33 325.96 Z" fill="#5e74ea" />
<path d="M 119.31 326.91 C 119.86 333.58 119.69 340.25 119.85 346.94 C 119.63 358.64 120.27 370.31 120.10 382.00 C 120.05 383.89 120.41 385.71 120.83 387.54 C 123.61 387.45 125.75 387.97 128.32 389.00 C 128.44 388.32 128.56 387.65 128.68 386.97 C 130.46 387.53 132.45 388.59 134.34 388.47 C 139.86 387.58 145.34 388.68 150.89 387.72 C 154.71 388.92 158.41 387.79 162.33 388.58 C 166.88 389.63 170.79 387.85 175.76 387.46 C 179.23 386.94 181.96 389.02 185.36 388.45 C 189.40 387.82 193.12 387.80 197.17 388.35 C 199.45 388.72 201.60 388.27 203.85 388.00 C 206.43 387.64 209.25 389.23 211.77 389.22 C 215.80 389.03 219.90 387.75 223.84 389.11 C 226.82 390.04 230.25 389.38 233.37 389.53 C 236.52 389.74 239.03 387.89 242.14 388.00 C 244.92 388.02 247.61 387.77 250.35 388.33 C 252.46 388.74 254.85 388.01 256.98 387.77 C 260.62 387.15 264.26 388.28 268.10 388.28 C 274.59 388.15 280.85 388.99 287.28 387.92 C 295.14 389.49 302.49 387.82 310.32 387.30 C 310.44 387.75 310.56 388.20 310.69 388.64 C 313.94 388.75 317.11 388.21 320.34 388.05 C 325.16 388.22 329.56 388.96 334.30 387.36 C 335.07 388.02 335.83 388.68 336.60 389.34 C 338.53 388.02 339.90 387.31 342.34 387.50 C 342.40 395.06 342.32 402.61 342.36 410.17 C 337.76 411.16 333.46 409.43 328.88 410.17 C 322.30 411.17 315.85 410.30 309.26 410.64 C 304.60 410.72 300.00 409.96 295.32 410.25 C 292.16 410.46 289.06 409.92 285.91 409.88 C 278.64 410.24 271.87 411.33 264.59 410.05 C 264.56 410.63 264.54 411.21 264.51 411.78 C 257.82 408.39 252.15 411.77 245.64 410.51 C 242.13 410.24 238.64 410.37 235.17 409.65 C 234.04 410.27 232.92 411.05 231.70 411.48 C 228.84 411.23 225.98 409.74 222.99 409.86 C 221.47 410.02 219.95 410.55 218.48 410.97 C 213.42 409.40 208.86 411.02 203.74 410.33 C 197.68 409.44 191.37 411.08 185.33 410.15 C 180.01 410.73 174.78 410.80 169.48 409.87 C 166.66 409.30 164.27 410.30 161.59 411.06 C 161.20 410.07 160.81 409.08 160.41 408.09 C 159.06 409.18 157.71 410.26 156.35 411.35 C 155.69 410.62 155.04 409.89 154.38 409.15 C 154.20 409.90 154.03 410.64 153.86 411.38 C 150.47 409.22 147.31 410.84 143.65 409.93 C 137.68 408.59 132.62 410.48 126.73 410.60 C 125.07 410.69 123.47 409.31 122.07 408.52 C 121.51 409.26 120.95 410.01 120.39 410.75 C 120.03 409.07 119.66 407.37 119.36 405.68 C 119.15 399.44 119.23 393.25 119.22 387.00 C 119.27 366.97 118.94 346.93 119.31 326.91 Z" fill="#8a9ef8" />
<path d="M 459.24 326.46 C 459.61 335.63 459.33 344.82 459.41 354.00 C 459.29 368.48 459.61 383.00 459.20 397.48 C 457.54 401.25 457.96 404.97 457.87 408.97 C 455.22 408.78 452.42 408.80 449.84 408.14 C 447.88 407.47 446.05 406.32 444.23 405.33 C 443.32 405.99 442.41 406.65 441.49 407.32 C 440.77 407.05 440.04 406.77 439.31 406.50 C 439.12 407.20 438.93 407.90 438.74 408.60 C 437.94 407.80 437.01 405.72 435.69 405.85 C 433.59 406.19 431.55 407.26 429.57 408.01 C 429.27 407.14 428.98 406.27 428.69 405.39 C 427.49 406.75 427.25 408.93 425.04 407.99 C 422.82 407.21 421.10 408.17 418.96 408.73 C 418.25 408.01 417.54 407.29 416.83 406.57 C 415.21 407.24 413.59 407.92 411.97 408.59 C 411.34 408.24 410.70 407.89 410.06 407.54 C 405.39 408.95 401.88 406.85 397.57 405.29 C 397.14 406.11 396.70 406.93 396.27 407.75 C 395.24 407.18 394.22 406.42 393.08 406.11 C 391.77 406.67 390.52 407.54 389.32 408.33 C 387.82 407.16 386.71 406.00 384.66 406.14 C 382.45 406.04 381.09 407.24 379.32 408.31 C 378.87 407.79 378.43 407.26 377.98 406.73 C 374.91 408.24 372.32 406.10 369.32 407.19 C 368.37 407.47 367.43 407.77 366.49 408.08 C 364.02 384.47 361.82 360.84 359.33 337.22 C 361.69 338.34 363.85 338.99 366.44 339.34 C 367.34 338.72 368.23 338.09 369.13 337.47 C 370.07 337.83 371.00 338.19 371.94 338.55 C 373.46 338.08 375.18 337.23 376.79 337.32 C 378.35 337.57 378.74 340.19 380.36 340.53 C 380.99 340.76 381.63 340.99 382.26 341.21 C 382.41 340.45 382.56 339.69 382.71 338.92 C 383.98 339.40 385.26 339.88 386.54 340.36 C 388.44 339.09 390.39 338.03 392.45 337.07 C 392.53 337.79 392.60 338.50 392.67 339.21 C 393.82 338.57 394.96 337.92 396.10 337.28 C 396.65 338.00 396.87 339.33 397.99 339.24 C 400.10 339.07 402.16 338.18 404.27 338.00 C 406.36 338.13 408.45 338.80 410.49 339.26 C 411.35 338.69 412.21 338.13 413.08 337.56 C 415.50 338.18 418.20 339.25 420.72 339.10 C 422.32 338.64 423.83 337.74 425.33 337.00 C 425.45 337.74 425.57 338.48 425.69 339.22 C 428.23 338.81 428.69 338.12 430.08 336.08 C 430.46 336.99 430.81 337.89 431.28 338.76 C 433.81 339.59 436.41 338.18 438.79 337.38 C 438.68 338.24 438.57 339.09 438.46 339.95 C 440.45 339.33 442.43 338.71 444.42 338.09 C 444.44 338.65 444.46 339.21 444.48 339.78 C 448.29 337.63 453.65 338.68 457.95 338.42 C 458.04 334.18 457.37 330.43 459.24 326.46 Z" fill="#6f88f8" />
<path d="M 78.98 330.13 L 80.55 331.54 C 80.51 335.45 79.96 338.40 77.53 341.57 C 78.26 342.18 78.98 342.78 79.71 343.39 C 79.52 343.78 79.32 344.18 79.13 344.57 C 78.03 344.05 76.92 343.54 75.81 343.04 C 76.60 344.83 77.51 346.44 78.65 348.04 C 77.86 348.99 76.79 349.90 76.29 351.04 C 76.34 352.58 76.66 354.15 76.91 355.67 C 75.87 355.20 74.83 354.73 73.79 354.25 C 74.04 356.39 74.37 358.33 73.46 360.38 C 71.41 365.04 70.05 369.86 70.11 374.99 C 70.43 377.07 67.86 378.76 66.68 380.22 C 67.26 382.14 67.62 383.77 67.07 385.77 C 66.46 389.38 63.82 391.50 62.84 394.90 C 62.13 396.99 62.72 398.93 62.97 401.08 C 61.84 401.86 60.70 402.64 59.56 403.41 C 60.37 405.85 61.18 408.28 61.99 410.71 C 60.92 410.19 59.84 409.66 58.76 409.14 C 57.78 411.68 58.55 412.97 59.32 415.35 C 58.45 417.27 56.88 418.87 55.94 420.75 C 55.96 422.71 56.15 424.67 56.15 426.64 C 55.28 426.18 54.42 425.71 53.55 425.25 C 53.96 427.13 54.43 428.97 55.15 430.76 C 54.39 430.20 53.62 429.64 52.85 429.08 C 51.75 431.43 50.89 433.23 48.55 434.58 C 49.68 435.14 50.77 435.67 51.84 436.31 C 51.46 439.12 50.36 441.82 49.78 444.59 C 49.31 444.21 48.85 443.82 48.38 443.43 C 47.45 444.46 46.45 445.50 45.66 446.65 C 45.54 447.96 46.23 449.40 46.55 450.67 C 47.45 450.65 48.35 450.63 49.25 450.61 C 48.09 453.05 46.20 454.71 44.49 456.72 C 44.14 458.63 45.54 460.93 46.18 462.68 C 45.62 462.31 45.06 461.95 44.50 461.58 C 43.40 462.66 42.31 463.74 41.21 464.82 C 42.00 465.93 42.86 467.03 43.50 468.23 C 43.67 472.75 39.01 473.84 39.36 478.39 C 38.07 478.64 36.87 478.93 35.73 479.60 C 36.84 480.04 37.95 480.46 39.06 480.87 C 38.46 484.16 37.61 486.96 35.68 489.73 C 34.01 492.09 34.21 494.55 33.64 497.27 C 33.40 498.83 31.97 500.17 31.05 501.41 C 31.73 501.49 32.42 501.57 33.11 501.66 C 32.67 502.60 32.22 503.55 31.78 504.50 C 31.99 505.27 32.21 506.05 32.42 506.82 C 31.20 507.80 29.98 508.77 28.77 509.75 C 15.73 495.51 6.62 477.84 2.48 458.99 C 1.28 453.23 0.59 447.36 0.00 441.52 L 0.00 430.16 C 0.54 424.08 1.30 417.99 2.54 412.01 C 6.92 392.16 16.82 373.60 31.05 359.05 C 44.14 345.47 60.90 335.44 78.98 330.13 Z" fill="#566ce2" />
<path d="M 1843.45 342.50 C 1851.48 340.55 1860.69 341.71 1867.67 346.29 C 1875.31 351.46 1880.32 359.55 1882.29 368.49 C 1884.38 378.08 1884.11 388.51 1880.83 397.81 C 1877.59 406.81 1871.03 414.55 1861.88 417.83 C 1851.07 421.38 1837.94 419.63 1829.83 411.16 C 1822.32 404.00 1819.29 394.14 1818.68 384.01 C 1818.24 373.52 1819.84 362.91 1826.25 354.30 C 1830.48 348.39 1836.34 344.21 1843.45 342.50 Z" fill="#ffffff" />
<path d="M 1019.19 343.17 C 1028.01 342.03 1037.12 344.24 1043.96 350.04 C 1050.89 355.72 1054.77 364.53 1056.23 373.20 C 1057.02 380.68 1056.94 388.07 1054.33 395.21 C 1051.82 402.90 1046.87 409.65 1039.99 413.97 C 1032.60 418.34 1023.49 419.58 1015.21 417.32 C 1007.12 415.32 1000.47 409.87 996.17 402.82 C 991.99 396.25 990.38 388.72 990.27 381.00 C 990.20 373.18 991.72 365.49 995.79 358.74 C 1000.67 350.27 1009.41 344.22 1019.19 343.17 Z" fill="#ffffff" />
<path d="M 1171.48 343.66 C 1180.10 341.91 1189.54 342.98 1196.81 348.21 C 1202.75 352.67 1207.42 359.06 1209.51 366.22 C 1212.22 375.54 1212.19 385.65 1209.50 394.97 C 1207.31 402.33 1202.75 408.98 1196.41 413.37 C 1185.07 420.88 1168.35 420.07 1158.28 410.71 C 1151.51 404.50 1147.99 396.01 1146.90 387.00 C 1145.76 377.27 1147.01 366.60 1152.09 358.07 C 1156.43 350.97 1163.17 345.29 1171.48 343.66 Z" fill="#ffffff" />
<path d="M 1545.61 344.03 C 1554.87 341.62 1565.47 342.93 1573.24 348.75 C 1580.59 353.86 1585.09 362.88 1586.81 371.48 C 1588.49 381.16 1587.66 391.34 1583.16 400.19 C 1580.00 406.76 1574.89 412.27 1568.23 415.38 C 1557.23 420.65 1543.25 419.01 1534.01 410.98 C 1526.65 404.66 1522.46 395.57 1521.45 386.00 C 1520.51 376.66 1521.82 366.85 1526.72 358.71 C 1530.90 351.62 1537.62 346.16 1545.61 344.03 Z" fill="#ffffff" />
<path d="M 142.27 345.83 C 144.77 346.20 147.23 346.77 149.74 347.11 C 150.33 346.75 150.93 346.40 151.52 346.05 C 151.49 346.64 151.46 347.22 151.43 347.81 C 152.39 347.41 153.35 346.86 154.38 346.69 C 161.12 347.25 167.89 345.61 174.66 345.86 C 177.58 346.15 180.47 347.33 183.42 347.50 C 185.68 347.51 187.95 346.57 190.19 346.65 C 192.37 346.81 194.61 347.59 196.69 348.23 C 197.13 347.75 197.57 347.27 198.01 346.79 C 201.04 347.32 203.99 346.47 207.02 346.98 C 209.91 347.52 212.48 346.65 215.34 346.49 C 220.20 346.11 224.73 347.84 229.62 347.63 C 233.14 347.86 236.32 346.54 239.77 347.18 C 241.93 347.64 243.73 347.07 245.74 346.35 C 246.99 346.92 248.24 347.50 249.49 348.08 C 252.21 347.46 254.97 347.33 257.71 346.84 C 262.69 345.85 268.25 346.67 273.20 347.55 C 274.92 347.08 275.76 346.93 277.47 347.56 C 281.17 346.62 284.48 345.94 288.31 346.74 C 295.12 347.11 303.38 348.43 309.74 345.75 C 310.98 346.59 311.56 347.75 313.20 347.42 C 316.55 346.93 319.51 346.52 322.80 347.52 C 323.83 347.17 324.85 346.82 325.87 346.47 C 326.46 346.71 327.05 346.94 327.63 347.18 C 328.13 346.96 328.62 346.73 329.11 346.51 C 333.70 348.31 337.60 345.76 342.35 346.62 C 342.41 360.25 342.31 373.87 342.34 387.50 C 339.90 387.31 338.53 388.02 336.60 389.34 C 335.83 388.68 335.07 388.02 334.30 387.36 C 329.56 388.96 325.16 388.22 320.34 388.05 C 317.11 388.21 313.94 388.75 310.69 388.64 C 310.56 388.20 310.44 387.75 310.32 387.30 C 302.49 387.82 295.14 389.49 287.28 387.92 C 280.85 388.99 274.59 388.15 268.10 388.28 C 264.26 388.28 260.62 387.15 256.98 387.77 C 254.85 388.01 252.46 388.74 250.35 388.33 C 247.61 387.77 244.92 388.02 242.14 388.00 C 239.03 387.89 236.52 389.74 233.37 389.53 C 230.25 389.38 226.82 390.04 223.84 389.11 C 219.90 387.75 215.80 389.03 211.77 389.22 C 209.25 389.23 206.43 387.64 203.85 388.00 C 201.60 388.27 199.45 388.72 197.17 388.35 C 193.12 387.80 189.40 387.82 185.36 388.45 C 181.96 389.02 179.23 386.94 175.76 387.46 C 170.79 387.85 166.88 389.63 162.33 388.58 C 158.41 387.79 154.71 388.92 150.89 387.72 C 145.34 388.68 139.86 387.58 134.34 388.47 C 132.45 388.59 130.46 387.53 128.68 386.97 C 128.56 387.65 128.44 388.32 128.32 389.00 C 125.75 387.97 123.61 387.45 120.83 387.54 C 120.41 385.71 120.05 383.89 120.10 382.00 C 120.27 370.31 119.63 358.64 119.85 346.94 C 124.95 345.90 130.02 346.17 135.19 346.37 C 136.53 346.43 137.70 346.89 138.96 347.28 C 140.06 346.79 141.16 346.28 142.27 345.83 Z" fill="#95a7f8" />
<path d="M 656.86 361.69 C 657.40 391.07 650.96 420.44 637.69 446.69 C 624.10 473.80 603.53 497.40 578.45 514.45 C 553.85 531.30 524.94 541.95 495.26 544.90 C 494.96 538.30 494.38 531.72 493.90 525.13 C 493.87 522.35 494.12 519.58 494.51 516.82 C 495.33 520.93 494.95 525.07 496.01 529.12 C 497.69 526.73 499.11 524.16 500.83 521.79 C 502.23 519.78 505.02 519.65 506.45 517.56 C 507.74 515.81 508.81 514.71 510.65 513.57 C 512.79 512.51 512.22 509.46 514.13 508.11 C 515.70 506.86 517.44 505.82 519.11 504.72 C 519.56 502.69 520.15 500.72 520.85 498.76 C 522.83 499.28 524.73 499.19 526.76 498.99 C 526.16 497.84 525.56 496.69 524.95 495.55 C 527.14 496.23 529.08 496.09 531.29 495.66 C 530.91 492.43 532.64 491.38 534.66 489.30 C 533.81 489.06 532.97 488.82 532.12 488.58 C 534.13 486.64 535.94 484.82 538.73 484.10 C 538.57 483.30 538.42 482.50 538.26 481.71 C 540.67 480.78 542.86 479.72 544.70 477.86 C 545.26 477.71 545.82 477.55 546.38 477.39 C 547.61 473.56 550.52 471.79 553.46 469.43 C 553.13 468.39 552.80 467.35 552.47 466.32 C 554.78 462.40 558.30 461.97 562.29 460.62 C 562.68 458.59 563.39 456.88 564.38 455.08 C 564.80 456.02 565.22 456.96 565.63 457.89 C 565.85 456.86 566.08 455.83 566.30 454.80 C 566.72 454.62 567.14 454.44 567.56 454.25 C 567.64 453.30 567.73 452.34 567.82 451.38 C 568.53 451.76 569.25 452.14 569.97 452.51 C 570.52 451.99 571.07 451.47 571.61 450.95 C 571.20 450.32 570.78 449.69 570.36 449.06 C 571.79 449.02 573.21 448.98 574.64 448.93 C 574.31 448.45 573.97 447.96 573.63 447.47 C 574.50 445.02 574.85 442.99 577.35 441.73 C 577.38 440.84 577.41 439.94 577.44 439.04 C 578.10 439.11 578.76 439.19 579.42 439.26 C 579.90 440.20 580.39 441.13 580.88 442.07 C 581.24 440.48 581.52 438.89 581.69 437.27 C 582.67 437.11 583.65 436.95 584.64 436.79 C 584.23 436.26 583.81 435.73 583.40 435.20 C 585.74 433.62 588.14 432.16 589.87 429.87 C 591.31 427.95 592.30 425.53 593.27 423.34 C 594.97 423.59 596.65 423.91 598.29 424.41 C 597.66 423.28 597.05 422.15 596.44 421.02 C 597.54 420.80 598.64 420.58 599.74 420.36 C 599.51 419.21 599.27 418.06 599.03 416.91 C 600.41 415.77 601.79 414.65 603.20 413.55 C 603.96 414.01 604.74 414.45 605.51 414.87 C 606.44 413.30 606.85 411.37 607.61 409.70 C 608.26 408.41 609.93 408.47 611.14 408.09 C 610.16 407.51 609.19 406.92 608.21 406.34 C 610.12 406.03 612.00 405.60 613.87 405.08 C 613.77 403.73 613.66 402.38 613.56 401.03 C 615.32 400.55 617.07 400.06 618.82 399.57 C 617.94 399.21 617.06 398.84 616.18 398.48 C 616.53 398.03 616.88 397.59 617.24 397.14 C 618.58 398.01 619.94 398.88 621.30 399.72 C 621.24 398.10 620.98 396.55 620.60 394.97 C 624.29 392.29 627.63 388.99 630.40 385.38 C 632.25 383.00 634.79 381.91 636.91 379.90 C 638.05 378.43 638.56 376.41 639.23 374.70 C 640.52 375.14 641.76 375.64 643.00 376.20 C 642.51 374.91 642.01 373.62 641.51 372.33 C 643.84 371.48 646.18 370.65 648.53 369.86 C 648.24 369.40 647.96 368.94 647.67 368.49 C 648.78 366.34 649.76 364.06 651.13 362.07 C 652.95 361.02 654.88 361.52 656.86 361.69 Z" fill="#8598ff" />
<path d="M 459.20 397.48 C 459.56 409.74 459.51 422.22 459.21 434.49 C 456.85 440.61 458.58 447.97 457.89 454.51 C 456.48 454.65 455.07 454.78 453.66 454.92 C 453.56 454.30 453.45 453.67 453.35 453.05 C 451.72 453.81 450.08 454.58 448.45 455.34 C 447.08 454.96 445.71 454.58 444.34 454.21 C 443.74 454.48 443.15 454.75 442.55 455.03 C 441.08 454.97 440.03 455.13 438.63 455.57 C 438.19 454.77 437.75 453.97 437.31 453.17 C 437.06 454.48 436.80 455.79 436.55 457.10 C 435.74 456.25 434.96 455.33 434.06 454.57 C 432.18 454.26 430.11 454.68 428.22 454.82 C 427.59 454.38 426.95 453.94 426.32 453.50 C 426.04 454.18 425.77 454.85 425.50 455.53 C 421.33 455.66 417.24 456.54 413.09 456.82 C 412.23 456.24 411.42 455.58 410.60 454.94 C 407.90 455.93 406.06 455.61 403.37 454.81 C 401.33 455.46 399.28 456.11 397.23 456.74 C 396.36 455.73 395.49 454.72 394.62 453.70 C 393.48 454.46 392.11 455.95 390.65 455.86 C 388.97 455.72 387.32 454.85 385.75 454.25 C 384.96 454.97 384.18 455.69 383.39 456.41 C 381.76 455.12 380.11 454.10 378.24 453.19 C 378.14 454.22 378.04 455.25 377.94 456.28 C 375.70 455.54 373.60 455.90 371.30 456.21 C 369.54 440.18 368.04 424.14 366.49 408.08 C 367.43 407.77 368.37 407.47 369.32 407.19 C 372.32 406.10 374.91 408.24 377.98 406.73 C 378.43 407.26 378.87 407.79 379.32 408.31 C 381.09 407.24 382.45 406.04 384.66 406.14 C 386.71 406.00 387.82 407.16 389.32 408.33 C 390.52 407.54 391.77 406.67 393.08 406.11 C 394.22 406.42 395.24 407.18 396.27 407.75 C 396.70 406.93 397.14 406.11 397.57 405.29 C 401.88 406.85 405.39 408.95 410.06 407.54 C 410.70 407.89 411.34 408.24 411.97 408.59 C 413.59 407.92 415.21 407.24 416.83 406.57 C 417.54 407.29 418.25 408.01 418.96 408.73 C 421.10 408.17 422.82 407.21 425.04 407.99 C 427.25 408.93 427.49 406.75 428.69 405.39 C 428.98 406.27 429.27 407.14 429.57 408.01 C 431.55 407.26 433.59 406.19 435.69 405.85 C 437.01 405.72 437.94 407.80 438.74 408.60 C 438.93 407.90 439.12 407.20 439.31 406.50 C 440.04 406.77 440.77 407.05 441.49 407.32 C 442.41 406.65 443.32 405.99 444.23 405.33 C 446.05 406.32 447.88 407.47 449.84 408.14 C 452.42 408.80 455.22 408.78 457.87 408.97 C 457.96 404.97 457.54 401.25 459.20 397.48 Z" fill="#6681f7" />
<path d="M 119.36 405.68 C 119.66 407.37 120.03 409.07 120.39 410.75 C 120.95 410.01 121.51 409.26 122.07 408.52 C 123.47 409.31 125.07 410.69 126.73 410.60 C 132.62 410.48 137.68 408.59 143.65 409.93 C 147.31 410.84 150.47 409.22 153.86 411.38 C 154.03 410.64 154.20 409.90 154.38 409.15 C 155.04 409.89 155.69 410.62 156.35 411.35 C 157.71 410.26 159.06 409.18 160.41 408.09 C 160.81 409.08 161.20 410.07 161.59 411.06 C 164.27 410.30 166.66 409.30 169.48 409.87 C 174.78 410.80 180.01 410.73 185.33 410.15 C 191.37 411.08 197.68 409.44 203.74 410.33 C 208.86 411.02 213.42 409.40 218.48 410.97 C 219.95 410.55 221.47 410.02 222.99 409.86 C 225.98 409.74 228.84 411.23 231.70 411.48 C 232.92 411.05 234.04 410.27 235.17 409.65 C 238.64 410.37 242.13 410.24 245.64 410.51 C 252.15 411.77 257.82 408.39 264.51 411.78 C 264.54 411.21 264.56 410.63 264.59 410.05 C 271.87 411.33 278.64 410.24 285.91 409.88 C 289.06 409.92 292.16 410.46 295.32 410.25 C 300.00 409.96 304.60 410.72 309.26 410.64 C 315.85 410.30 322.30 411.17 328.88 410.17 C 333.46 409.43 337.76 411.16 342.36 410.17 C 342.41 420.40 342.32 430.64 342.36 440.88 C 337.80 441.02 333.54 441.66 329.00 440.90 C 324.57 439.96 320.53 441.22 316.08 441.14 C 311.25 441.45 307.10 439.70 302.32 440.66 C 300.24 441.13 298.33 440.57 296.26 440.56 C 295.21 441.08 294.24 441.79 293.27 442.44 C 293.02 441.79 292.78 441.13 292.53 440.47 C 288.97 440.50 285.54 439.92 282.04 440.29 C 279.36 440.56 276.75 440.20 274.08 440.17 C 271.87 440.23 269.84 441.33 267.63 441.16 C 265.54 441.01 263.44 440.46 261.40 439.99 C 257.60 439.54 254.06 440.92 250.23 440.13 C 246.93 440.68 244.65 440.68 241.37 440.13 C 237.89 440.47 234.39 440.39 230.93 440.89 C 229.62 441.16 228.47 440.78 227.20 440.54 C 226.38 440.92 225.56 441.31 224.74 441.70 C 222.42 440.86 220.28 440.04 217.76 440.56 C 215.04 441.11 212.45 440.84 209.73 440.52 C 204.65 439.93 200.05 441.85 194.97 441.37 C 188.58 440.70 181.31 439.64 175.02 441.38 C 172.33 440.38 170.30 440.98 167.66 441.78 C 167.54 441.22 167.41 440.65 167.29 440.08 C 165.61 440.51 163.91 441.02 162.18 441.26 C 159.58 441.48 157.55 438.77 155.02 440.05 C 151.48 441.45 147.90 440.08 144.24 441.17 C 141.75 442.03 139.91 440.54 137.52 439.93 C 133.31 440.60 129.20 439.78 125.09 440.99 C 123.44 441.53 121.50 440.42 119.90 439.99 C 119.89 437.22 119.56 434.48 119.30 431.73 C 119.39 426.68 119.27 421.71 118.93 416.67 C 118.99 413.01 119.31 409.35 119.36 405.68 Z" fill="#8096f7" />
<path d="M 118.93 416.67 C 119.27 421.71 119.39 426.68 119.30 431.73 C 118.30 452.45 119.24 473.30 118.97 494.04 C 118.99 503.37 119.08 512.68 118.88 522.00 C 118.82 528.16 118.56 534.26 119.34 540.39 C 119.21 542.13 119.09 543.87 118.98 545.62 C 105.94 545.77 93.34 545.27 80.72 541.62 C 81.76 539.71 82.80 537.79 83.85 535.87 C 84.61 535.63 85.37 535.38 86.13 535.14 C 85.52 534.07 84.91 533.00 84.31 531.93 C 86.08 530.71 86.91 529.10 87.72 527.15 C 87.15 525.86 86.47 524.53 86.17 523.14 C 87.17 520.75 88.70 518.77 89.20 516.20 C 89.78 513.27 89.92 510.24 90.25 507.28 C 91.57 506.18 94.89 505.06 94.65 503.00 C 94.77 501.56 93.13 500.89 92.23 499.98 C 93.56 497.66 95.56 496.31 93.92 493.47 C 94.73 491.82 95.56 490.18 96.39 488.54 C 96.94 488.92 97.48 489.30 98.03 489.68 C 98.45 489.01 98.87 488.35 99.30 487.68 C 98.17 487.17 97.10 486.60 96.03 485.98 C 96.26 485.59 96.49 485.21 96.72 484.82 C 97.92 484.54 99.13 484.26 100.33 483.98 C 99.09 481.28 99.32 479.37 100.02 476.53 C 100.93 476.59 101.84 476.65 102.75 476.72 C 102.01 475.27 101.08 473.81 100.63 472.25 C 100.55 470.82 101.16 469.31 101.46 467.92 C 101.78 469.26 102.10 470.61 102.42 471.95 C 103.10 470.47 103.92 469.24 103.98 467.57 C 103.99 464.10 105.85 461.66 107.30 458.65 C 107.10 457.91 106.89 457.17 106.69 456.43 C 107.72 455.46 108.76 454.49 109.80 453.51 C 108.98 452.72 108.17 451.93 107.36 451.13 C 108.13 448.65 108.13 447.74 107.57 445.26 C 108.04 443.58 109.25 442.08 109.98 440.48 C 111.04 438.30 110.94 436.18 113.05 434.65 C 113.54 432.13 114.22 429.86 115.30 427.52 C 114.89 426.89 114.48 426.26 114.07 425.64 C 114.85 425.50 115.62 425.36 116.40 425.21 C 116.60 421.84 116.20 419.19 118.93 416.67 Z" fill="#657af0" />
<path d="M 119.30 431.73 C 119.56 434.48 119.89 437.22 119.90 439.99 C 119.71 450.96 120.14 461.95 120.26 472.92 C 121.70 473.47 123.24 474.17 124.78 474.34 C 127.49 474.43 129.89 472.51 132.49 473.16 C 135.25 473.59 137.99 474.48 140.66 475.27 C 141.99 474.65 143.34 473.87 144.77 473.51 C 153.22 475.06 162.24 474.64 170.74 473.92 C 176.40 474.48 182.53 475.59 188.30 474.73 C 193.56 474.57 198.26 473.79 203.08 475.15 C 206.50 474.08 209.72 474.74 213.34 474.41 C 216.07 474.16 218.25 475.64 220.97 474.94 C 224.45 474.11 227.89 475.09 231.35 474.32 C 234.36 473.45 237.00 474.70 240.07 474.43 C 245.02 474.21 249.61 474.99 254.48 473.75 C 256.37 473.26 258.14 473.57 260.02 473.94 C 264.23 474.85 268.37 473.86 272.67 474.31 C 276.03 474.66 278.90 473.14 282.22 473.84 C 285.37 474.47 288.45 473.69 291.63 474.39 C 294.43 474.82 295.51 474.44 297.67 472.76 C 299.27 473.59 300.87 474.44 302.47 475.27 C 304.72 474.52 306.83 473.70 309.24 473.69 C 317.05 473.89 324.42 474.52 332.17 473.72 C 336.01 474.53 338.56 474.27 342.36 473.18 C 342.39 481.19 342.33 489.20 342.36 497.22 C 337.88 497.16 333.45 496.56 328.97 496.66 C 325.23 496.59 321.74 497.57 317.98 496.93 C 312.39 496.00 306.95 497.10 301.33 496.64 C 297.01 496.26 292.81 496.88 288.51 497.13 L 288.48 497.12 C 285.67 496.75 283.05 497.39 280.27 497.52 C 272.20 497.04 263.99 496.34 255.95 496.79 C 254.52 496.86 253.47 496.18 252.20 495.65 C 252.00 496.32 251.80 496.99 251.60 497.66 C 248.39 497.15 244.62 495.20 241.50 496.30 C 238.12 497.06 234.68 497.54 231.26 498.10 C 229.57 498.39 227.65 497.49 226.02 497.10 C 224.67 497.62 223.23 498.47 221.76 498.59 C 220.15 497.95 218.68 496.60 217.00 496.25 C 212.42 496.28 207.85 497.14 203.26 497.25 C 200.30 497.27 197.31 496.72 194.36 496.88 C 192.28 497.01 190.19 497.62 188.12 497.28 C 185.42 496.85 182.93 496.15 180.16 496.31 C 176.94 496.42 174.23 497.45 171.00 496.98 C 167.55 496.50 164.16 497.62 160.62 497.52 C 155.77 497.85 151.07 496.66 146.24 496.89 C 140.94 496.41 135.12 497.93 129.60 496.80 C 129.12 496.97 128.65 497.14 128.17 497.31 C 126.16 497.16 124.07 497.26 122.09 496.88 C 120.89 496.21 119.94 495.01 118.97 494.04 C 119.24 473.30 118.30 452.45 119.30 431.73 Z" fill="#6b84f6" />
<path d="M 459.21 434.49 C 459.40 438.33 459.49 442.16 459.43 446.00 C 459.38 479.02 459.42 512.03 459.32 545.05 C 438.55 545.21 417.77 545.02 397.00 545.08 C 392.37 545.14 387.66 544.80 383.05 545.25 C 382.07 545.49 381.08 545.74 380.10 546.00 L 340.98 546.00 L 342.33 545.75 C 346.71 544.86 351.51 545.39 356.00 545.29 C 364.05 545.22 372.11 545.46 380.15 545.16 C 379.43 537.37 378.60 529.59 377.75 521.81 C 375.85 499.92 373.14 478.11 371.30 456.21 C 373.60 455.90 375.70 455.54 377.94 456.28 C 378.04 455.25 378.14 454.22 378.24 453.19 C 380.11 454.10 381.76 455.12 383.39 456.41 C 384.18 455.69 384.96 454.97 385.75 454.25 C 387.32 454.85 388.97 455.72 390.65 455.86 C 392.11 455.95 393.48 454.46 394.62 453.70 C 395.49 454.72 396.36 455.73 397.23 456.74 C 399.28 456.11 401.33 455.46 403.37 454.81 C 406.06 455.61 407.90 455.93 410.60 454.94 C 411.42 455.58 412.23 456.24 413.09 456.82 C 417.24 456.54 421.33 455.66 425.50 455.53 C 425.77 454.85 426.04 454.18 426.32 453.50 C 426.95 453.94 427.59 454.38 428.22 454.82 C 430.11 454.68 432.18 454.26 434.06 454.57 C 434.96 455.33 435.74 456.25 436.55 457.10 C 436.80 455.79 437.06 454.48 437.31 453.17 C 437.75 453.97 438.19 454.77 438.63 455.57 C 440.03 455.13 441.08 454.97 442.55 455.03 C 443.15 454.75 443.74 454.48 444.34 454.21 C 445.71 454.58 447.08 454.96 448.45 455.34 C 450.08 454.58 451.72 453.81 453.35 453.05 C 453.45 453.67 453.56 454.30 453.66 454.92 C 455.07 454.78 456.48 454.65 457.89 454.51 C 458.58 447.97 456.85 440.61 459.21 434.49 Z" fill="#5c78f5" />
<path d="M 137.52 439.93 C 139.91 440.54 141.75 442.03 144.24 441.17 C 147.90 440.08 151.48 441.45 155.02 440.05 C 157.55 438.77 159.58 441.48 162.18 441.26 C 163.91 441.02 165.61 440.51 167.29 440.08 C 167.41 440.65 167.54 441.22 167.66 441.78 C 170.30 440.98 172.33 440.38 175.02 441.38 C 181.31 439.64 188.58 440.70 194.97 441.37 C 200.05 441.85 204.65 439.93 209.73 440.52 C 212.45 440.84 215.04 441.11 217.76 440.56 C 220.28 440.04 222.42 440.86 224.74 441.70 C 225.56 441.31 226.38 440.92 227.20 440.54 C 228.47 440.78 229.62 441.16 230.93 440.89 C 234.39 440.39 237.89 440.47 241.37 440.13 C 244.65 440.68 246.93 440.68 250.23 440.13 C 254.06 440.92 257.60 439.54 261.40 439.99 C 263.44 440.46 265.54 441.01 267.63 441.16 C 269.84 441.33 271.87 440.23 274.08 440.17 C 276.75 440.20 279.36 440.56 282.04 440.29 C 285.54 439.92 288.97 440.50 292.53 440.47 C 292.78 441.13 293.02 441.79 293.27 442.44 C 294.24 441.79 295.21 441.08 296.26 440.56 C 298.33 440.57 300.24 441.13 302.32 440.66 C 307.10 439.70 311.25 441.45 316.08 441.14 C 320.53 441.22 324.57 439.96 329.00 440.90 C 333.54 441.66 337.80 441.02 342.36 440.88 C 342.41 451.65 342.31 462.41 342.36 473.18 C 338.56 474.27 336.01 474.53 332.17 473.72 C 324.42 474.52 317.05 473.89 309.24 473.69 C 306.83 473.70 304.72 474.52 302.47 475.27 C 300.87 474.44 299.27 473.59 297.67 472.76 C 295.51 474.44 294.43 474.82 291.63 474.39 C 288.45 473.69 285.37 474.47 282.22 473.84 C 278.90 473.14 276.03 474.66 272.67 474.31 C 268.37 473.86 264.23 474.85 260.02 473.94 C 258.14 473.57 256.37 473.26 254.48 473.75 C 249.61 474.99 245.02 474.21 240.07 474.43 C 237.00 474.70 234.36 473.45 231.35 474.32 C 227.89 475.09 224.45 474.11 220.97 474.94 C 218.25 475.64 216.07 474.16 213.34 474.41 C 209.72 474.74 206.50 474.08 203.08 475.15 C 198.26 473.79 193.56 474.57 188.30 474.73 C 182.53 475.59 176.40 474.48 170.74 473.92 C 162.24 474.64 153.22 475.06 144.77 473.51 C 143.34 473.87 141.99 474.65 140.66 475.27 C 137.99 474.48 135.25 473.59 132.49 473.16 C 129.89 472.51 127.49 474.43 124.78 474.34 C 123.24 474.17 121.70 473.47 120.26 472.92 C 120.14 461.95 119.71 450.96 119.90 439.99 C 121.50 440.42 123.44 441.53 125.09 440.99 C 129.20 439.78 133.31 440.60 137.52 439.93 Z" fill="#758cf6" />
<path d="M 0.00 441.52 C 0.59 447.36 1.28 453.23 2.48 458.99 C 6.62 477.84 15.73 495.51 28.77 509.75 C 42.66 525.07 60.81 536.11 80.72 541.62 C 93.34 545.27 105.94 545.77 118.98 545.62 C 177.64 545.84 236.33 545.60 295.00 545.74 C 310.77 545.87 326.56 545.88 342.33 545.75 L 340.98 546.00 L 0.00 546.00 L 0.00 441.52 Z" fill="#ffffff" />
<path d="M 118.97 494.04 C 119.94 495.01 120.89 496.21 122.09 496.88 C 124.07 497.26 126.16 497.16 128.17 497.31 C 128.65 497.14 129.12 496.97 129.60 496.80 C 135.12 497.93 140.94 496.41 146.24 496.89 C 151.07 496.66 155.77 497.85 160.62 497.52 C 164.16 497.62 167.55 496.50 171.00 496.98 C 174.23 497.45 176.94 496.42 180.16 496.31 C 182.93 496.15 185.42 496.85 188.12 497.28 C 190.19 497.62 192.28 497.01 194.36 496.88 C 197.31 496.72 200.30 497.27 203.26 497.25 C 207.85 497.14 212.42 496.28 217.00 496.25 C 218.68 496.60 220.15 497.95 221.76 498.59 C 223.23 498.47 224.67 497.62 226.02 497.10 C 227.65 497.49 229.57 498.39 231.26 498.10 C 234.68 497.54 238.12 497.06 241.50 496.30 C 244.62 495.20 248.39 497.15 251.60 497.66 C 251.80 496.99 252.00 496.32 252.20 495.65 C 253.47 496.18 254.52 496.86 255.95 496.79 C 263.99 496.34 272.20 497.04 280.27 497.52 C 283.05 497.39 285.67 496.75 288.48 497.12 L 288.51 497.13 C 292.81 496.88 297.01 496.26 301.33 496.64 C 306.95 497.10 312.39 496.00 317.98 496.93 C 321.74 497.57 325.23 496.59 328.97 496.66 C 333.45 496.56 337.88 497.16 342.36 497.22 C 342.41 505.47 342.31 513.71 342.35 521.96 C 341.29 521.41 340.22 520.86 339.15 520.32 C 336.58 521.18 334.34 521.59 331.63 521.41 C 331.55 521.88 331.47 522.35 331.40 522.82 C 326.21 519.91 321.06 522.61 315.44 520.66 C 314.54 521.30 313.65 522.05 312.65 522.53 C 309.99 522.12 307.42 521.46 304.71 521.38 C 303.45 521.39 302.73 520.62 301.63 520.12 L 301.40 520.03 C 296.20 521.20 291.15 521.04 285.87 521.13 C 280.94 521.37 275.93 521.38 271.01 520.82 C 270.51 521.33 270.01 521.85 269.51 522.36 C 266.71 521.60 264.13 521.67 261.29 521.84 C 256.06 521.50 250.85 521.71 245.64 520.98 C 245.56 521.61 245.49 522.23 245.41 522.85 C 243.62 522.08 241.91 521.29 240.01 520.86 C 237.64 520.45 234.92 521.21 232.59 521.68 C 232.00 522.26 231.41 522.85 230.82 523.43 C 228.51 521.03 226.74 521.46 223.72 521.94 C 219.86 522.65 216.41 521.77 212.61 521.72 C 209.80 521.62 207.50 522.91 204.67 522.39 C 200.87 521.76 197.11 521.26 193.25 521.49 C 190.02 521.46 186.87 522.57 183.68 522.45 C 179.08 521.74 174.67 520.88 170.02 522.02 C 167.23 522.88 164.66 520.89 161.74 521.73 C 154.69 523.06 148.04 520.68 141.11 522.24 C 141.02 521.68 140.92 521.11 140.82 520.54 C 139.25 521.25 137.46 522.19 135.72 522.28 C 133.50 522.26 131.15 521.32 129.05 520.66 C 126.14 521.77 123.26 521.48 120.23 521.28 C 119.91 527.77 120.71 533.97 119.34 540.39 C 118.56 534.26 118.82 528.16 118.88 522.00 C 119.08 512.68 118.99 503.37 118.97 494.04 Z" fill="#627df5" />
<path d="M 301.40 520.03 L 301.63 520.12 C 302.73 520.62 303.45 521.39 304.71 521.38 C 307.42 521.46 309.99 522.12 312.65 522.53 C 313.65 522.05 314.54 521.30 315.44 520.66 C 321.06 522.61 326.21 519.91 331.40 522.82 C 331.47 522.35 331.55 521.88 331.63 521.41 C 334.34 521.59 336.58 521.18 339.15 520.32 C 340.22 520.86 341.29 521.41 342.35 521.96 C 342.40 529.89 342.32 537.82 342.33 545.75 C 326.56 545.88 310.77 545.87 295.00 545.74 C 236.33 545.60 177.64 545.84 118.98 545.62 C 119.09 543.87 119.21 542.13 119.34 540.39 C 120.71 533.97 119.91 527.77 120.23 521.28 C 123.26 521.48 126.14 521.77 129.05 520.66 C 131.15 521.32 133.50 522.26 135.72 522.28 C 137.46 522.19 139.25 521.25 140.82 520.54 C 140.92 521.11 141.02 521.68 141.11 522.24 C 148.04 520.68 154.69 523.06 161.74 521.73 C 164.66 520.89 167.23 522.88 170.02 522.02 C 174.67 520.88 179.08 521.74 183.68 522.45 C 186.87 522.57 190.02 521.46 193.25 521.49 C 197.11 521.26 200.87 521.76 204.67 522.39 C 207.50 522.91 209.80 521.62 212.61 521.72 C 216.41 521.77 219.86 522.65 223.72 521.94 C 226.74 521.46 228.51 521.03 230.82 523.43 C 231.41 522.85 232.00 522.26 232.59 521.68 C 234.92 521.21 237.64 520.45 240.01 520.86 C 241.91 521.29 243.62 522.08 245.41 522.85 C 245.49 522.23 245.56 521.61 245.64 520.98 C 250.85 521.71 256.06 521.50 261.29 521.84 C 264.13 521.67 266.71 521.60 269.51 522.36 C 270.01 521.85 270.51 521.33 271.01 520.82 C 275.93 521.38 280.94 521.37 285.87 521.13 C 291.15 521.04 296.20 521.20 301.40 520.03 Z" fill="#5976f5" />
<path d="M 383.05 545.25 C 387.66 544.80 392.37 545.14 397.00 545.08 C 417.77 545.02 438.55 545.21 459.32 545.05 L 459.32 546.00 L 380.10 546.00 C 381.08 545.74 382.07 545.49 383.05 545.25 Z" fill="#728af7" />
</svg>