<?xml version="1.0" encoding="UTF-8" standalone="no"?>
<!DOCTYPE svg PUBLIC "-//W3C//DTD SVG 1.1//EN" "http://www.w3.org/Graphics/SVG/1.1/DTD/svg11.dtd">
<svg xmlns="http://www.w3.org/2000/svg" version="1.1" viewBox="0 0 586 183" width="586.0pt" height="183.0pt">
<path d="M 0.00 0.00 L 473.12 0.00 C 467.02 0.54 461.23 2.41 456.80 6.80 C 448.32 14.64 445.18 25.61 442.82 36.53 C 439.23 56.25 439.94 76.20 442.67 95.98 C 442.65 100.73 438.96 105.65 436.35 109.44 C 428.61 118.67 418.31 126.71 406.75 130.44 C 400.52 132.54 393.40 133.33 386.98 131.73 C 379.43 129.69 373.51 124.90 369.56 118.19 C 373.53 116.25 377.43 114.19 381.53 112.52 C 386.67 110.45 391.35 107.51 396.51 105.50 C 401.69 103.46 406.37 100.56 411.49 98.40 C 417.48 95.97 423.10 92.78 429.07 90.29 C 425.58 79.46 418.69 68.31 408.85 62.21 C 401.53 57.02 391.81 55.03 382.97 55.82 C 373.17 56.90 363.90 60.95 356.26 67.15 C 348.62 73.59 343.49 83.01 341.90 92.85 C 338.88 111.85 346.86 132.17 362.99 143.01 C 364.78 144.16 366.68 145.15 368.50 146.25 C 381.53 152.44 396.35 153.24 410.23 149.67 C 425.84 145.52 440.16 136.72 449.01 122.93 C 451.89 129.25 454.05 135.84 458.66 141.40 C 461.90 145.19 465.36 148.93 470.19 150.60 C 477.41 153.30 485.87 151.80 491.78 146.89 C 498.72 141.36 503.43 132.65 506.58 124.49 C 509.01 118.66 511.08 112.59 512.54 106.44 C 516.20 121.78 521.40 136.26 531.37 148.70 C 530.02 152.73 528.86 156.84 526.36 160.35 C 524.93 162.41 522.32 163.00 519.99 163.32 C 515.71 163.69 511.37 163.46 507.08 163.45 C 506.91 169.71 507.03 175.98 507.00 182.24 C 515.74 181.88 525.99 183.41 534.21 180.38 C 542.09 177.44 545.89 170.42 549.08 163.15 C 555.92 144.12 562.06 124.85 568.82 105.79 C 572.09 96.38 575.14 86.90 578.42 77.49 C 580.85 70.12 583.77 62.87 585.86 55.40 C 577.93 55.65 569.98 55.38 562.04 55.55 C 554.45 78.25 547.37 101.12 539.90 123.85 C 535.96 119.28 534.11 113.93 532.39 108.26 C 527.68 91.26 525.78 72.94 523.22 55.48 C 516.35 55.51 509.48 55.51 502.61 55.48 C 500.30 75.06 498.04 94.01 492.20 112.96 C 489.76 119.61 487.92 125.63 482.55 130.60 C 480.92 132.21 478.99 132.31 476.90 132.98 C 473.23 130.22 471.95 126.09 470.27 121.96 C 468.01 115.16 466.17 108.09 464.79 101.06 C 466.65 97.90 468.37 94.66 470.27 91.52 C 470.77 90.52 471.25 89.50 471.72 88.48 C 472.07 87.83 472.42 87.17 472.76 86.51 C 473.09 85.85 473.42 85.18 473.75 84.51 C 474.09 83.85 474.43 83.18 474.77 82.52 C 478.93 73.27 482.95 63.72 485.75 53.97 C 489.06 42.09 492.37 28.34 490.44 16.01 C 489.19 8.32 483.93 0.96 475.69 0.09 L 474.81 0.00 L 586.00 0.00 L 586.00 183.00 L 270.50 183.00 C 270.53 168.26 270.45 153.51 270.54 138.77 C 274.10 142.83 276.89 146.83 282.02 149.16 C 292.75 153.52 305.88 152.76 315.88 146.83 C 319.68 144.68 322.56 141.64 325.49 138.48 C 334.16 127.97 336.77 114.30 336.41 100.99 C 336.29 89.77 332.67 78.10 325.76 69.21 C 315.71 56.44 297.32 52.10 282.43 58.31 C 277.48 60.16 273.93 64.91 270.45 68.73 C 270.53 64.32 270.50 59.91 270.49 55.50 C 263.16 55.50 255.83 55.50 248.50 55.50 C 248.49 98.00 248.50 140.50 248.50 183.00 L 0.00 183.00 L 0.00 152.00 C 7.83 152.00 15.65 152.00 23.48 152.00 C 23.58 135.22 23.38 118.43 23.58 101.66 C 33.72 101.87 43.86 101.68 54.00 101.76 C 62.98 101.82 71.76 99.40 79.02 94.03 C 87.36 87.82 92.23 77.30 92.60 66.99 C 93.16 57.51 91.41 46.43 84.91 39.08 C 81.96 35.34 78.03 33.22 73.85 31.13 C 66.56 27.49 57.95 27.25 50.00 26.99 C 33.34 27.01 16.67 26.99 0.00 27.00 L 0.00 0.00 Z" fill="#ffffff" />
<path d="M 473.12 0.00 L 474.81 0.00 L 475.69 0.09 C 483.93 0.96 489.19 8.32 490.44 16.01 C 492.37 28.34 489.06 42.09 485.75 53.97 C 482.95 63.72 478.93 73.27 474.77 82.52 C 474.43 83.18 474.09 83.85 473.75 84.51 C 473.42 85.18 473.09 85.85 472.76 86.51 C 472.42 87.17 472.07 87.83 471.72 88.48 C 471.25 89.50 470.77 90.52 470.27 91.52 C 468.37 94.66 466.65 97.90 464.79 101.06 C 466.17 108.09 468.01 115.16 470.27 121.96 C 471.95 126.09 473.23 130.22 476.90 132.98 C 478.99 132.31 480.92 132.21 482.55 130.60 C 487.92 125.63 489.76 119.61 492.20 112.96 C 498.04 94.01 500.30 75.06 502.61 55.48 C 509.48 55.51 516.35 55.51 523.22 55.48 C 525.78 72.94 527.68 91.26 532.39 108.26 C 534.11 113.93 535.96 119.28 539.90 123.85 C 547.37 101.12 554.45 78.25 562.04 55.55 C 569.98 55.38 577.93 55.65 585.86 55.40 C 583.77 62.87 580.85 70.12 578.42 77.49 C 575.14 86.90 572.09 96.38 568.82 105.79 C 562.06 124.85 555.92 144.12 549.08 163.15 C 545.89 170.42 542.09 177.44 534.21 180.38 C 525.99 183.41 515.74 181.88 507.00 182.24 C 507.03 175.98 506.91 169.71 507.08 163.45 C 511.37 163.46 515.71 163.69 519.99 163.32 C 522.32 163.00 524.93 162.41 526.36 160.35 C 528.86 156.84 530.02 152.73 531.37 148.70 C 521.40 136.26 516.20 121.78 512.54 106.44 C 511.08 112.59 509.01 118.66 506.58 124.49 C 503.43 132.65 498.72 141.36 491.78 146.89 C 485.87 151.80 477.41 153.30 470.19 150.60 C 465.36 148.93 461.90 145.19 458.66 141.40 C 454.05 135.84 451.89 129.25 449.01 122.93 C 440.16 136.72 425.84 145.52 410.23 149.67 C 396.35 153.24 381.53 152.44 368.50 146.25 C 366.68 145.15 364.78 144.16 362.99 143.01 C 346.86 132.17 338.88 111.85 341.90 92.85 C 343.49 83.01 348.62 73.59 356.26 67.15 C 363.90 60.95 373.17 56.90 382.97 55.82 C 391.81 55.03 401.53 57.02 408.85 62.21 C 418.69 68.31 425.58 79.46 429.07 90.29 C 423.10 92.78 417.48 95.97 411.49 98.40 C 406.37 100.56 401.69 103.46 396.51 105.50 C 391.35 107.51 386.67 110.45 381.53 112.52 C 377.43 114.19 373.53 116.25 369.56 118.19 C 373.51 124.90 379.43 129.69 386.98 131.73 C 393.40 133.33 400.52 132.54 406.75 130.44 C 418.31 126.71 428.61 118.67 436.35 109.44 C 438.96 105.65 442.65 100.73 442.67 95.98 C 439.94 76.20 439.23 56.25 442.82 36.53 C 445.18 25.61 448.32 14.64 456.80 6.80 C 461.23 2.41 467.02 0.54 473.12 0.00 Z" fill="#2f113d" />
<path d="M 470.64 21.23 C 472.36 37.19 467.59 53.97 461.32 68.52 C 460.68 69.77 459.99 70.95 459.12 72.06 C 458.07 63.51 459.09 54.49 460.44 46.01 C 461.84 37.00 464.94 28.43 470.64 21.23 Z" fill="#ffffff" />
<path d="M 0.00 27.00 C 16.67 26.99 33.34 27.01 50.00 26.99 C 57.95 27.25 66.56 27.49 73.85 31.13 C 78.03 33.22 81.96 35.34 84.91 39.08 C 91.41 46.43 93.16 57.51 92.60 66.99 C 92.23 77.30 87.36 87.82 79.02 94.03 C 71.76 99.40 62.98 101.82 54.00 101.76 C 43.86 101.68 33.72 101.87 23.58 101.66 C 23.38 118.43 23.58 135.22 23.48 152.00 C 15.65 152.00 7.83 152.00 0.00 152.00 L 0.00 27.00 Z" fill="#2f113d" />
<path d="M 23.48 48.18 C 32.98 48.37 42.49 48.15 51.99 48.29 C 57.03 48.47 62.70 49.88 66.02 53.98 C 69.61 57.73 69.99 64.18 69.07 69.01 C 68.56 72.60 66.33 75.27 63.77 77.67 C 59.38 80.58 54.17 81.32 49.00 81.27 C 40.52 81.21 32.04 81.31 23.56 81.21 C 23.42 70.20 23.56 59.19 23.48 48.18 Z" fill="#ffffff" />
<path d="M 98.18 55.48 C 105.46 55.53 112.73 55.47 120.00 55.52 C 120.00 59.75 119.98 63.99 120.02 68.23 C 123.02 64.45 126.26 61.13 130.45 58.67 C 136.20 56.46 141.97 55.09 148.17 55.55 L 148.67 56.05 C 148.90 62.87 148.64 69.73 148.78 76.56 C 145.17 76.43 141.56 76.58 137.98 77.13 C 131.85 78.12 126.40 81.92 123.66 87.55 C 120.12 94.37 120.34 101.53 120.01 109.00 C 119.98 123.33 120.01 137.67 120.00 152.00 C 112.74 151.99 105.49 152.03 98.23 151.97 C 98.23 119.81 98.33 87.64 98.18 55.48 Z" fill="#2f113d" />
<path d="M 203.84 57.07 C 213.51 58.66 222.48 63.68 229.18 70.81 C 236.10 78.52 240.29 88.67 240.84 99.01 C 241.62 110.39 239.60 121.72 233.43 131.43 C 227.72 140.52 218.13 147.07 207.84 149.85 C 201.38 151.34 194.56 151.88 187.97 151.12 C 175.29 149.78 162.91 142.84 155.85 132.10 C 148.47 121.33 146.56 107.55 148.34 94.81 C 148.98 88.93 151.31 83.77 153.68 78.44 C 156.12 74.86 158.72 70.90 162.02 68.07 C 173.40 57.93 188.98 54.45 203.84 57.07 Z" fill="#2f113d" />
<path d="M 248.50 55.50 C 255.83 55.50 263.16 55.50 270.49 55.50 C 270.50 59.91 270.53 64.32 270.45 68.73 C 273.93 64.91 277.48 60.16 282.43 58.31 C 297.32 52.10 315.71 56.44 325.76 69.21 C 332.67 78.10 336.29 89.77 336.41 100.99 C 336.77 114.30 334.16 127.97 325.49 138.48 C 322.56 141.64 319.68 144.68 315.88 146.83 C 305.88 152.76 292.75 153.52 282.02 149.16 C 276.89 146.83 274.10 142.83 270.54 138.77 C 270.45 153.51 270.53 168.26 270.50 183.00 L 248.50 183.00 C 248.50 140.50 248.49 98.00 248.50 55.50 Z" fill="#2f113d" />
<path d="M 388.99 73.86 C 395.50 74.21 400.95 78.05 404.77 83.12 C 400.24 85.62 395.31 87.15 390.77 89.62 C 386.99 91.68 382.90 92.96 379.09 94.95 C 373.86 97.79 368.20 99.62 362.98 102.50 C 360.97 94.42 363.82 84.66 370.56 79.54 C 375.91 75.57 382.25 73.17 388.99 73.86 Z" fill="#ffffff" />
<path d="M 189.50 75.79 C 192.59 75.11 195.72 75.18 198.84 75.56 C 206.26 76.92 211.98 82.24 215.31 88.81 C 217.43 93.68 218.46 98.68 218.25 104.00 C 218.09 112.13 215.83 120.96 209.52 126.53 C 200.38 135.81 182.99 134.03 175.77 123.22 C 168.09 111.85 168.19 94.48 176.63 83.54 C 179.98 79.24 184.24 76.99 189.50 75.79 Z" fill="#ffffff" />
<path d="M 283.47 75.88 C 290.84 73.08 299.37 74.40 305.34 79.63 C 312.80 86.28 314.68 96.43 314.27 106.01 C 313.68 113.34 312.04 121.22 306.54 126.54 C 299.56 134.29 286.37 135.19 278.25 128.74 C 273.65 125.74 271.31 120.76 269.53 115.75 C 267.06 106.51 267.09 96.69 270.93 87.82 C 273.70 82.46 277.63 77.92 283.47 75.88 Z" fill="#ffffff" />
</svg>