<?xml version="1.0" encoding="UTF-8" standalone="no"?>
<!DOCTYPE svg PUBLIC "-//W3C//DTD SVG 1.1//EN" "http://www.w3.org/Graphics/SVG/1.1/DTD/svg11.dtd">
<svg xmlns="http://www.w3.org/2000/svg" version="1.1" viewBox="0 0 640 269" width="640.0pt" height="269.0pt">
<path d="M 0.00 0.00 L 640.00 0.00 L 640.00 269.00 L 0.00 269.00 L 0.00 0.00 Z" fill="#ffffff" />
<path d="M 230.20 3.38 C 253.80 7.47 276.12 18.10 294.23 33.77 C 304.40 42.38 312.79 52.64 320.16 63.70 C 320.20 46.31 320.18 28.91 320.17 11.52 C 402.32 11.51 484.47 11.52 566.62 11.51 C 566.64 93.55 566.62 175.59 566.63 257.63 C 484.48 257.63 402.32 257.63 320.17 257.63 C 320.17 240.21 320.20 222.80 320.16 205.38 C 317.05 209.84 314.03 214.33 310.56 218.52 C 293.54 239.49 270.05 255.06 244.09 262.50 C 220.12 269.41 194.17 269.43 170.19 262.57 C 143.90 255.10 120.12 239.27 103.03 217.96 C 87.35 198.59 77.33 174.78 74.52 150.02 C 71.25 122.90 76.70 94.80 89.83 70.85 C 104.00 44.82 126.97 23.89 154.20 12.22 C 177.98 1.93 204.69 -1.07 230.20 3.38 Z" fill="#2a0062" />
<path d="M 158.00 85.53 C 165.41 85.21 173.49 86.94 179.38 91.65 C 183.99 95.31 186.64 101.15 186.29 107.03 C 186.06 109.37 185.17 111.77 184.41 113.99 C 180.69 112.85 177.00 111.63 173.35 110.29 C 173.45 108.03 174.24 105.13 172.91 103.13 C 170.99 99.97 167.44 98.29 163.95 97.50 C 159.67 96.49 155.25 96.54 151.20 98.37 C 148.20 99.82 145.87 102.49 146.07 106.00 C 145.92 109.93 148.66 112.40 151.80 114.19 C 158.95 118.04 167.18 117.77 174.84 121.20 C 180.74 123.71 185.79 128.03 187.36 134.47 C 188.42 140.10 188.12 146.07 184.97 151.01 C 180.97 157.66 173.49 161.13 166.03 162.16 C 158.96 163.01 151.27 162.25 144.78 159.18 C 139.01 156.43 134.49 151.34 133.03 145.05 C 131.77 140.23 132.38 135.67 134.44 131.19 C 138.09 132.71 141.73 134.25 145.39 135.73 C 145.27 137.79 145.05 139.94 145.27 141.99 C 145.74 144.89 147.96 147.19 150.46 148.55 C 154.55 150.84 159.44 151.12 164.02 150.75 C 167.49 150.48 171.07 149.06 173.42 146.43 C 176.45 142.97 176.44 137.15 173.09 133.92 C 169.78 130.62 164.40 129.46 159.97 128.62 C 153.13 127.40 145.62 125.48 140.38 120.64 C 132.88 114.15 132.05 101.16 138.88 93.91 C 143.76 88.36 150.77 85.91 158.00 85.53 Z" fill="#ffffff" />
<path d="M 203.20 89.04 C 206.36 88.79 208.93 89.98 210.39 92.85 C 211.39 95.86 211.27 99.49 208.55 101.59 C 204.89 104.72 198.94 103.38 197.16 98.87 C 195.30 94.61 198.35 88.99 203.20 89.04 Z" fill="#ffffff" />
<path d="M 340.17 89.25 C 343.67 87.83 348.23 89.86 349.44 93.47 C 350.25 96.35 349.93 99.49 347.51 101.51 C 344.12 104.47 338.43 103.67 336.29 99.62 C 334.26 95.73 335.96 90.74 340.17 89.25 Z" fill="#ffffff" />
<path d="M 483.68 94.49 C 487.41 94.49 491.14 94.49 494.88 94.50 C 494.84 99.86 494.85 105.22 494.91 110.58 C 501.35 110.64 507.80 110.59 514.25 110.63 C 514.25 113.88 514.25 117.13 514.25 120.37 C 507.80 120.41 501.35 120.36 494.91 120.42 C 494.82 127.61 494.90 134.80 494.83 142.00 C 494.87 144.36 494.81 147.05 495.66 149.28 C 497.39 153.17 503.08 153.84 505.97 150.97 C 507.53 149.26 507.90 146.35 508.54 144.19 C 512.01 144.90 515.50 145.56 518.99 146.24 C 518.43 150.91 517.05 155.22 513.43 158.43 C 508.64 162.55 501.98 163.12 496.01 161.77 C 492.15 160.94 488.64 158.85 486.41 155.53 C 484.06 152.10 483.67 148.06 483.66 144.00 C 483.70 136.11 483.68 128.22 483.69 120.32 C 480.30 120.33 476.91 120.33 473.52 120.33 C 473.52 117.09 473.52 113.85 473.52 110.62 C 476.91 110.61 480.30 110.61 483.69 110.61 C 483.68 105.24 483.69 99.87 483.68 94.49 Z" fill="#ffffff" />
<path d="M 250.80 111.19 C 253.96 112.45 255.97 114.74 258.27 117.10 C 258.26 114.94 258.25 112.78 258.24 110.61 C 261.94 110.61 265.64 110.61 269.34 110.62 C 269.34 125.75 269.32 140.88 269.35 156.01 C 269.42 161.66 268.49 167.66 265.64 172.61 C 262.32 178.39 256.61 182.20 250.04 183.24 C 242.51 184.35 233.63 183.45 227.54 178.45 C 224.02 175.64 222.28 171.91 220.47 167.90 C 223.88 166.43 227.31 164.99 230.75 163.58 C 232.20 167.59 234.08 170.95 238.21 172.65 C 243.66 174.83 251.59 174.45 255.18 169.12 C 258.38 164.66 258.05 158.14 258.20 152.92 C 256.27 155.22 254.61 157.42 251.89 158.87 C 243.36 163.40 231.88 161.86 225.05 154.95 C 220.14 149.87 217.97 142.99 218.17 136.00 C 218.06 128.56 220.59 121.23 225.99 116.00 C 232.45 109.80 242.50 107.94 250.80 111.19 Z" fill="#ffffff" />
<path d="M 319.51 113.48 C 323.85 117.06 325.69 122.46 325.63 127.98 C 325.63 139.12 325.62 150.27 325.62 161.41 C 321.90 161.41 318.18 161.41 314.45 161.41 C 314.43 151.60 314.48 141.80 314.45 131.99 C 314.39 127.93 313.41 123.63 309.99 121.08 C 305.28 117.78 298.14 119.20 294.82 123.83 C 292.18 127.21 292.08 131.89 291.87 135.98 C 291.79 144.45 291.87 152.93 291.86 161.40 C 288.14 161.41 284.43 161.41 280.71 161.40 C 280.71 144.49 280.70 127.59 280.72 110.68 C 284.43 110.68 288.13 110.67 291.84 110.67 C 291.84 113.05 291.84 115.43 291.81 117.81 C 294.03 115.17 296.20 112.73 299.45 111.34 C 305.74 108.57 314.07 109.05 319.51 113.48 Z" fill="#ffffff" />
<path d="M 400.12 115.86 C 403.86 119.17 405.63 123.47 406.89 128.19 C 403.50 129.24 400.12 130.31 396.74 131.43 C 395.73 128.42 395.03 125.62 392.70 123.30 C 387.39 117.78 377.79 118.15 372.46 123.47 C 365.74 130.09 366.20 142.50 373.34 148.67 C 379.16 154.18 389.72 154.25 395.07 148.04 C 397.59 145.25 398.38 141.94 399.24 138.38 C 402.67 139.62 406.15 140.73 409.56 142.02 C 408.10 147.56 405.89 152.63 401.44 156.42 C 393.35 163.41 380.71 163.98 371.22 159.72 C 364.34 156.69 359.45 150.36 357.81 143.07 C 356.21 134.77 356.97 126.19 362.32 119.34 C 370.95 107.78 389.54 106.21 400.12 115.86 Z" fill="#ffffff" />
<path d="M 448.89 112.09 C 451.68 113.58 453.41 115.88 455.32 118.31 C 455.28 115.74 455.28 113.18 455.29 110.61 C 459.05 110.61 462.82 110.61 466.59 110.61 C 466.60 127.54 466.59 144.48 466.59 161.41 C 463.09 161.41 459.59 161.41 456.09 161.41 C 456.09 158.65 456.09 155.88 456.11 153.12 C 453.68 155.88 451.50 158.48 448.13 160.16 C 438.28 165.00 425.47 161.73 419.25 152.65 C 412.05 142.51 412.72 126.35 421.02 117.01 C 427.74 109.33 439.97 107.26 448.89 112.09 Z" fill="#ffffff" />
<path d="M 198.28 110.68 C 202.02 110.68 205.76 110.67 209.50 110.67 C 209.53 127.58 209.51 144.50 209.51 161.41 C 205.76 161.41 202.02 161.41 198.27 161.40 C 198.30 144.49 198.27 127.59 198.28 110.68 Z" fill="#ffffff" />
<path d="M 337.19 110.68 C 340.90 110.67 344.61 110.67 348.31 110.68 C 348.32 127.59 348.31 144.50 348.32 161.41 C 344.61 161.41 340.89 161.41 337.18 161.40 C 337.20 144.49 337.17 127.59 337.19 110.68 Z" fill="#ffffff" />
<path d="M 240.52 119.75 C 243.71 119.02 247.31 119.18 250.27 120.70 C 260.76 125.82 261.53 142.60 252.12 149.16 C 245.55 153.82 235.28 151.78 231.54 144.47 C 227.10 135.87 230.22 122.39 240.52 119.75 Z" fill="#2a0062" />
<path d="M 437.20 120.18 C 445.77 117.98 454.22 124.51 455.49 133.01 C 456.78 140.47 453.41 148.20 446.24 151.21 C 439.09 154.36 430.36 150.89 427.22 143.78 C 422.98 134.74 427.03 122.74 437.20 120.18 Z" fill="#2a0062" />
</svg>