<?xml version="1.0" encoding="UTF-8" standalone="no"?>
<!DOCTYPE svg PUBLIC "-//W3C//DTD SVG 1.1//EN" "http://www.w3.org/Graphics/SVG/1.1/DTD/svg11.dtd">
<svg xmlns="http://www.w3.org/2000/svg" version="1.1" viewBox="0 0 1063 403" width="1063.0pt" height="403.0pt">
<path d="M 0.00 0.00 L 1063.00 0.00 L 1063.00 403.00 L 0.00 403.00 L 0.00 0.00 Z" fill="#ffffff" />
<path d="M 957.22 34.85 C 948.44 43.64 939.67 52.45 930.86 61.22 C 932.22 62.86 933.63 64.43 935.18 65.89 C 944.13 57.11 952.86 48.10 961.84 39.34 C 972.20 51.52 974.18 69.43 966.66 83.55 C 960.18 95.99 947.01 104.17 932.99 104.57 C 918.03 105.18 903.50 96.79 896.65 83.46 C 892.24 75.33 891.18 65.86 892.92 56.84 C 895.40 44.72 903.85 34.14 915.11 29.02 C 928.79 22.62 945.83 24.89 957.22 34.85 Z" fill="#010a59" />
<path d="M 1027.46 105.56 C 1035.89 112.17 1041.33 122.52 1042.33 133.15 C 1029.91 133.22 1017.49 133.16 1005.07 133.18 C 1004.96 135.21 1004.94 137.22 1005.02 139.25 C 1017.43 139.31 1029.84 139.26 1042.25 139.28 C 1041.68 151.48 1034.37 162.65 1024.34 169.32 C 1013.61 176.55 999.14 177.82 987.28 172.70 C 974.31 167.05 964.96 154.15 963.84 140.02 C 962.29 124.37 970.71 108.86 984.67 101.66 C 998.21 94.40 1015.44 96.05 1027.46 105.56 Z" fill="#58b3cd" />
<path d="M 191.47 162.62 C 195.78 160.99 200.45 161.35 204.52 163.48 C 210.44 166.59 213.65 173.43 212.47 179.99 C 211.32 187.37 204.50 193.15 197.01 192.93 C 188.94 192.95 181.77 186.10 181.45 178.03 C 180.95 171.37 185.20 164.89 191.47 162.62 Z" fill="#000000" />
<path d="M 931.00 167.37 C 945.52 166.71 959.61 174.62 966.82 187.19 C 971.61 195.30 972.77 204.76 971.30 213.97 C 968.23 230.91 952.81 245.61 935.25 245.95 C 935.22 233.49 935.26 221.03 935.24 208.57 C 933.21 208.57 931.18 208.57 929.15 208.58 C 929.15 221.04 929.17 233.49 929.14 245.95 C 920.28 245.33 911.96 241.56 905.53 235.46 C 893.94 224.73 889.90 207.37 895.63 192.63 C 901.04 178.03 915.42 167.72 931.00 167.37 Z" fill="#1ab96d" />
<path d="M 29.35 168.88 C 38.71 168.88 48.06 168.87 57.42 168.88 C 57.47 180.84 57.43 192.80 57.44 204.77 C 66.90 204.78 76.36 204.77 85.82 204.77 C 85.91 214.13 85.84 223.50 85.86 232.86 C 76.39 232.93 66.92 232.75 57.45 232.96 C 57.42 264.01 57.48 295.07 57.42 326.12 C 48.06 326.13 38.70 326.13 29.35 326.12 C 29.31 273.71 29.30 221.29 29.35 168.88 Z" fill="#000000" />
<path d="M 380.78 168.88 C 390.11 168.87 399.43 168.88 408.76 168.88 C 408.83 221.29 408.81 273.71 408.77 326.12 C 399.44 326.12 390.11 326.13 380.78 326.12 C 380.76 273.71 380.76 221.29 380.78 168.88 Z" fill="#000000" />
<path d="M 568.71 168.88 C 577.94 168.87 587.17 168.88 596.39 168.88 C 596.45 180.84 596.40 192.80 596.42 204.77 C 606.10 204.78 615.78 204.77 625.46 204.77 C 625.58 214.14 625.24 223.50 625.34 232.87 C 615.70 232.92 606.06 232.75 596.43 232.95 C 596.39 264.01 596.45 295.07 596.40 326.12 C 587.17 326.13 577.94 326.13 568.71 326.12 C 568.69 273.71 568.68 221.30 568.71 168.88 Z" fill="#000000" />
<path d="M 162.34 205.81 C 162.37 214.69 162.35 223.56 162.35 232.43 C 153.12 230.76 143.03 232.85 135.40 238.38 C 128.78 243.02 123.90 250.15 121.92 257.98 C 120.15 264.26 120.86 271.45 120.70 278.00 C 120.55 293.83 120.40 309.69 120.28 325.52 C 110.90 325.55 101.51 325.52 92.12 325.54 C 92.14 305.36 92.04 285.17 92.17 265.00 C 92.54 243.82 104.82 223.72 123.22 213.34 C 135.01 206.54 148.87 203.98 162.34 205.81 Z" fill="#000000" />
<path d="M 489.99 205.33 C 504.96 205.23 519.80 211.00 530.63 221.36 C 541.56 231.43 548.70 245.27 550.69 259.99 C 520.56 268.62 490.45 277.36 460.32 285.98 C 464.89 296.50 474.59 303.98 485.97 305.51 C 493.07 306.50 499.65 304.79 506.21 302.23 C 515.06 298.40 521.33 290.45 523.60 281.13 C 532.74 278.60 541.85 275.95 550.99 273.39 C 550.06 289.43 541.69 305.11 529.52 315.50 C 519.63 323.93 506.89 328.59 494.00 329.47 C 478.67 330.48 463.23 325.49 451.35 315.77 C 432.58 300.69 424.26 274.40 430.65 251.21 C 434.34 237.35 442.89 224.92 454.62 216.64 C 464.82 209.37 477.44 205.19 489.99 205.33 Z" fill="#000000" />
<path d="M 690.99 205.33 C 705.94 205.24 720.81 211.05 731.61 221.41 C 742.52 231.48 749.61 245.29 751.63 259.98 C 721.48 268.62 691.35 277.30 661.20 285.94 C 665.92 297.09 676.90 304.95 689.00 305.67 C 695.25 306.14 701.41 304.44 707.16 302.14 C 715.98 298.34 722.24 290.38 724.46 281.10 C 733.64 278.55 742.78 275.86 751.97 273.34 C 750.87 288.73 743.37 303.64 732.02 314.03 C 721.62 323.58 708.01 328.68 694.00 329.49 C 679.97 330.18 665.78 325.90 654.52 317.49 C 632.98 301.91 624.01 272.27 632.76 247.23 C 636.63 235.87 643.84 225.61 653.35 218.26 C 663.96 209.95 677.50 205.19 690.99 205.33 Z" fill="#000000" />
<path d="M 286.53 207.82 C 300.12 205.62 314.94 206.39 327.47 212.53 C 341.74 219.19 353.07 231.68 358.27 246.55 C 361.05 254.06 362.02 262.02 361.67 270.00 C 361.55 284.17 356.15 298.11 346.86 308.79 C 335.28 322.29 317.79 330.06 300.00 329.71 C 287.75 329.93 275.76 326.69 265.20 320.51 C 265.19 336.36 265.21 352.22 265.19 368.07 C 255.78 368.08 246.37 368.08 236.97 368.07 C 236.95 334.38 236.97 300.69 236.96 267.00 C 237.00 260.00 238.18 253.05 240.65 246.49 C 247.81 226.64 265.72 211.47 286.53 207.82 Z" fill="#000000" />
<path d="M 211.61 209.41 C 211.63 248.25 211.61 287.09 211.62 325.94 C 202.26 325.96 192.90 325.94 183.54 325.95 C 183.52 287.10 183.54 248.26 183.53 209.42 C 192.89 209.39 202.25 209.41 211.61 209.41 Z" fill="#000000" />
<path d="M 866.37 210.54 C 853.40 228.96 840.29 247.28 827.41 265.75 C 842.05 286.11 856.50 306.61 871.04 327.04 C 859.50 326.98 847.92 327.24 836.39 326.90 C 827.99 313.55 819.23 300.41 810.72 287.13 C 801.81 300.42 793.18 313.92 784.13 327.11 C 772.86 326.98 761.58 327.10 750.31 327.05 C 764.72 306.60 779.06 286.11 793.48 265.66 C 780.51 247.27 767.48 228.93 754.53 210.53 C 765.69 210.50 776.86 210.47 788.02 210.55 C 795.55 222.44 803.03 234.37 810.74 246.14 C 818.14 234.30 825.50 222.40 832.91 210.57 C 844.05 210.43 855.22 210.51 866.37 210.54 Z" fill="#000000" />
<path d="M 485.18 229.56 C 498.34 227.53 512.66 234.72 518.16 246.98 C 497.10 252.87 476.10 259.14 455.02 264.96 C 454.15 254.84 458.19 244.53 465.92 237.89 C 471.31 233.04 478.16 230.83 485.18 229.56 Z" fill="#ffffff" />
<path d="M 695.00 229.54 C 705.14 230.88 714.80 237.56 719.13 246.91 C 698.09 252.95 677.02 259.07 655.95 264.97 C 654.60 250.15 663.92 235.91 678.19 231.54 C 683.65 229.70 689.24 228.70 695.00 229.54 Z" fill="#ffffff" />
<path d="M 294.28 232.42 C 306.37 230.26 319.32 235.53 326.77 245.24 C 334.88 255.47 336.36 270.31 331.30 282.21 C 327.30 291.62 318.87 299.11 308.96 301.74 C 304.80 303.00 300.27 303.01 295.97 302.73 C 284.05 301.61 273.24 293.45 268.46 282.54 C 265.86 276.93 265.46 271.10 265.74 265.00 C 266.07 249.02 278.50 234.87 294.28 232.42 Z" fill="#ffffff" />
</svg>