<?xml version="1.0" encoding="UTF-8" standalone="no"?>
<!DOCTYPE svg PUBLIC "-//W3C//DTD SVG 1.1//EN" "http://www.w3.org/Graphics/SVG/1.1/DTD/svg11.dtd">
<svg xmlns="http://www.w3.org/2000/svg" version="1.1" viewBox="0 0 1024 309" width="1024.0pt" height="309.0pt">
<path d="M 0.00 0.00 L 1024.00 0.00 L 1024.00 309.00 L 0.00 309.00 L 0.00 0.00 Z" fill="#ffffff" />
<path d="M 222.29 105.71 C 237.40 114.15 251.94 124.52 264.08 136.90 C 273.18 145.97 281.31 156.53 286.84 168.16 C 291.73 178.53 294.57 190.28 292.91 201.76 C 291.66 211.38 287.04 220.36 280.15 227.17 C 270.58 236.94 257.15 242.58 244.00 245.56 C 220.09 250.91 194.64 248.87 170.96 243.28 C 137.97 235.31 105.97 220.02 80.14 197.85 C 66.62 185.93 54.14 171.66 47.16 154.86 C 42.10 142.68 40.28 129.20 44.61 116.51 C 47.92 106.80 54.60 98.88 62.91 93.03 C 115.47 132.08 168.02 171.12 220.59 210.15 C 192.22 166.28 163.76 122.43 135.45 78.53 C 165.78 81.17 195.69 91.02 222.29 105.71 Z" fill="#e70641" />
<path d="M 356.03 79.25 C 367.76 79.18 379.48 79.23 391.21 79.22 C 398.38 108.14 405.45 137.10 412.74 165.98 C 414.46 173.43 415.54 181.01 417.06 188.50 C 419.13 179.18 419.57 169.77 422.01 160.52 C 428.79 133.42 435.64 106.31 442.42 79.21 C 453.88 79.24 465.34 79.21 476.79 79.22 C 462.72 130.59 448.50 181.94 434.37 233.30 C 433.05 237.69 432.23 242.10 430.49 246.34 C 421.64 246.16 412.78 246.34 403.93 246.24 C 388.03 190.60 371.79 134.91 356.03 79.25 Z" fill="#221f1f" />
<path d="M 501.52 79.30 C 512.46 79.12 523.44 79.24 534.39 79.25 C 534.34 134.92 534.42 190.59 534.35 246.25 C 523.40 246.29 512.45 246.25 501.51 246.27 C 501.41 190.73 501.39 134.83 501.52 79.30 Z" fill="#221f1f" />
<path d="M 576.36 79.34 C 589.40 79.06 602.57 79.28 615.63 79.25 C 612.41 81.54 609.91 84.44 607.76 87.73 C 601.76 97.02 598.17 107.89 599.69 119.04 C 601.05 129.41 605.84 138.21 610.98 147.12 C 619.46 162.05 628.55 177.13 632.00 194.17 C 635.92 211.57 631.55 230.69 623.29 246.22 C 610.15 246.18 597.01 246.22 583.88 246.20 C 588.73 241.69 593.08 236.94 595.68 230.75 C 600.34 220.25 600.28 208.63 596.97 197.75 C 592.21 181.40 581.62 165.95 574.68 150.22 C 570.09 139.98 566.39 128.30 566.43 117.00 C 566.07 103.92 569.94 90.67 576.36 79.34 Z" fill="#221f1f" />
<path d="M 676.60 79.32 C 690.97 79.07 705.44 79.29 719.82 79.22 C 725.27 112.24 730.52 145.33 736.06 178.33 C 740.75 145.36 744.96 112.24 749.44 79.22 C 764.13 79.22 778.82 79.22 793.51 79.22 C 799.41 134.87 805.28 190.61 810.89 246.27 C 799.75 246.27 788.61 246.26 777.46 246.28 C 776.74 241.53 776.63 236.75 776.31 231.97 C 773.89 196.39 771.73 160.64 769.13 125.10 C 767.49 135.63 766.44 146.22 764.91 156.76 C 763.49 170.25 760.48 183.57 758.31 196.95 C 755.27 213.38 752.52 229.87 749.42 246.28 C 741.11 246.29 732.80 246.18 724.49 246.34 C 724.01 244.73 723.52 243.14 723.21 241.49 C 718.80 219.33 714.28 197.19 709.87 175.04 C 707.38 163.86 706.16 152.39 704.36 141.08 C 703.70 135.77 702.37 130.60 702.02 125.25 C 700.81 165.50 698.87 206.00 697.34 246.26 C 685.65 246.28 673.95 246.25 662.25 246.28 C 662.39 241.88 662.65 237.50 663.18 233.14 C 667.66 181.86 672.07 130.59 676.60 79.32 Z" fill="#221f1f" />
<path d="M 875.73 79.32 C 884.63 79.06 893.58 79.32 902.49 79.21 C 918.66 134.82 934.57 190.59 950.60 246.25 C 938.89 246.30 927.17 246.22 915.46 246.30 C 908.00 217.84 901.39 189.07 894.04 160.57 C 891.96 152.71 891.36 144.61 889.05 136.82 C 888.37 142.23 887.54 147.61 886.73 153.00 C 885.68 161.19 883.34 169.12 881.37 177.11 C 876.57 196.33 871.69 215.54 866.88 234.76 C 865.85 238.62 865.06 242.54 863.80 246.34 C 852.51 246.17 841.22 246.32 829.93 246.26 C 830.40 243.15 831.17 240.17 832.09 237.16 C 845.88 187.16 859.66 137.15 873.44 87.15 C 874.15 84.54 874.77 81.85 875.73 79.32 Z" fill="#221f1f" />
</svg>