<?xml version="1.0" encoding="UTF-8" standalone="no"?>
<!DOCTYPE svg PUBLIC "-//W3C//DTD SVG 1.1//EN" "http://www.w3.org/Graphics/SVG/1.1/DTD/svg11.dtd">
<svg xmlns="http://www.w3.org/2000/svg" version="1.1" viewBox="0 0 965 218" width="965.0pt" height="218.0pt">
<path d="M 0.00 0.00 L 965.00 0.00 L 965.00 218.00 L 0.00 218.00 L 0.00 0.00 Z" fill="#ffffff" />
<path d="M 28.04 1.43 C 32.93 0.72 38.06 1.05 43.00 1.00 C 336.67 1.00 630.33 1.01 924.00 1.00 C 929.50 1.06 935.67 0.56 940.96 2.08 C 950.72 4.74 958.75 12.50 961.67 22.20 C 963.43 27.75 962.96 33.23 963.01 39.00 C 962.99 88.00 963.00 137.00 963.01 186.00 C 963.03 190.86 962.18 195.64 960.02 200.02 C 955.63 209.26 946.25 215.94 936.03 216.80 C 931.71 217.17 927.33 216.98 923.00 217.00 C 629.33 217.00 335.67 217.00 42.00 217.00 C 35.60 216.94 28.90 217.54 22.81 215.22 C 14.04 212.03 7.03 204.75 4.33 195.80 C 2.57 190.24 3.04 184.77 2.99 179.00 C 3.01 132.67 3.00 86.33 3.00 40.00 C 3.06 33.45 2.43 27.02 4.80 20.78 C 8.38 10.76 17.52 3.10 28.04 1.43 Z" fill="#3c6587" />
<path d="M 393.99 42.49 C 403.67 42.47 413.35 42.52 423.03 42.48 C 433.03 42.36 442.92 45.99 450.48 52.53 C 461.44 61.87 466.98 76.80 464.77 91.04 C 462.59 106.89 450.87 120.77 435.51 125.35 C 426.22 128.17 415.19 127.01 405.51 127.25 C 405.48 139.19 405.51 151.12 405.52 163.05 C 405.56 166.44 404.51 169.65 402.07 172.07 C 397.30 176.85 388.89 176.78 384.56 171.44 C 381.00 167.51 381.82 162.88 381.72 158.00 C 381.79 123.68 381.74 89.31 381.74 54.98 C 381.76 51.84 382.31 48.90 384.54 46.55 C 386.98 43.63 390.24 42.45 393.99 42.49 Z" fill="#ffffff" />
<path d="M 108.01 42.62 C 114.66 42.28 121.34 42.63 128.00 42.48 C 131.53 42.52 135.45 42.16 138.86 43.15 C 144.79 45.10 148.13 51.86 146.51 57.81 C 145.32 62.68 140.92 66.35 135.92 66.65 C 127.28 67.03 118.59 66.50 109.95 66.81 C 105.73 66.82 102.23 69.76 100.28 73.28 C 99.31 75.38 99.27 77.71 99.22 79.96 C 99.26 98.98 99.28 117.99 99.22 137.00 C 99.25 139.49 99.17 142.41 100.11 144.76 C 101.85 148.70 105.70 150.96 109.91 151.28 C 118.92 151.96 128.04 151.08 137.05 151.65 C 144.81 152.68 149.09 161.89 145.78 168.77 C 143.70 173.01 139.80 175.53 135.03 175.49 C 127.02 175.57 119.01 175.46 111.00 175.52 C 103.23 175.59 95.56 173.36 89.29 168.72 C 82.35 163.49 77.40 155.64 75.97 147.03 C 75.09 141.97 75.24 137.12 75.24 132.00 C 75.27 114.66 75.22 97.30 75.25 79.96 C 75.29 72.27 77.01 64.73 81.19 58.21 C 86.83 48.90 97.28 43.33 108.01 42.62 Z" fill="#ffffff" />
<path d="M 234.75 51.23 C 241.56 56.20 246.66 63.48 248.40 71.78 C 249.62 77.58 249.20 84.06 249.25 90.00 C 249.24 106.00 249.27 122.01 249.25 138.01 C 249.21 144.74 247.73 151.34 244.05 157.04 C 236.42 169.18 221.03 175.84 207.00 175.55 C 192.35 175.53 177.00 168.42 169.72 155.28 C 166.31 149.31 165.50 142.78 165.49 136.01 C 165.50 118.34 165.52 100.67 165.48 83.00 C 165.49 77.15 165.83 71.57 168.14 66.12 C 171.51 57.97 177.95 51.71 185.72 47.72 C 201.09 39.67 220.73 40.96 234.75 51.23 Z" fill="#ffffff" />
<path d="M 282.02 42.94 C 284.90 42.29 288.05 42.48 291.00 42.47 C 299.67 42.59 308.35 42.39 317.02 42.53 C 328.76 42.88 339.93 48.57 347.36 57.62 C 358.98 71.39 360.52 92.80 351.15 108.13 C 347.58 114.15 342.42 118.65 336.51 122.29 C 342.61 133.27 348.57 144.34 354.68 155.32 C 356.01 157.79 357.19 160.12 357.05 163.02 C 356.94 169.59 351.88 175.71 345.00 175.55 C 340.19 175.64 336.47 172.90 334.27 168.78 C 326.77 154.88 319.31 140.93 311.74 127.00 C 306.99 127.00 302.24 127.00 297.50 127.01 C 297.53 138.00 297.45 149.00 297.55 160.00 C 297.51 164.04 297.69 167.72 294.97 171.01 C 290.70 176.57 281.81 177.20 277.02 171.97 C 274.50 169.56 273.70 166.43 273.73 163.01 C 273.79 126.82 273.71 90.07 273.77 53.95 C 273.72 48.91 277.17 44.27 282.02 42.94 Z" fill="#ffffff" />
<path d="M 550.55 50.45 C 557.18 54.96 562.33 61.49 564.65 69.21 C 566.58 75.18 565.92 81.74 566.00 88.00 C 565.99 105.33 566.02 122.69 566.00 140.01 C 565.94 150.43 560.62 160.12 552.37 166.35 C 536.60 178.44 513.07 178.64 497.02 166.97 C 490.25 162.12 485.26 154.95 483.38 146.80 C 482.15 141.31 482.53 135.63 482.50 130.00 C 482.50 113.33 482.51 96.66 482.48 79.99 C 482.50 75.48 483.08 71.02 484.78 66.80 C 488.46 57.17 496.70 49.95 506.11 46.09 C 520.50 40.07 537.65 41.62 550.55 50.45 Z" fill="#ffffff" />
<path d="M 609.93 45.04 C 612.91 47.68 614.49 52.12 616.46 55.54 C 627.70 76.01 638.95 96.48 650.22 116.93 C 650.27 99.29 650.24 81.64 650.25 64.00 C 650.28 60.14 650.00 56.18 650.47 52.34 C 651.40 46.80 656.41 42.57 662.02 42.48 C 668.34 42.33 673.94 47.56 673.96 53.94 C 674.07 89.14 673.94 124.76 674.02 160.01 C 673.93 163.85 673.90 168.27 671.44 171.46 C 667.33 176.98 657.64 176.94 653.40 171.59 C 651.18 168.72 649.69 165.25 647.89 162.11 C 636.76 141.95 625.65 121.78 614.49 101.64 C 614.52 121.77 614.49 141.87 614.51 162.01 C 614.53 166.05 613.61 169.74 610.46 172.45 C 605.55 177.10 597.05 176.45 593.02 170.99 C 589.87 166.93 590.54 161.83 590.47 157.00 C 590.53 123.35 590.49 89.64 590.49 55.99 C 590.54 52.50 591.15 49.20 593.56 46.56 C 597.54 41.84 605.20 41.03 609.93 45.04 Z" fill="#ffffff" />
<path d="M 762.20 47.83 C 770.69 52.20 777.52 59.38 780.50 68.55 C 782.62 74.81 781.91 81.47 782.00 88.00 C 781.99 105.32 782.01 122.69 782.00 140.01 C 782.00 149.70 777.36 158.80 770.03 165.02 C 753.22 179.36 726.17 179.05 709.73 164.25 C 702.55 157.80 698.57 148.65 698.51 139.01 C 698.49 119.01 698.49 98.99 698.51 78.99 C 698.58 68.54 703.29 58.95 711.43 52.43 C 725.55 41.04 746.23 39.34 762.20 47.83 Z" fill="#ffffff" />
<path d="M 818.99 42.48 C 829.00 42.50 839.01 42.48 849.02 42.50 C 860.87 42.59 872.22 48.07 879.85 57.10 C 891.92 70.87 893.52 92.51 884.13 108.12 C 880.55 114.16 875.35 118.61 869.46 122.32 C 875.79 133.74 882.06 145.23 888.34 156.68 C 890.75 160.99 890.50 165.79 887.95 169.96 C 885.14 174.65 879.27 176.71 874.11 174.93 C 870.62 173.87 868.51 171.25 866.85 168.16 C 859.51 154.41 852.10 140.71 844.70 127.00 C 839.97 127.00 835.23 127.00 830.50 127.01 C 830.50 138.68 830.50 150.34 830.53 162.01 C 830.58 166.01 829.62 169.77 826.53 172.50 C 821.79 176.92 813.71 176.50 809.51 171.53 C 807.11 168.83 806.55 165.53 806.49 162.02 C 806.49 127.04 806.53 91.96 806.48 56.99 C 806.56 53.37 806.73 49.99 809.02 47.00 C 811.41 43.81 815.05 42.39 818.99 42.48 Z" fill="#ffffff" />
<path d="M 221.62 71.36 C 224.39 73.59 225.31 76.51 225.26 79.98 C 225.25 96.32 225.24 112.66 225.25 129.00 C 225.21 132.98 225.50 137.04 225.03 141.00 C 224.63 144.26 222.06 146.76 219.38 148.38 C 214.59 151.21 208.40 151.77 202.98 150.98 C 198.64 150.27 193.91 148.36 191.23 144.71 C 189.35 142.24 189.53 138.95 189.46 136.00 C 189.60 117.01 189.40 97.94 189.55 78.96 C 189.54 73.78 193.29 70.46 197.73 68.58 C 205.22 65.49 215.22 66.10 221.62 71.36 Z" fill="#3c6587" />
<path d="M 297.50 66.75 C 304.01 66.87 310.55 66.53 317.05 66.86 C 326.13 67.54 333.47 75.97 333.28 85.01 C 333.34 93.93 326.03 102.29 317.05 102.92 C 310.54 103.19 304.01 102.89 297.50 103.00 C 297.50 90.92 297.50 78.84 297.50 66.75 Z" fill="#3c6587" />
<path d="M 405.50 66.75 C 410.34 66.77 415.17 66.75 420.00 66.71 C 423.74 66.74 427.22 66.64 430.67 68.32 C 437.39 71.46 441.83 78.57 441.25 86.04 C 440.77 94.93 433.10 102.91 424.05 102.98 C 417.87 103.12 411.69 102.93 405.50 103.00 C 405.50 90.92 405.50 78.84 405.50 66.75 Z" fill="#3c6587" />
<path d="M 538.57 71.42 C 541.28 73.64 542.22 76.51 542.23 79.95 C 542.30 98.61 542.19 117.33 542.28 136.00 C 542.21 138.79 542.27 142.17 540.57 144.54 C 538.23 147.98 533.73 149.96 529.78 150.78 C 522.90 152.10 514.27 151.09 509.11 145.90 C 506.86 143.73 506.47 141.01 506.47 138.01 C 506.52 121.66 506.49 105.34 506.50 89.00 C 506.54 85.03 506.24 80.97 506.70 77.02 C 507.23 72.74 511.48 69.76 515.22 68.34 C 522.61 65.54 532.35 66.22 538.57 71.42 Z" fill="#3c6587" />
<path d="M 755.61 72.42 C 758.05 74.81 758.22 77.75 758.27 80.99 C 758.23 99.66 758.23 118.34 758.28 137.01 C 758.19 139.62 758.19 142.33 756.63 144.56 C 754.34 147.84 750.31 149.73 746.52 150.64 C 739.76 152.16 730.93 151.31 725.66 146.36 C 720.90 142.53 722.88 134.43 722.50 129.00 C 722.47 113.67 722.56 98.33 722.46 83.00 C 722.52 80.30 722.27 76.96 723.49 74.50 C 725.67 70.56 730.27 68.35 734.50 67.37 C 741.47 65.80 750.49 66.97 755.61 72.42 Z" fill="#3c6587" />
<path d="M 830.50 66.75 C 836.00 66.80 841.50 66.70 847.00 66.72 C 850.26 66.73 853.42 67.12 856.34 68.67 C 863.25 72.22 867.44 80.34 865.94 88.03 C 864.51 96.10 857.41 102.86 849.06 102.98 C 842.88 103.13 836.69 102.92 830.50 103.00 C 830.50 90.92 830.50 78.84 830.50 66.75 Z" fill="#3c6587" />
</svg>